<?xml version="1.0" encoding="utf-8" standalone="no"?>
<!DOCTYPE svg PUBLIC "-//W3C//DTD SVG 1.1//EN"
  "http://www.w3.org/Graphics/SVG/1.1/DTD/svg11.dtd">
<svg xmlns:xlink="http://www.w3.org/1999/xlink" width="457.098063pt" height="158.674375pt" viewBox="0 0 457.098063 158.674375" xmlns="http://www.w3.org/2000/svg" version="1.1">
 <metadata>
  <rdf:RDF xmlns:dc="http://purl.org/dc/elements/1.1/" xmlns:cc="http://creativecommons.org/ns#" xmlns:rdf="http://www.w3.org/1999/02/22-rdf-syntax-ns#">
   <cc:Work>
    <dc:type rdf:resource="http://purl.org/dc/dcmitype/StillImage"/>
    <dc:date>2025-04-13T06:27:04.306410</dc:date>
    <dc:format>image/svg+xml</dc:format>
    <dc:creator>
     <cc:Agent>
      <dc:title>Matplotlib v3.9.3, https://matplotlib.org/</dc:title>
     </cc:Agent>
    </dc:creator>
   </cc:Work>
  </rdf:RDF>
 </metadata>
 <defs>
  <style type="text/css">*{stroke-linejoin: round; stroke-linecap: butt}</style>
 </defs>
 <g id="figure_1">
  <g id="patch_1">
   <path d="M 0 158.674375 
L 457.098063 158.674375 
L 457.098063 0 
L 0 0 
z
" style="fill: #ffffff"/>
  </g>
  <g id="axes_1">
   <g id="patch_2">
    <path d="M 48.982813 121.118125 
L 163.227479 121.118125 
L 163.227479 22.318125 
L 48.982813 22.318125 
z
" style="fill: #ffffff"/>
   </g>
   <g id="PolyCollection_1">
    <defs>
     <path id="m9dc36b5c7a" d="M 54.175752 -131.865341 
L 54.175752 -131.865333 
L 56.252928 -126.542174 
L 58.330103 -121.147523 
L 60.407279 -115.826007 
L 62.484455 -110.551632 
L 64.561631 -105.328673 
L 66.638806 -100.174687 
L 68.715982 -95.119536 
L 70.793158 -90.215803 
L 72.870334 -85.549514 
L 74.947509 -81.237272 
L 77.024685 -77.399011 
L 79.101861 -74.115348 
L 81.179037 -71.400917 
L 83.256213 -69.210743 
L 85.333388 -67.465587 
L 87.410564 -66.077463 
L 89.48774 -64.965943 
L 91.564916 -64.064905 
L 93.642091 -63.323248 
L 95.719267 -62.702993 
L 97.796443 -62.176227 
L 99.873619 -61.722807 
L 101.950794 -61.327779 
L 104.02797 -60.980243 
L 106.105146 -60.67203 
L 108.182322 -60.396819 
L 110.259497 -60.14986 
L 112.336673 -59.927416 
L 114.413849 -59.726305 
L 116.491025 -59.544007 
L 118.5682 -59.378382 
L 120.645376 -59.227656 
L 122.722552 -59.09028 
L 124.799728 -58.96499 
L 126.876903 -58.850562 
L 128.954079 -58.746054 
L 131.031255 -58.650453 
L 133.108431 -58.562952 
L 135.185606 -58.482942 
L 137.262782 -58.409705 
L 139.339958 -58.342627 
L 141.417134 -58.281131 
L 143.494309 -58.224753 
L 145.571485 -58.173075 
L 147.648661 -58.12567 
L 149.725837 -58.082109 
L 151.803013 -58.042064 
L 153.880188 -58.005365 
L 155.957364 -57.971659 
L 158.03454 -57.940668 
L 158.03454 -69.888462 
L 158.03454 -69.888462 
L 155.957364 -69.928366 
L 153.880188 -69.970881 
L 151.803013 -70.01617 
L 149.725837 -70.064557 
L 147.648661 -70.116245 
L 145.571485 -70.171671 
L 143.494309 -70.231115 
L 141.417134 -70.294911 
L 139.339958 -70.363494 
L 137.262782 -70.437336 
L 135.185606 -70.517011 
L 133.108431 -70.602984 
L 131.031255 -70.695994 
L 128.954079 -70.796639 
L 126.876903 -70.905823 
L 124.799728 -71.024438 
L 122.722552 -71.153289 
L 120.645376 -71.293529 
L 118.5682 -71.446508 
L 116.491025 -71.613633 
L 114.413849 -71.79685 
L 112.336673 -71.998152 
L 110.259497 -72.220215 
L 108.182322 -72.466181 
L 106.105146 -72.74003 
L 104.02797 -73.047007 
L 101.950794 -73.393503 
L 99.873619 -73.788143 
L 97.796443 -74.241681 
L 95.719267 -74.768226 
L 93.642091 -75.38611 
L 91.564916 -76.11814 
L 89.48774 -76.992487 
L 87.410564 -78.042336 
L 85.333388 -79.304664 
L 83.256213 -80.816838 
L 81.179037 -82.610183 
L 79.101861 -84.704717 
L 77.024685 -87.104787 
L 74.947509 -89.805976 
L 72.870334 -92.804197 
L 70.793158 -96.100728 
L 68.715982 -99.696955 
L 66.638806 -103.591016 
L 64.561631 -107.778237 
L 62.484455 -112.255727 
L 60.407279 -117.024503 
L 58.330103 -122.081035 
L 56.252928 -127.395881 
L 54.175752 -131.865341 
z
" style="stroke: #d95f18; stroke-opacity: 0.2"/>
    </defs>
    <g clip-path="url(#pa59ee8b4b7)">
     <use xlink:href="#m9dc36b5c7a" x="0" y="158.674375" style="fill: #d95f18; fill-opacity: 0.2; stroke: #d95f18; stroke-opacity: 0.2"/>
    </g>
   </g>
   <g id="matplotlib.axis_1">
    <g id="xtick_1">
     <g id="line2d_1">
      <defs>
       <path id="m48f1562b23" d="M 0 0 
L 0 3.5 
" style="stroke: #000000; stroke-width: 0.8"/>
      </defs>
      <g>
       <use xlink:href="#m48f1562b23" x="54.175752" y="121.118125" style="stroke: #000000; stroke-width: 0.8"/>
      </g>
     </g>
     <g id="text_1">
      <!-- 0 -->
      <g transform="translate(50.994502 135.716563) scale(0.1 -0.1)">
       <defs>
        <path id="DejaVuSans-30" d="M 2034 4250 
Q 1547 4250 1301 3770 
Q 1056 3291 1056 2328 
Q 1056 1369 1301 889 
Q 1547 409 2034 409 
Q 2525 409 2770 889 
Q 3016 1369 3016 2328 
Q 3016 3291 2770 3770 
Q 2525 4250 2034 4250 
z
M 2034 4750 
Q 2819 4750 3233 4129 
Q 3647 3509 3647 2328 
Q 3647 1150 3233 529 
Q 2819 -91 2034 -91 
Q 1250 -91 836 529 
Q 422 1150 422 2328 
Q 422 3509 836 4129 
Q 1250 4750 2034 4750 
z
" transform="scale(0.015625)"/>
       </defs>
       <use xlink:href="#DejaVuSans-30"/>
      </g>
     </g>
    </g>
    <g id="xtick_2">
     <g id="line2d_2">
      <g>
       <use xlink:href="#m48f1562b23" x="95.719267" y="121.118125" style="stroke: #000000; stroke-width: 0.8"/>
      </g>
     </g>
     <g id="text_2">
      <!-- 20 -->
      <g transform="translate(89.356767 135.716563) scale(0.1 -0.1)">
       <defs>
        <path id="DejaVuSans-32" d="M 1228 531 
L 3431 531 
L 3431 0 
L 469 0 
L 469 531 
Q 828 903 1448 1529 
Q 2069 2156 2228 2338 
Q 2531 2678 2651 2914 
Q 2772 3150 2772 3378 
Q 2772 3750 2511 3984 
Q 2250 4219 1831 4219 
Q 1534 4219 1204 4116 
Q 875 4013 500 3803 
L 500 4441 
Q 881 4594 1212 4672 
Q 1544 4750 1819 4750 
Q 2544 4750 2975 4387 
Q 3406 4025 3406 3419 
Q 3406 3131 3298 2873 
Q 3191 2616 2906 2266 
Q 2828 2175 2409 1742 
Q 1991 1309 1228 531 
z
" transform="scale(0.015625)"/>
       </defs>
       <use xlink:href="#DejaVuSans-32"/>
       <use xlink:href="#DejaVuSans-30" x="63.623047"/>
      </g>
     </g>
    </g>
    <g id="xtick_3">
     <g id="line2d_3">
      <g>
       <use xlink:href="#m48f1562b23" x="137.262782" y="121.118125" style="stroke: #000000; stroke-width: 0.8"/>
      </g>
     </g>
     <g id="text_3">
      <!-- 40 -->
      <g transform="translate(130.900282 135.716563) scale(0.1 -0.1)">
       <defs>
        <path id="DejaVuSans-34" d="M 2419 4116 
L 825 1625 
L 2419 1625 
L 2419 4116 
z
M 2253 4666 
L 3047 4666 
L 3047 1625 
L 3713 1625 
L 3713 1100 
L 3047 1100 
L 3047 0 
L 2419 0 
L 2419 1100 
L 313 1100 
L 313 1709 
L 2253 4666 
z
" transform="scale(0.015625)"/>
       </defs>
       <use xlink:href="#DejaVuSans-34"/>
       <use xlink:href="#DejaVuSans-30" x="63.623047"/>
      </g>
     </g>
    </g>
    <g id="text_4">
     <!-- imaginary time step -->
     <g transform="translate(55.680927 149.394688) scale(0.1 -0.1)">
      <defs>
       <path id="DejaVuSans-69" d="M 603 3500 
L 1178 3500 
L 1178 0 
L 603 0 
L 603 3500 
z
M 603 4863 
L 1178 4863 
L 1178 4134 
L 603 4134 
L 603 4863 
z
" transform="scale(0.015625)"/>
       <path id="DejaVuSans-6d" d="M 3328 2828 
Q 3544 3216 3844 3400 
Q 4144 3584 4550 3584 
Q 5097 3584 5394 3201 
Q 5691 2819 5691 2113 
L 5691 0 
L 5113 0 
L 5113 2094 
Q 5113 2597 4934 2840 
Q 4756 3084 4391 3084 
Q 3944 3084 3684 2787 
Q 3425 2491 3425 1978 
L 3425 0 
L 2847 0 
L 2847 2094 
Q 2847 2600 2669 2842 
Q 2491 3084 2119 3084 
Q 1678 3084 1418 2786 
Q 1159 2488 1159 1978 
L 1159 0 
L 581 0 
L 581 3500 
L 1159 3500 
L 1159 2956 
Q 1356 3278 1631 3431 
Q 1906 3584 2284 3584 
Q 2666 3584 2933 3390 
Q 3200 3197 3328 2828 
z
" transform="scale(0.015625)"/>
       <path id="DejaVuSans-61" d="M 2194 1759 
Q 1497 1759 1228 1600 
Q 959 1441 959 1056 
Q 959 750 1161 570 
Q 1363 391 1709 391 
Q 2188 391 2477 730 
Q 2766 1069 2766 1631 
L 2766 1759 
L 2194 1759 
z
M 3341 1997 
L 3341 0 
L 2766 0 
L 2766 531 
Q 2569 213 2275 61 
Q 1981 -91 1556 -91 
Q 1019 -91 701 211 
Q 384 513 384 1019 
Q 384 1609 779 1909 
Q 1175 2209 1959 2209 
L 2766 2209 
L 2766 2266 
Q 2766 2663 2505 2880 
Q 2244 3097 1772 3097 
Q 1472 3097 1187 3025 
Q 903 2953 641 2809 
L 641 3341 
Q 956 3463 1253 3523 
Q 1550 3584 1831 3584 
Q 2591 3584 2966 3190 
Q 3341 2797 3341 1997 
z
" transform="scale(0.015625)"/>
       <path id="DejaVuSans-67" d="M 2906 1791 
Q 2906 2416 2648 2759 
Q 2391 3103 1925 3103 
Q 1463 3103 1205 2759 
Q 947 2416 947 1791 
Q 947 1169 1205 825 
Q 1463 481 1925 481 
Q 2391 481 2648 825 
Q 2906 1169 2906 1791 
z
M 3481 434 
Q 3481 -459 3084 -895 
Q 2688 -1331 1869 -1331 
Q 1566 -1331 1297 -1286 
Q 1028 -1241 775 -1147 
L 775 -588 
Q 1028 -725 1275 -790 
Q 1522 -856 1778 -856 
Q 2344 -856 2625 -561 
Q 2906 -266 2906 331 
L 2906 616 
Q 2728 306 2450 153 
Q 2172 0 1784 0 
Q 1141 0 747 490 
Q 353 981 353 1791 
Q 353 2603 747 3093 
Q 1141 3584 1784 3584 
Q 2172 3584 2450 3431 
Q 2728 3278 2906 2969 
L 2906 3500 
L 3481 3500 
L 3481 434 
z
" transform="scale(0.015625)"/>
       <path id="DejaVuSans-6e" d="M 3513 2113 
L 3513 0 
L 2938 0 
L 2938 2094 
Q 2938 2591 2744 2837 
Q 2550 3084 2163 3084 
Q 1697 3084 1428 2787 
Q 1159 2491 1159 1978 
L 1159 0 
L 581 0 
L 581 3500 
L 1159 3500 
L 1159 2956 
Q 1366 3272 1645 3428 
Q 1925 3584 2291 3584 
Q 2894 3584 3203 3211 
Q 3513 2838 3513 2113 
z
" transform="scale(0.015625)"/>
       <path id="DejaVuSans-72" d="M 2631 2963 
Q 2534 3019 2420 3045 
Q 2306 3072 2169 3072 
Q 1681 3072 1420 2755 
Q 1159 2438 1159 1844 
L 1159 0 
L 581 0 
L 581 3500 
L 1159 3500 
L 1159 2956 
Q 1341 3275 1631 3429 
Q 1922 3584 2338 3584 
Q 2397 3584 2469 3576 
Q 2541 3569 2628 3553 
L 2631 2963 
z
" transform="scale(0.015625)"/>
       <path id="DejaVuSans-79" d="M 2059 -325 
Q 1816 -950 1584 -1140 
Q 1353 -1331 966 -1331 
L 506 -1331 
L 506 -850 
L 844 -850 
Q 1081 -850 1212 -737 
Q 1344 -625 1503 -206 
L 1606 56 
L 191 3500 
L 800 3500 
L 1894 763 
L 2988 3500 
L 3597 3500 
L 2059 -325 
z
" transform="scale(0.015625)"/>
       <path id="DejaVuSans-20" transform="scale(0.015625)"/>
       <path id="DejaVuSans-74" d="M 1172 4494 
L 1172 3500 
L 2356 3500 
L 2356 3053 
L 1172 3053 
L 1172 1153 
Q 1172 725 1289 603 
Q 1406 481 1766 481 
L 2356 481 
L 2356 0 
L 1766 0 
Q 1100 0 847 248 
Q 594 497 594 1153 
L 594 3053 
L 172 3053 
L 172 3500 
L 594 3500 
L 594 4494 
L 1172 4494 
z
" transform="scale(0.015625)"/>
       <path id="DejaVuSans-65" d="M 3597 1894 
L 3597 1613 
L 953 1613 
Q 991 1019 1311 708 
Q 1631 397 2203 397 
Q 2534 397 2845 478 
Q 3156 559 3463 722 
L 3463 178 
Q 3153 47 2828 -22 
Q 2503 -91 2169 -91 
Q 1331 -91 842 396 
Q 353 884 353 1716 
Q 353 2575 817 3079 
Q 1281 3584 2069 3584 
Q 2775 3584 3186 3129 
Q 3597 2675 3597 1894 
z
M 3022 2063 
Q 3016 2534 2758 2815 
Q 2500 3097 2075 3097 
Q 1594 3097 1305 2825 
Q 1016 2553 972 2059 
L 3022 2063 
z
" transform="scale(0.015625)"/>
       <path id="DejaVuSans-73" d="M 2834 3397 
L 2834 2853 
Q 2591 2978 2328 3040 
Q 2066 3103 1784 3103 
Q 1356 3103 1142 2972 
Q 928 2841 928 2578 
Q 928 2378 1081 2264 
Q 1234 2150 1697 2047 
L 1894 2003 
Q 2506 1872 2764 1633 
Q 3022 1394 3022 966 
Q 3022 478 2636 193 
Q 2250 -91 1575 -91 
Q 1294 -91 989 -36 
Q 684 19 347 128 
L 347 722 
Q 666 556 975 473 
Q 1284 391 1588 391 
Q 1994 391 2212 530 
Q 2431 669 2431 922 
Q 2431 1156 2273 1281 
Q 2116 1406 1581 1522 
L 1381 1569 
Q 847 1681 609 1914 
Q 372 2147 372 2553 
Q 372 3047 722 3315 
Q 1072 3584 1716 3584 
Q 2034 3584 2315 3537 
Q 2597 3491 2834 3397 
z
" transform="scale(0.015625)"/>
       <path id="DejaVuSans-70" d="M 1159 525 
L 1159 -1331 
L 581 -1331 
L 581 3500 
L 1159 3500 
L 1159 2969 
Q 1341 3281 1617 3432 
Q 1894 3584 2278 3584 
Q 2916 3584 3314 3078 
Q 3713 2572 3713 1747 
Q 3713 922 3314 415 
Q 2916 -91 2278 -91 
Q 1894 -91 1617 61 
Q 1341 213 1159 525 
z
M 3116 1747 
Q 3116 2381 2855 2742 
Q 2594 3103 2138 3103 
Q 1681 3103 1420 2742 
Q 1159 2381 1159 1747 
Q 1159 1113 1420 752 
Q 1681 391 2138 391 
Q 2594 391 2855 752 
Q 3116 1113 3116 1747 
z
" transform="scale(0.015625)"/>
      </defs>
      <use xlink:href="#DejaVuSans-69"/>
      <use xlink:href="#DejaVuSans-6d" x="27.783203"/>
      <use xlink:href="#DejaVuSans-61" x="125.195312"/>
      <use xlink:href="#DejaVuSans-67" x="186.474609"/>
      <use xlink:href="#DejaVuSans-69" x="249.951172"/>
      <use xlink:href="#DejaVuSans-6e" x="277.734375"/>
      <use xlink:href="#DejaVuSans-61" x="341.113281"/>
      <use xlink:href="#DejaVuSans-72" x="402.392578"/>
      <use xlink:href="#DejaVuSans-79" x="443.505859"/>
      <use xlink:href="#DejaVuSans-20" x="502.685547"/>
      <use xlink:href="#DejaVuSans-74" x="534.472656"/>
      <use xlink:href="#DejaVuSans-69" x="573.681641"/>
      <use xlink:href="#DejaVuSans-6d" x="601.464844"/>
      <use xlink:href="#DejaVuSans-65" x="698.876953"/>
      <use xlink:href="#DejaVuSans-20" x="760.400391"/>
      <use xlink:href="#DejaVuSans-73" x="792.1875"/>
      <use xlink:href="#DejaVuSans-74" x="844.287109"/>
      <use xlink:href="#DejaVuSans-65" x="883.496094"/>
      <use xlink:href="#DejaVuSans-70" x="945.019531"/>
     </g>
    </g>
   </g>
   <g id="matplotlib.axis_2">
    <g id="ytick_1">
     <g id="line2d_4">
      <defs>
       <path id="m6f648f9eef" d="M 0 0 
L -3.5 0 
" style="stroke: #000000; stroke-width: 0.8"/>
      </defs>
      <g>
       <use xlink:href="#m6f648f9eef" x="48.982813" y="101.226454" style="stroke: #000000; stroke-width: 0.8"/>
      </g>
     </g>
     <g id="text_5">
      <!-- −20 -->
      <g transform="translate(20.878125 105.025673) scale(0.1 -0.1)">
       <defs>
        <path id="DejaVuSans-2212" d="M 678 2272 
L 4684 2272 
L 4684 1741 
L 678 1741 
L 678 2272 
z
" transform="scale(0.015625)"/>
       </defs>
       <use xlink:href="#DejaVuSans-2212"/>
       <use xlink:href="#DejaVuSans-32" x="83.789062"/>
       <use xlink:href="#DejaVuSans-30" x="147.412109"/>
      </g>
     </g>
    </g>
    <g id="ytick_2">
     <g id="line2d_5">
      <g>
       <use xlink:href="#m6f648f9eef" x="48.982813" y="54.715645" style="stroke: #000000; stroke-width: 0.8"/>
      </g>
     </g>
     <g id="text_6">
      <!-- −15 -->
      <g transform="translate(20.878125 58.514864) scale(0.1 -0.1)">
       <defs>
        <path id="DejaVuSans-31" d="M 794 531 
L 1825 531 
L 1825 4091 
L 703 3866 
L 703 4441 
L 1819 4666 
L 2450 4666 
L 2450 531 
L 3481 531 
L 3481 0 
L 794 0 
L 794 531 
z
" transform="scale(0.015625)"/>
        <path id="DejaVuSans-35" d="M 691 4666 
L 3169 4666 
L 3169 4134 
L 1269 4134 
L 1269 2991 
Q 1406 3038 1543 3061 
Q 1681 3084 1819 3084 
Q 2600 3084 3056 2656 
Q 3513 2228 3513 1497 
Q 3513 744 3044 326 
Q 2575 -91 1722 -91 
Q 1428 -91 1123 -41 
Q 819 9 494 109 
L 494 744 
Q 775 591 1075 516 
Q 1375 441 1709 441 
Q 2250 441 2565 725 
Q 2881 1009 2881 1497 
Q 2881 1984 2565 2268 
Q 2250 2553 1709 2553 
Q 1456 2553 1204 2497 
Q 953 2441 691 2322 
L 691 4666 
z
" transform="scale(0.015625)"/>
       </defs>
       <use xlink:href="#DejaVuSans-2212"/>
       <use xlink:href="#DejaVuSans-31" x="83.789062"/>
       <use xlink:href="#DejaVuSans-35" x="147.412109"/>
      </g>
     </g>
    </g>
    <g id="text_7">
     <!-- $\langle H \rangle$ -->
     <g transform="translate(14.798438 79.418125) rotate(-90) scale(0.1 -0.1)">
      <defs>
       <path id="DejaVuSans-27e8" d="M 572 2006 
L 1453 4856 
L 1984 4856 
L 1103 2006 
L 1984 -844 
L 1453 -844 
L 572 2006 
z
" transform="scale(0.015625)"/>
       <path id="DejaVuSans-Oblique-48" d="M 1081 4666 
L 1716 4666 
L 1344 2753 
L 3634 2753 
L 4006 4666 
L 4641 4666 
L 3731 0 
L 3097 0 
L 3531 2222 
L 1241 2222 
L 806 0 
L 172 0 
L 1081 4666 
z
" transform="scale(0.015625)"/>
       <path id="DejaVuSans-27e9" d="M 1925 2006 
L 1044 -844 
L 513 -844 
L 1394 2006 
L 513 4856 
L 1044 4856 
L 1925 2006 
z
" transform="scale(0.015625)"/>
      </defs>
      <use xlink:href="#DejaVuSans-27e8" transform="translate(0 0.125)"/>
      <use xlink:href="#DejaVuSans-Oblique-48" transform="translate(39.013672 0.125)"/>
      <use xlink:href="#DejaVuSans-27e9" transform="translate(114.208984 0.125)"/>
     </g>
    </g>
   </g>
   <g id="line2d_6">
    <path d="M 54.175752 26.809038 
L 56.252928 31.705348 
L 58.330103 37.060096 
L 60.407279 42.24912 
L 62.484455 47.270696 
L 64.561631 52.12092 
L 66.638806 56.791524 
L 68.715982 61.266129 
L 70.793158 65.516109 
L 72.870334 69.497519 
L 74.947509 73.152751 
L 77.024685 76.422476 
L 79.101861 79.264343 
L 81.179037 81.668825 
L 83.256213 83.660585 
L 85.333388 85.28925 
L 87.410564 86.614475 
L 89.48774 87.69516 
L 91.564916 88.582852 
L 93.642091 89.319696 
L 95.719267 89.938765 
L 97.796443 90.465421 
L 99.873619 90.9189 
L 101.950794 91.313734 
L 104.02797 91.66075 
L 106.105146 91.968345 
L 108.182322 92.242875 
L 110.259497 92.489338 
L 112.336673 92.711591 
L 114.413849 92.912798 
L 116.491025 93.095555 
L 118.5682 93.26193 
L 120.645376 93.413782 
L 122.722552 93.55259 
L 124.799728 93.679661 
L 126.876903 93.796183 
L 128.954079 93.903028 
L 131.031255 94.001151 
L 133.108431 94.091407 
L 135.185606 94.174398 
L 137.262782 94.250854 
L 139.339958 94.321315 
L 141.417134 94.386354 
L 143.494309 94.446441 
L 145.571485 94.502002 
L 147.648661 94.553417 
L 149.725837 94.601042 
L 151.803013 94.645258 
L 153.880188 94.686252 
L 155.957364 94.724362 
L 158.03454 94.75981 
" clip-path="url(#pa59ee8b4b7)" style="fill: none; stroke: #d95f18; stroke-width: 1.5; stroke-linecap: square"/>
   </g>
   <g id="patch_3">
    <path d="M 48.982813 121.118125 
L 48.982813 22.318125 
" style="fill: none; stroke: #000000; stroke-width: 0.8; stroke-linejoin: miter; stroke-linecap: square"/>
   </g>
   <g id="patch_4">
    <path d="M 163.227479 121.118125 
L 163.227479 22.318125 
" style="fill: none; stroke: #000000; stroke-width: 0.8; stroke-linejoin: miter; stroke-linecap: square"/>
   </g>
   <g id="patch_5">
    <path d="M 48.982813 121.118125 
L 163.227479 121.118125 
" style="fill: none; stroke: #000000; stroke-width: 0.8; stroke-linejoin: miter; stroke-linecap: square"/>
   </g>
   <g id="patch_6">
    <path d="M 48.982813 22.318125 
L 163.227479 22.318125 
" style="fill: none; stroke: #000000; stroke-width: 0.8; stroke-linejoin: miter; stroke-linecap: square"/>
   </g>
   <g id="text_8">
    <!-- QITE -->
    <g transform="translate(92.156083 16.318125) scale(0.12 -0.12)">
     <defs>
      <path id="DejaVuSans-51" d="M 2522 4238 
Q 1834 4238 1429 3725 
Q 1025 3213 1025 2328 
Q 1025 1447 1429 934 
Q 1834 422 2522 422 
Q 3209 422 3611 934 
Q 4013 1447 4013 2328 
Q 4013 3213 3611 3725 
Q 3209 4238 2522 4238 
z
M 3406 84 
L 4238 -825 
L 3475 -825 
L 2784 -78 
Q 2681 -84 2626 -87 
Q 2572 -91 2522 -91 
Q 1538 -91 948 567 
Q 359 1225 359 2328 
Q 359 3434 948 4092 
Q 1538 4750 2522 4750 
Q 3503 4750 4090 4092 
Q 4678 3434 4678 2328 
Q 4678 1516 4351 937 
Q 4025 359 3406 84 
z
" transform="scale(0.015625)"/>
      <path id="DejaVuSans-49" d="M 628 4666 
L 1259 4666 
L 1259 0 
L 628 0 
L 628 4666 
z
" transform="scale(0.015625)"/>
      <path id="DejaVuSans-54" d="M -19 4666 
L 3928 4666 
L 3928 4134 
L 2272 4134 
L 2272 0 
L 1638 0 
L 1638 4134 
L -19 4134 
L -19 4666 
z
" transform="scale(0.015625)"/>
      <path id="DejaVuSans-45" d="M 628 4666 
L 3578 4666 
L 3578 4134 
L 1259 4134 
L 1259 2753 
L 3481 2753 
L 3481 2222 
L 1259 2222 
L 1259 531 
L 3634 531 
L 3634 0 
L 628 0 
L 628 4666 
z
" transform="scale(0.015625)"/>
     </defs>
     <use xlink:href="#DejaVuSans-51"/>
     <use xlink:href="#DejaVuSans-49" x="78.710938"/>
     <use xlink:href="#DejaVuSans-54" x="108.203125"/>
     <use xlink:href="#DejaVuSans-45" x="169.287109"/>
    </g>
   </g>
  </g>
  <g id="axes_2">
   <g id="PolyCollection_2">
    <defs>
     <path id="m82ee76da9c" d="M 54.175752 -43.787788 
L 54.175752 -43.770466 
L 56.252928 -43.770119 
L 58.330103 -43.770568 
L 60.407279 -43.773968 
L 62.484455 -43.784193 
L 64.561631 -43.807586 
L 66.638806 -43.852986 
L 68.715982 -43.931175 
L 70.793158 -44.055767 
L 72.870334 -44.247943 
L 74.947509 -44.540501 
L 77.024685 -44.968433 
L 79.101861 -45.545939 
L 81.179037 -46.254327 
L 83.256213 -47.054217 
L 85.333388 -47.905278 
L 87.410564 -48.776819 
L 89.48774 -49.648796 
L 91.564916 -50.509031 
L 93.642091 -51.35037 
L 95.719267 -52.168734 
L 97.796443 -52.961844 
L 99.873619 -53.728503 
L 101.950794 -54.46809 
L 104.02797 -55.180276 
L 106.105146 -55.864911 
L 108.182322 -56.521919 
L 110.259497 -57.151305 
L 112.336673 -57.753159 
L 114.413849 -58.32765 
L 116.491025 -58.875058 
L 118.5682 -59.395761 
L 120.645376 -59.890267 
L 122.722552 -60.35915 
L 124.799728 -60.803127 
L 126.876903 -61.222973 
L 128.954079 -61.619518 
L 131.031255 -61.993659 
L 133.108431 -62.346355 
L 135.185606 -62.67856 
L 137.262782 -62.991264 
L 139.339958 -63.285424 
L 141.417134 -63.562014 
L 143.494309 -63.821968 
L 145.571485 -64.066219 
L 147.648661 -64.295649 
L 149.725837 -64.511101 
L 151.803013 -64.713411 
L 153.880188 -64.903328 
L 155.957364 -65.081588 
L 158.03454 -65.248887 
L 158.03454 -82.184715 
L 158.03454 -82.184715 
L 155.957364 -81.975367 
L 153.880188 -81.753932 
L 151.803013 -81.519292 
L 149.725837 -81.270212 
L 147.648661 -81.005411 
L 145.571485 -80.723514 
L 143.494309 -80.423051 
L 141.417134 -80.102459 
L 139.339958 -79.760137 
L 137.262782 -79.394343 
L 135.185606 -79.003255 
L 133.108431 -78.584961 
L 131.031255 -78.137472 
L 128.954079 -77.658745 
L 126.876903 -77.146639 
L 124.799728 -76.598908 
L 122.722552 -76.013272 
L 120.645376 -75.38736 
L 118.5682 -74.718782 
L 116.491025 -74.00505 
L 114.413849 -73.243663 
L 112.336673 -72.432077 
L 110.259497 -71.567728 
L 108.182322 -70.648022 
L 106.105146 -69.670383 
L 104.02797 -68.632191 
L 101.950794 -67.530808 
L 99.873619 -66.363589 
L 97.796443 -65.127881 
L 95.719267 -63.821098 
L 93.642091 -62.440905 
L 91.564916 -60.985624 
L 89.48774 -59.455064 
L 87.410564 -57.85178 
L 85.333388 -56.183056 
L 83.256213 -54.463333 
L 81.179037 -52.717182 
L 79.101861 -50.983479 
L 77.024685 -49.321394 
L 74.947509 -47.812458 
L 72.870334 -46.54379 
L 70.793158 -45.569444 
L 68.715982 -44.883654 
L 66.638806 -44.433785 
L 64.561631 -44.153267 
L 62.484455 -43.98471 
L 60.407279 -43.886622 
L 58.330103 -43.831409 
L 56.252928 -43.801502 
L 54.175752 -43.787788 
z
" style="stroke: #616c8c; stroke-opacity: 0.2"/>
    </defs>
    <g clip-path="url(#pa59ee8b4b7)">
     <use xlink:href="#m82ee76da9c" x="0" y="158.674375" style="fill: #616c8c; fill-opacity: 0.2; stroke: #616c8c; stroke-opacity: 0.2"/>
    </g>
   </g>
   <g id="matplotlib.axis_3">
    <g id="ytick_3">
     <g id="line2d_7"/>
    </g>
    <g id="ytick_4">
     <g id="line2d_8"/>
    </g>
    <g id="ytick_5">
     <g id="line2d_9"/>
    </g>
   </g>
   <g id="line2d_10">
    <path d="M 54.175752 114.895248 
L 56.252928 114.888564 
L 58.330103 114.873387 
L 60.407279 114.84408 
L 62.484455 114.789923 
L 64.561631 114.693948 
L 66.638806 114.530989 
L 68.715982 114.266961 
L 70.793158 113.861769 
L 72.870334 113.278508 
L 74.947509 112.497896 
L 77.024685 111.529461 
L 79.101861 110.409666 
L 81.179037 109.188621 
L 83.256213 107.9156 
L 85.333388 106.630208 
L 87.410564 105.360075 
L 89.48774 104.122445 
L 91.564916 102.927048 
L 93.642091 101.778737 
L 95.719267 100.679459 
L 97.796443 99.629512 
L 99.873619 98.628329 
L 101.950794 97.674926 
L 104.02797 96.768142 
L 106.105146 95.906728 
L 108.182322 95.089404 
L 110.259497 94.314858 
L 112.336673 93.581757 
L 114.413849 92.888718 
L 116.491025 92.234321 
L 118.5682 91.617104 
L 120.645376 91.035562 
L 122.722552 90.488164 
L 124.799728 89.973358 
L 126.876903 89.489569 
L 128.954079 89.035244 
L 131.031255 88.608809 
L 133.108431 88.208717 
L 135.185606 87.833468 
L 137.262782 87.481572 
L 139.339958 87.151594 
L 141.417134 86.842138 
L 143.494309 86.551866 
L 145.571485 86.279509 
L 147.648661 86.023845 
L 149.725837 85.783719 
L 151.803013 85.558024 
L 153.880188 85.345745 
L 155.957364 85.145897 
L 158.03454 84.957574 
" clip-path="url(#pa59ee8b4b7)" style="fill: none; stroke: #616c8c; stroke-width: 1.5; stroke-linecap: square"/>
   </g>
   <g id="patch_7">
    <path d="M 48.982813 121.118125 
L 48.982813 22.318125 
" style="fill: none; stroke: #000000; stroke-width: 0.8; stroke-linejoin: miter; stroke-linecap: square"/>
   </g>
   <g id="patch_8">
    <path d="M 163.227479 121.118125 
L 163.227479 22.318125 
" style="fill: none; stroke: #000000; stroke-width: 0.8; stroke-linejoin: miter; stroke-linecap: square"/>
   </g>
   <g id="patch_9">
    <path d="M 48.982813 121.118125 
L 163.227479 121.118125 
" style="fill: none; stroke: #000000; stroke-width: 0.8; stroke-linejoin: miter; stroke-linecap: square"/>
   </g>
   <g id="patch_10">
    <path d="M 48.982813 22.318125 
L 163.227479 22.318125 
" style="fill: none; stroke: #000000; stroke-width: 0.8; stroke-linejoin: miter; stroke-linecap: square"/>
   </g>
  </g>
  <g id="axes_3">
   <g id="patch_11">
    <path d="M 174.027479 121.118125 
L 288.272146 121.118125 
L 288.272146 22.318125 
L 174.027479 22.318125 
z
" style="fill: #ffffff"/>
   </g>
   <g id="PolyCollection_3">
    <defs>
     <path id="mcacc1b8ecd" d="M 179.220419 -131.865341 
L 179.220419 -131.865333 
L 181.297594 -126.423537 
L 183.37477 -121.835398 
L 185.451946 -117.1503 
L 187.529122 -112.519119 
L 189.606297 -107.994003 
L 191.683473 -103.60178 
L 193.760649 -99.365527 
L 195.837825 -95.314894 
L 197.915 -91.495691 
L 199.992176 -87.965981 
L 202.069352 -84.782964 
L 204.146528 -81.993101 
L 206.223703 -79.620447 
L 208.300879 -77.651051 
L 210.378055 -76.032554 
L 212.455231 -74.698718 
L 214.532406 -73.585797 
L 216.609582 -72.619584 
L 218.686758 -71.725563 
L 220.763934 -70.855005 
L 222.841109 -69.993306 
L 224.918285 -69.145335 
L 226.995461 -68.323095 
L 229.072637 -67.54912 
L 231.149813 -66.850093 
L 233.226988 -66.220339 
L 235.304164 -65.600908 
L 237.38134 -64.934839 
L 239.458516 -64.207114 
L 241.535691 -63.456669 
L 243.612867 -62.789969 
L 245.690043 -62.258547 
L 247.767219 -61.830129 
L 249.844394 -61.438382 
L 251.92157 -61.112588 
L 253.998746 -60.81155 
L 256.075922 -60.497419 
L 258.153097 -60.136343 
L 260.230273 -59.71656 
L 262.307449 -59.266531 
L 264.384625 -58.80617 
L 266.4618 -58.388733 
L 268.538976 -58.022886 
L 270.616152 -57.713178 
L 272.693328 -57.448693 
L 274.770503 -57.25562 
L 276.847679 -57.083973 
L 278.924855 -56.979589 
L 281.002031 -56.932551 
L 283.079206 -56.934925 
L 283.079206 -82.990686 
L 283.079206 -82.990686 
L 281.002031 -82.661886 
L 278.924855 -82.36889 
L 276.847679 -82.111943 
L 274.770503 -81.880325 
L 272.693328 -81.675826 
L 270.616152 -81.460415 
L 268.538976 -81.226538 
L 266.4618 -80.961141 
L 264.384625 -80.678319 
L 262.307449 -80.402698 
L 260.230273 -80.161067 
L 258.153097 -79.966297 
L 256.075922 -79.831924 
L 253.998746 -79.755099 
L 251.92157 -79.725663 
L 249.844394 -79.731834 
L 247.767219 -79.754557 
L 245.690043 -79.807112 
L 243.612867 -79.86292 
L 241.535691 -79.90655 
L 239.458516 -79.959757 
L 237.38134 -80.071749 
L 235.304164 -80.259189 
L 233.226988 -80.515459 
L 231.149813 -80.819827 
L 229.072637 -81.153452 
L 226.995461 -81.521635 
L 224.918285 -81.946513 
L 222.841109 -82.449522 
L 220.763934 -83.049091 
L 218.686758 -83.763097 
L 216.609582 -84.604821 
L 214.532406 -85.579443 
L 212.455231 -86.690019 
L 210.378055 -87.943739 
L 208.300879 -89.353397 
L 206.223703 -90.930542 
L 204.146528 -92.69102 
L 202.069352 -94.659851 
L 199.992176 -96.866524 
L 197.915 -99.336073 
L 195.837825 -102.082843 
L 193.760649 -105.103231 
L 191.683473 -108.372704 
L 189.606297 -111.849838 
L 187.529122 -115.492726 
L 185.451946 -119.278763 
L 183.37477 -123.241415 
L 181.297594 -127.55393 
L 179.220419 -131.865341 
z
" style="stroke: #d95f18; stroke-opacity: 0.2"/>
    </defs>
    <g clip-path="url(#p266114fb70)">
     <use xlink:href="#mcacc1b8ecd" x="0" y="158.674375" style="fill: #d95f18; fill-opacity: 0.2; stroke: #d95f18; stroke-opacity: 0.2"/>
    </g>
   </g>
   <g id="matplotlib.axis_4">
    <g id="xtick_4">
     <g id="line2d_11">
      <g>
       <use xlink:href="#m48f1562b23" x="179.220419" y="121.118125" style="stroke: #000000; stroke-width: 0.8"/>
      </g>
     </g>
     <g id="text_9">
      <!-- 0 -->
      <g transform="translate(176.039169 135.716563) scale(0.1 -0.1)">
       <use xlink:href="#DejaVuSans-30"/>
      </g>
     </g>
    </g>
    <g id="xtick_5">
     <g id="line2d_12">
      <g>
       <use xlink:href="#m48f1562b23" x="220.763934" y="121.118125" style="stroke: #000000; stroke-width: 0.8"/>
      </g>
     </g>
     <g id="text_10">
      <!-- 20 -->
      <g transform="translate(214.401434 135.716563) scale(0.1 -0.1)">
       <use xlink:href="#DejaVuSans-32"/>
       <use xlink:href="#DejaVuSans-30" x="63.623047"/>
      </g>
     </g>
    </g>
    <g id="xtick_6">
     <g id="line2d_13">
      <g>
       <use xlink:href="#m48f1562b23" x="262.307449" y="121.118125" style="stroke: #000000; stroke-width: 0.8"/>
      </g>
     </g>
     <g id="text_11">
      <!-- 40 -->
      <g transform="translate(255.944949 135.716563) scale(0.1 -0.1)">
       <use xlink:href="#DejaVuSans-34"/>
       <use xlink:href="#DejaVuSans-30" x="63.623047"/>
      </g>
     </g>
    </g>
    <g id="text_12">
     <!-- iteration -->
     <g transform="translate(210.027156 149.394688) scale(0.1 -0.1)">
      <defs>
       <path id="DejaVuSans-6f" d="M 1959 3097 
Q 1497 3097 1228 2736 
Q 959 2375 959 1747 
Q 959 1119 1226 758 
Q 1494 397 1959 397 
Q 2419 397 2687 759 
Q 2956 1122 2956 1747 
Q 2956 2369 2687 2733 
Q 2419 3097 1959 3097 
z
M 1959 3584 
Q 2709 3584 3137 3096 
Q 3566 2609 3566 1747 
Q 3566 888 3137 398 
Q 2709 -91 1959 -91 
Q 1206 -91 779 398 
Q 353 888 353 1747 
Q 353 2609 779 3096 
Q 1206 3584 1959 3584 
z
" transform="scale(0.015625)"/>
      </defs>
      <use xlink:href="#DejaVuSans-69"/>
      <use xlink:href="#DejaVuSans-74" x="27.783203"/>
      <use xlink:href="#DejaVuSans-65" x="66.992188"/>
      <use xlink:href="#DejaVuSans-72" x="128.515625"/>
      <use xlink:href="#DejaVuSans-61" x="169.628906"/>
      <use xlink:href="#DejaVuSans-74" x="230.908203"/>
      <use xlink:href="#DejaVuSans-69" x="270.117188"/>
      <use xlink:href="#DejaVuSans-6f" x="297.900391"/>
      <use xlink:href="#DejaVuSans-6e" x="359.082031"/>
     </g>
    </g>
   </g>
   <g id="matplotlib.axis_5">
    <g id="ytick_6">
     <g id="line2d_14"/>
    </g>
    <g id="ytick_7">
     <g id="line2d_15"/>
    </g>
   </g>
   <g id="line2d_16">
    <path d="M 179.220419 26.809038 
L 181.297594 31.685641 
L 183.37477 36.135968 
L 185.451946 40.459843 
L 187.529122 44.668453 
L 189.606297 48.752455 
L 191.683473 52.687133 
L 193.760649 56.439996 
L 195.837825 59.975507 
L 197.915 63.258493 
L 199.992176 66.258122 
L 202.069352 68.952967 
L 204.146528 71.332315 
L 206.223703 73.398881 
L 208.300879 75.172151 
L 210.378055 76.686229 
L 212.455231 77.980007 
L 214.532406 79.091755 
L 216.609582 80.062173 
L 218.686758 80.930045 
L 220.763934 81.722327 
L 222.841109 82.452961 
L 224.918285 83.128451 
L 226.995461 83.75201 
L 229.072637 84.323089 
L 231.149813 84.839415 
L 233.226988 85.306476 
L 235.304164 85.744327 
L 237.38134 86.171081 
L 239.458516 86.590939 
L 241.535691 86.992765 
L 243.612867 87.34793 
L 245.690043 87.641545 
L 247.767219 87.882032 
L 249.844394 88.089267 
L 251.92157 88.255249 
L 253.998746 88.39105 
L 256.075922 88.509703 
L 258.153097 88.623055 
L 260.230273 88.735561 
L 262.307449 88.83976 
L 264.384625 88.93213 
L 266.4618 88.999438 
L 268.538976 89.049663 
L 270.616152 89.087578 
L 272.693328 89.112115 
L 274.770503 89.106402 
L 276.847679 89.076417 
L 278.924855 89.000135 
L 281.002031 88.877156 
L 283.079206 88.711569 
" clip-path="url(#p266114fb70)" style="fill: none; stroke: #d95f18; stroke-width: 1.5; stroke-linecap: square"/>
   </g>
   <g id="patch_12">
    <path d="M 174.027479 121.118125 
L 174.027479 22.318125 
" style="fill: none; stroke: #000000; stroke-width: 0.8; stroke-linejoin: miter; stroke-linecap: square"/>
   </g>
   <g id="patch_13">
    <path d="M 288.272146 121.118125 
L 288.272146 22.318125 
" style="fill: none; stroke: #000000; stroke-width: 0.8; stroke-linejoin: miter; stroke-linecap: square"/>
   </g>
   <g id="patch_14">
    <path d="M 174.027479 121.118125 
L 288.272146 121.118125 
" style="fill: none; stroke: #000000; stroke-width: 0.8; stroke-linejoin: miter; stroke-linecap: square"/>
   </g>
   <g id="patch_15">
    <path d="M 174.027479 22.318125 
L 288.272146 22.318125 
" style="fill: none; stroke: #000000; stroke-width: 0.8; stroke-linejoin: miter; stroke-linecap: square"/>
   </g>
   <g id="text_13">
    <!-- cQITE -->
    <g transform="translate(213.901688 16.318125) scale(0.12 -0.12)">
     <defs>
      <path id="DejaVuSans-63" d="M 3122 3366 
L 3122 2828 
Q 2878 2963 2633 3030 
Q 2388 3097 2138 3097 
Q 1578 3097 1268 2742 
Q 959 2388 959 1747 
Q 959 1106 1268 751 
Q 1578 397 2138 397 
Q 2388 397 2633 464 
Q 2878 531 3122 666 
L 3122 134 
Q 2881 22 2623 -34 
Q 2366 -91 2075 -91 
Q 1284 -91 818 406 
Q 353 903 353 1747 
Q 353 2603 823 3093 
Q 1294 3584 2113 3584 
Q 2378 3584 2631 3529 
Q 2884 3475 3122 3366 
z
" transform="scale(0.015625)"/>
     </defs>
     <use xlink:href="#DejaVuSans-63"/>
     <use xlink:href="#DejaVuSans-51" x="54.980469"/>
     <use xlink:href="#DejaVuSans-49" x="133.691406"/>
     <use xlink:href="#DejaVuSans-54" x="163.183594"/>
     <use xlink:href="#DejaVuSans-45" x="224.267578"/>
    </g>
   </g>
  </g>
  <g id="axes_4">
   <g id="PolyCollection_4">
    <defs>
     <path id="me93b7ee1ce" d="M 179.220419 -43.787788 
L 179.220419 -43.770466 
L 181.297594 -43.770462 
L 183.37477 -43.770087 
L 185.451946 -43.77068 
L 187.529122 -43.773989 
L 189.606297 -43.782957 
L 191.683473 -43.801556 
L 193.760649 -43.833776 
L 195.837825 -43.882088 
L 197.915 -43.946804 
L 199.992176 -44.02766 
L 202.069352 -44.12637 
L 204.146528 -44.246954 
L 206.223703 -44.392273 
L 208.300879 -44.559442 
L 210.378055 -44.741046 
L 212.455231 -44.934061 
L 214.532406 -45.140494 
L 216.609582 -45.352019 
L 218.686758 -45.550123 
L 220.763934 -45.719075 
L 222.841109 -45.852199 
L 224.918285 -45.948654 
L 226.995461 -46.009437 
L 229.072637 -46.050405 
L 231.149813 -46.107839 
L 233.226988 -46.1916 
L 235.304164 -46.280595 
L 237.38134 -46.37903 
L 239.458516 -46.486932 
L 241.535691 -46.592699 
L 243.612867 -46.713158 
L 245.690043 -46.857247 
L 247.767219 -47.021289 
L 249.844394 -47.195016 
L 251.92157 -47.370908 
L 253.998746 -47.53808 
L 256.075922 -47.689426 
L 258.153097 -47.802311 
L 260.230273 -47.870655 
L 262.307449 -47.898944 
L 264.384625 -47.889997 
L 266.4618 -47.880038 
L 268.538976 -47.918851 
L 270.616152 -48.027212 
L 272.693328 -48.192596 
L 274.770503 -48.405153 
L 276.847679 -48.611899 
L 278.924855 -48.80832 
L 281.002031 -48.965481 
L 283.079206 -49.069026 
L 283.079206 -85.185562 
L 283.079206 -85.185562 
L 281.002031 -85.21829 
L 278.924855 -85.246476 
L 276.847679 -85.189341 
L 274.770503 -84.973514 
L 272.693328 -84.647596 
L 270.616152 -84.147198 
L 268.538976 -83.515744 
L 266.4618 -82.76511 
L 264.384625 -81.908762 
L 262.307449 -81.01619 
L 260.230273 -80.178897 
L 258.153097 -79.405197 
L 256.075922 -78.707211 
L 253.998746 -78.043943 
L 251.92157 -77.325132 
L 249.844394 -76.498215 
L 247.767219 -75.535533 
L 245.690043 -74.429843 
L 243.612867 -73.138727 
L 241.535691 -71.687186 
L 239.458516 -70.153919 
L 237.38134 -68.62523 
L 235.304164 -67.091417 
L 233.226988 -65.558881 
L 231.149813 -64.031418 
L 229.072637 -62.464428 
L 226.995461 -60.880042 
L 224.918285 -59.349077 
L 222.841109 -57.902972 
L 220.763934 -56.548704 
L 218.686758 -55.293347 
L 216.609582 -54.132221 
L 214.532406 -53.038213 
L 212.455231 -51.973847 
L 210.378055 -50.92045 
L 208.300879 -49.883835 
L 206.223703 -48.868324 
L 204.146528 -47.880724 
L 202.069352 -46.94919 
L 199.992176 -46.118138 
L 197.915 -45.426278 
L 195.837825 -44.889607 
L 193.760649 -44.499118 
L 191.683473 -44.229642 
L 189.606297 -44.051349 
L 187.529122 -43.93748 
L 185.451946 -43.867112 
L 183.37477 -43.825026 
L 181.297594 -43.80069 
L 179.220419 -43.787788 
z
" style="stroke: #616c8c; stroke-opacity: 0.2"/>
    </defs>
    <g clip-path="url(#p266114fb70)">
     <use xlink:href="#me93b7ee1ce" x="0" y="158.674375" style="fill: #616c8c; fill-opacity: 0.2; stroke: #616c8c; stroke-opacity: 0.2"/>
    </g>
   </g>
   <g id="matplotlib.axis_6">
    <g id="ytick_8">
     <g id="line2d_17"/>
    </g>
    <g id="ytick_9">
     <g id="line2d_18"/>
    </g>
    <g id="ytick_10">
     <g id="line2d_19"/>
    </g>
   </g>
   <g id="line2d_20">
    <path d="M 179.220419 114.895248 
L 181.297594 114.888799 
L 183.37477 114.876819 
L 185.451946 114.855479 
L 187.529122 114.81864 
L 189.606297 114.757222 
L 191.683473 114.658776 
L 193.760649 114.507928 
L 195.837825 114.288528 
L 197.915 113.987834 
L 199.992176 113.601476 
L 202.069352 113.136595 
L 204.146528 112.610536 
L 206.223703 112.044077 
L 208.300879 111.452737 
L 210.378055 110.843627 
L 212.455231 110.220421 
L 214.532406 109.585021 
L 216.609582 108.932255 
L 218.686758 108.25264 
L 220.763934 107.540485 
L 222.841109 106.796789 
L 224.918285 106.025509 
L 226.995461 105.229636 
L 229.072637 104.416958 
L 231.149813 103.604747 
L 233.226988 102.799134 
L 235.304164 101.988369 
L 237.38134 101.172245 
L 239.458516 100.35395 
L 241.535691 99.534432 
L 243.612867 98.748432 
L 245.690043 98.03083 
L 247.767219 97.395964 
L 249.844394 96.82776 
L 251.92157 96.326355 
L 253.998746 95.883364 
L 256.075922 95.476056 
L 258.153097 95.070621 
L 260.230273 94.649599 
L 262.307449 94.216808 
L 264.384625 93.774996 
L 266.4618 93.351801 
L 268.538976 92.957078 
L 270.616152 92.58717 
L 272.693328 92.254279 
L 274.770503 91.985042 
L 276.847679 91.773755 
L 278.924855 91.646977 
L 281.002031 91.582489 
L 283.079206 91.547081 
" clip-path="url(#p266114fb70)" style="fill: none; stroke: #616c8c; stroke-width: 1.5; stroke-linecap: square"/>
   </g>
   <g id="patch_16">
    <path d="M 174.027479 121.118125 
L 174.027479 22.318125 
" style="fill: none; stroke: #000000; stroke-width: 0.8; stroke-linejoin: miter; stroke-linecap: square"/>
   </g>
   <g id="patch_17">
    <path d="M 288.272146 121.118125 
L 288.272146 22.318125 
" style="fill: none; stroke: #000000; stroke-width: 0.8; stroke-linejoin: miter; stroke-linecap: square"/>
   </g>
   <g id="patch_18">
    <path d="M 174.027479 121.118125 
L 288.272146 121.118125 
" style="fill: none; stroke: #000000; stroke-width: 0.8; stroke-linejoin: miter; stroke-linecap: square"/>
   </g>
   <g id="patch_19">
    <path d="M 174.027479 22.318125 
L 288.272146 22.318125 
" style="fill: none; stroke: #000000; stroke-width: 0.8; stroke-linejoin: miter; stroke-linecap: square"/>
   </g>
  </g>
  <g id="axes_5">
   <g id="patch_20">
    <path d="M 299.072146 121.118125 
L 413.316813 121.118125 
L 413.316813 22.318125 
L 299.072146 22.318125 
z
" style="fill: #ffffff"/>
   </g>
   <g id="PolyCollection_5">
    <defs>
     <path id="m738d2910db" d="M 304.265085 -131.865341 
L 304.265085 -131.865333 
L 306.342261 -126.331495 
L 308.419437 -121.061021 
L 310.496613 -115.719925 
L 312.573788 -109.420455 
L 314.650964 -100.368274 
L 316.72814 -87.720568 
L 318.805316 -75.218238 
L 320.882491 -65.833248 
L 322.959667 -59.17697 
L 325.036843 -54.560823 
L 327.114019 -51.219776 
L 329.191194 -48.714329 
L 331.26837 -46.85679 
L 333.345546 -45.499463 
L 335.422722 -44.514307 
L 337.499897 -43.793638 
L 339.577073 -43.257722 
L 341.654249 -42.859132 
L 343.731425 -42.568814 
L 345.8086 -42.361948 
L 347.885776 -42.216834 
L 349.962952 -42.120469 
L 352.040128 -42.066085 
L 354.117303 -42.047159 
L 356.194479 -42.05478 
L 358.271655 -42.077795 
L 360.348831 -42.104928 
L 362.426006 -42.128324 
L 364.503182 -42.145334 
L 366.580358 -42.157435 
L 368.657534 -42.16681 
L 370.734709 -42.175694 
L 372.811885 -42.185298 
L 374.889061 -42.196368 
L 376.966237 -42.208845 
L 379.043413 -42.221993 
L 381.120588 -42.233252 
L 383.197764 -42.240659 
L 385.27494 -42.24429 
L 387.352116 -42.24472 
L 389.429291 -42.2442 
L 391.506467 -42.243444 
L 393.583643 -42.242511 
L 395.660819 -42.241708 
L 397.737994 -42.24107 
L 399.81517 -42.240525 
L 401.892346 -42.240111 
L 403.969522 -42.239749 
L 406.046697 -42.23941 
L 408.123873 -42.239077 
L 408.123873 -58.786043 
L 408.123873 -58.786043 
L 406.046697 -58.789742 
L 403.969522 -58.794238 
L 401.892346 -58.799331 
L 399.81517 -58.805646 
L 397.737994 -58.813561 
L 395.660819 -58.823353 
L 393.583643 -58.835853 
L 391.506467 -58.852553 
L 389.429291 -58.875731 
L 387.352116 -58.908423 
L 385.27494 -58.955281 
L 383.197764 -59.019214 
L 381.120588 -59.098869 
L 379.043413 -59.187551 
L 376.966237 -59.277657 
L 374.889061 -59.365193 
L 372.811885 -59.450945 
L 370.734709 -59.538449 
L 368.657534 -59.63341 
L 366.580358 -59.742474 
L 364.503182 -59.874735 
L 362.426006 -60.039888 
L 360.348831 -60.246012 
L 358.271655 -60.493815 
L 356.194479 -60.776471 
L 354.117303 -61.088408 
L 352.040128 -61.431578 
L 349.962952 -61.817398 
L 347.885776 -62.263233 
L 345.8086 -62.788008 
L 343.731425 -63.414217 
L 341.654249 -64.17498 
L 339.577073 -65.111847 
L 337.499897 -66.25954 
L 335.422722 -67.630332 
L 333.345546 -69.2322 
L 331.26837 -71.106708 
L 329.191194 -73.347082 
L 327.114019 -76.084491 
L 325.036843 -79.499152 
L 322.959667 -83.845734 
L 320.882491 -89.425535 
L 318.805316 -96.180907 
L 316.72814 -102.863605 
L 314.650964 -108.090402 
L 312.573788 -112.739457 
L 310.496613 -117.502676 
L 308.419437 -122.393075 
L 306.342261 -127.478234 
L 304.265085 -131.865341 
z
" style="stroke: #d95f18; stroke-opacity: 0.2"/>
    </defs>
    <g clip-path="url(#pcfaa5d4f59)">
     <use xlink:href="#m738d2910db" x="0" y="158.674375" style="fill: #d95f18; fill-opacity: 0.2; stroke: #d95f18; stroke-opacity: 0.2"/>
    </g>
   </g>
   <g id="matplotlib.axis_7">
    <g id="xtick_7">
     <g id="line2d_21">
      <g>
       <use xlink:href="#m48f1562b23" x="304.265085" y="121.118125" style="stroke: #000000; stroke-width: 0.8"/>
      </g>
     </g>
     <g id="text_14">
      <!-- 0 -->
      <g transform="translate(301.083835 135.716563) scale(0.1 -0.1)">
       <use xlink:href="#DejaVuSans-30"/>
      </g>
     </g>
    </g>
    <g id="xtick_8">
     <g id="line2d_22">
      <g>
       <use xlink:href="#m48f1562b23" x="345.8086" y="121.118125" style="stroke: #000000; stroke-width: 0.8"/>
      </g>
     </g>
     <g id="text_15">
      <!-- 20 -->
      <g transform="translate(339.4461 135.716563) scale(0.1 -0.1)">
       <use xlink:href="#DejaVuSans-32"/>
       <use xlink:href="#DejaVuSans-30" x="63.623047"/>
      </g>
     </g>
    </g>
    <g id="xtick_9">
     <g id="line2d_23">
      <g>
       <use xlink:href="#m48f1562b23" x="387.352116" y="121.118125" style="stroke: #000000; stroke-width: 0.8"/>
      </g>
     </g>
     <g id="text_16">
      <!-- 40 -->
      <g transform="translate(380.989616 135.716563) scale(0.1 -0.1)">
       <use xlink:href="#DejaVuSans-34"/>
       <use xlink:href="#DejaVuSans-30" x="63.623047"/>
      </g>
     </g>
    </g>
    <g id="text_17">
     <!-- iteration -->
     <g transform="translate(335.071823 149.394688) scale(0.1 -0.1)">
      <use xlink:href="#DejaVuSans-69"/>
      <use xlink:href="#DejaVuSans-74" x="27.783203"/>
      <use xlink:href="#DejaVuSans-65" x="66.992188"/>
      <use xlink:href="#DejaVuSans-72" x="128.515625"/>
      <use xlink:href="#DejaVuSans-61" x="169.628906"/>
      <use xlink:href="#DejaVuSans-74" x="230.908203"/>
      <use xlink:href="#DejaVuSans-69" x="270.117188"/>
      <use xlink:href="#DejaVuSans-6f" x="297.900391"/>
      <use xlink:href="#DejaVuSans-6e" x="359.082031"/>
     </g>
    </g>
   </g>
   <g id="matplotlib.axis_8">
    <g id="ytick_11">
     <g id="line2d_24"/>
    </g>
    <g id="ytick_12">
     <g id="line2d_25"/>
    </g>
   </g>
   <g id="line2d_26">
    <path d="M 304.265085 26.809038 
L 306.342261 31.76951 
L 308.419437 36.947327 
L 310.496613 42.063074 
L 312.573788 47.594419 
L 314.650964 54.445037 
L 316.72814 63.382288 
L 318.805316 72.974803 
L 320.882491 81.044984 
L 322.959667 87.163023 
L 325.036843 91.644387 
L 327.114019 95.022242 
L 329.191194 97.64367 
L 331.26837 99.692626 
L 333.345546 101.308543 
L 335.422722 102.602056 
L 337.499897 103.647786 
L 339.577073 104.489591 
L 341.654249 105.157319 
L 343.731425 105.682859 
L 345.8086 106.099397 
L 347.885776 106.434341 
L 349.962952 106.705442 
L 352.040128 106.925544 
L 354.117303 107.106591 
L 356.194479 107.258749 
L 358.271655 107.38857 
L 360.348831 107.498905 
L 362.426006 107.590269 
L 364.503182 107.664341 
L 366.580358 107.72442 
L 368.657534 107.774265 
L 370.734709 107.817304 
L 372.811885 107.856254 
L 374.889061 107.893594 
L 376.966237 107.931124 
L 379.043413 107.969603 
L 381.120588 108.008314 
L 383.197764 108.044438 
L 385.27494 108.074589 
L 387.352116 108.097804 
L 389.429291 108.114409 
L 391.506467 108.126376 
L 393.583643 108.135193 
L 395.660819 108.141844 
L 397.737994 108.14706 
L 399.81517 108.15129 
L 401.892346 108.154654 
L 403.969522 108.157381 
L 406.046697 108.159799 
L 408.123873 108.161815 
" clip-path="url(#pcfaa5d4f59)" style="fill: none; stroke: #d95f18; stroke-width: 1.5; stroke-linecap: square"/>
   </g>
   <g id="patch_21">
    <path d="M 299.072146 121.118125 
L 299.072146 22.318125 
" style="fill: none; stroke: #000000; stroke-width: 0.8; stroke-linejoin: miter; stroke-linecap: square"/>
   </g>
   <g id="patch_22">
    <path d="M 413.316813 121.118125 
L 413.316813 22.318125 
" style="fill: none; stroke: #000000; stroke-width: 0.8; stroke-linejoin: miter; stroke-linecap: square"/>
   </g>
   <g id="patch_23">
    <path d="M 299.072146 121.118125 
L 413.316813 121.118125 
" style="fill: none; stroke: #000000; stroke-width: 0.8; stroke-linejoin: miter; stroke-linecap: square"/>
   </g>
   <g id="patch_24">
    <path d="M 299.072146 22.318125 
L 413.316813 22.318125 
" style="fill: none; stroke: #000000; stroke-width: 0.8; stroke-linejoin: miter; stroke-linecap: square"/>
   </g>
   <g id="text_18">
    <!-- VQE -->
    <g transform="translate(343.575729 16.318125) scale(0.12 -0.12)">
     <defs>
      <path id="DejaVuSans-56" d="M 1831 0 
L 50 4666 
L 709 4666 
L 2188 738 
L 3669 4666 
L 4325 4666 
L 2547 0 
L 1831 0 
z
" transform="scale(0.015625)"/>
     </defs>
     <use xlink:href="#DejaVuSans-56"/>
     <use xlink:href="#DejaVuSans-51" x="68.408203"/>
     <use xlink:href="#DejaVuSans-45" x="147.119141"/>
    </g>
   </g>
  </g>
  <g id="axes_6">
   <g id="PolyCollection_6">
    <defs>
     <path id="m6b62211c19" d="M 304.265085 -43.787788 
L 304.265085 -43.770466 
L 306.342261 -43.769813 
L 308.419437 -43.769974 
L 310.496613 -43.77289 
L 312.573788 -43.77527 
L 314.650964 -43.694525 
L 316.72814 -43.160938 
L 318.805316 -42.277882 
L 320.882491 -42.047159 
L 322.959667 -42.703466 
L 325.036843 -44.232968 
L 327.114019 -46.443074 
L 329.191194 -48.937308 
L 331.26837 -51.363949 
L 333.345546 -53.611615 
L 335.422722 -55.732124 
L 337.499897 -57.762118 
L 339.577073 -59.626231 
L 341.654249 -61.205404 
L 343.731425 -62.471714 
L 345.8086 -63.482047 
L 347.885776 -64.281529 
L 349.962952 -64.883186 
L 352.040128 -65.316094 
L 354.117303 -65.63403 
L 356.194479 -65.885189 
L 358.271655 -66.099268 
L 360.348831 -66.291384 
L 362.426006 -66.468736 
L 364.503182 -66.6365 
L 366.580358 -66.801337 
L 368.657534 -66.972234 
L 370.734709 -67.16004 
L 372.811885 -67.37653 
L 374.889061 -67.632037 
L 376.966237 -67.929357 
L 379.043413 -68.253842 
L 381.120588 -68.56773 
L 383.197764 -68.824593 
L 385.27494 -69.000774 
L 387.352116 -69.106752 
L 389.429291 -69.167306 
L 391.506467 -69.202704 
L 393.583643 -69.224746 
L 395.660819 -69.239462 
L 397.737994 -69.249909 
L 399.81517 -69.257688 
L 401.892346 -69.263656 
L 403.969522 -69.268364 
L 406.046697 -69.272151 
L 408.123873 -69.275234 
L 408.123873 -131.865341 
L 408.123873 -131.865341 
L 406.046697 -131.854518 
L 403.969522 -131.841428 
L 401.892346 -131.825446 
L 399.81517 -131.805614 
L 397.737994 -131.780438 
L 395.660819 -131.747781 
L 393.583643 -131.703959 
L 391.506467 -131.64288 
L 389.429291 -131.555197 
L 387.352116 -131.429349 
L 385.27494 -131.259805 
L 383.197764 -131.062058 
L 381.120588 -130.873015 
L 379.043413 -130.723138 
L 376.966237 -130.612625 
L 374.889061 -130.521439 
L 372.811885 -130.429359 
L 370.734709 -130.323237 
L 368.657534 -130.195678 
L 366.580358 -130.042256 
L 364.503182 -129.858999 
L 362.426006 -129.640477 
L 360.348831 -129.377749 
L 358.271655 -129.055618 
L 356.194479 -128.649977 
L 354.117303 -128.125408 
L 352.040128 -127.438234 
L 349.962952 -126.55188 
L 347.885776 -125.452725 
L 345.8086 -124.124041 
L 343.731425 -122.503774 
L 341.654249 -120.515046 
L 339.577073 -118.117853 
L 337.499897 -115.247527 
L 335.422722 -111.696711 
L 333.345546 -107.150118 
L 331.26837 -101.355467 
L 329.191194 -94.269634 
L 327.114019 -86.094102 
L 325.036843 -77.144684 
L 322.959667 -67.783978 
L 320.882491 -58.807921 
L 318.805316 -51.451595 
L 316.72814 -46.559453 
L 314.650964 -44.526118 
L 312.573788 -44.023695 
L 310.496613 -43.888248 
L 308.419437 -43.831871 
L 306.342261 -43.802339 
L 304.265085 -43.787788 
z
" style="stroke: #616c8c; stroke-opacity: 0.2"/>
    </defs>
    <g clip-path="url(#pcfaa5d4f59)">
     <use xlink:href="#m6b62211c19" x="0" y="158.674375" style="fill: #616c8c; fill-opacity: 0.2; stroke: #616c8c; stroke-opacity: 0.2"/>
    </g>
   </g>
   <g id="matplotlib.axis_9">
    <g id="ytick_13">
     <g id="line2d_27">
      <defs>
       <path id="mb725c667bd" d="M 0 0 
L 3.5 0 
" style="stroke: #000000; stroke-width: 0.8"/>
      </defs>
      <g>
       <use xlink:href="#mb725c667bd" x="413.316813" y="114.902189" style="stroke: #000000; stroke-width: 0.8"/>
      </g>
     </g>
     <g id="text_19">
      <!-- 0.0 -->
      <g transform="translate(420.316813 118.701408) scale(0.1 -0.1)">
       <defs>
        <path id="DejaVuSans-2e" d="M 684 794 
L 1344 794 
L 1344 0 
L 684 0 
L 684 794 
z
" transform="scale(0.015625)"/>
       </defs>
       <use xlink:href="#DejaVuSans-30"/>
       <use xlink:href="#DejaVuSans-2e" x="63.623047"/>
       <use xlink:href="#DejaVuSans-30" x="95.410156"/>
      </g>
     </g>
    </g>
    <g id="ytick_14">
     <g id="line2d_28">
      <g>
       <use xlink:href="#mb725c667bd" x="413.316813" y="78.017706" style="stroke: #000000; stroke-width: 0.8"/>
      </g>
     </g>
     <g id="text_20">
      <!-- 0.5 -->
      <g transform="translate(420.316813 81.816925) scale(0.1 -0.1)">
       <use xlink:href="#DejaVuSans-30"/>
       <use xlink:href="#DejaVuSans-2e" x="63.623047"/>
       <use xlink:href="#DejaVuSans-35" x="95.410156"/>
      </g>
     </g>
    </g>
    <g id="ytick_15">
     <g id="line2d_29">
      <g>
       <use xlink:href="#mb725c667bd" x="413.316813" y="41.133224" style="stroke: #000000; stroke-width: 0.8"/>
      </g>
     </g>
     <g id="text_21">
      <!-- 1.0 -->
      <g transform="translate(420.316813 44.932442) scale(0.1 -0.1)">
       <use xlink:href="#DejaVuSans-31"/>
       <use xlink:href="#DejaVuSans-2e" x="63.623047"/>
       <use xlink:href="#DejaVuSans-30" x="95.410156"/>
      </g>
     </g>
    </g>
    <g id="text_22">
     <!-- $p_{\text{gs}}$ -->
     <g transform="translate(446.798063 79.118125) rotate(-90) scale(0.1 -0.1)">
      <defs>
       <path id="DejaVuSans-Oblique-70" d="M 3175 2156 
Q 3175 2616 2975 2859 
Q 2775 3103 2400 3103 
Q 2144 3103 1911 2972 
Q 1678 2841 1497 2591 
Q 1319 2344 1212 1994 
Q 1106 1644 1106 1300 
Q 1106 863 1306 627 
Q 1506 391 1875 391 
Q 2147 391 2380 519 
Q 2613 647 2778 891 
Q 2956 1147 3065 1494 
Q 3175 1841 3175 2156 
z
M 1394 2969 
Q 1625 3272 1939 3428 
Q 2253 3584 2638 3584 
Q 3175 3584 3472 3232 
Q 3769 2881 3769 2247 
Q 3769 1728 3584 1258 
Q 3400 788 3053 416 
Q 2822 169 2531 39 
Q 2241 -91 1919 -91 
Q 1547 -91 1294 64 
Q 1041 219 916 525 
L 556 -1331 
L -19 -1331 
L 922 3500 
L 1497 3500 
L 1394 2969 
z
" transform="scale(0.015625)"/>
      </defs>
      <use xlink:href="#DejaVuSans-Oblique-70"/>
      <use xlink:href="#DejaVuSans-67" transform="translate(63.476562 -16.40625) scale(0.7)"/>
      <use xlink:href="#DejaVuSans-73" transform="translate(107.910156 -16.40625) scale(0.7)"/>
     </g>
    </g>
   </g>
   <g id="line2d_30">
    <path d="M 304.265085 114.895248 
L 306.342261 114.888299 
L 308.419437 114.873453 
L 310.496613 114.843806 
L 312.573788 114.774892 
L 314.650964 114.564054 
L 316.72814 113.81418 
L 318.805316 111.809637 
L 320.882491 108.246835 
L 322.959667 103.430653 
L 325.036843 97.985549 
L 327.114019 92.405787 
L 329.191194 87.070904 
L 331.26837 82.314667 
L 333.345546 78.293508 
L 335.422722 74.959958 
L 337.499897 72.169552 
L 339.577073 69.802333 
L 341.654249 67.81415 
L 343.731425 66.186631 
L 345.8086 64.871331 
L 347.885776 63.807248 
L 349.962952 62.956842 
L 352.040128 62.297211 
L 354.117303 61.794656 
L 356.194479 61.406792 
L 358.271655 61.096932 
L 360.348831 60.839808 
L 362.426006 60.619768 
L 364.503182 60.426626 
L 366.580358 60.252578 
L 368.657534 60.090419 
L 370.734709 59.932736 
L 372.811885 59.771431 
L 374.889061 59.597637 
L 376.966237 59.403384 
L 379.043413 59.185885 
L 381.120588 58.954002 
L 383.197764 58.731049 
L 385.27494 58.544085 
L 387.352116 58.406324 
L 389.429291 58.313123 
L 391.506467 58.251583 
L 393.583643 58.210023 
L 395.660819 58.180754 
L 397.737994 58.159201 
L 399.81517 58.142724 
L 401.892346 58.129824 
L 403.969522 58.119479 
L 406.046697 58.111041 
L 408.123873 58.104087 
" clip-path="url(#pcfaa5d4f59)" style="fill: none; stroke: #616c8c; stroke-width: 1.5; stroke-linecap: square"/>
   </g>
   <g id="patch_25">
    <path d="M 299.072146 121.118125 
L 299.072146 22.318125 
" style="fill: none; stroke: #000000; stroke-width: 0.8; stroke-linejoin: miter; stroke-linecap: square"/>
   </g>
   <g id="patch_26">
    <path d="M 413.316813 121.118125 
L 413.316813 22.318125 
" style="fill: none; stroke: #000000; stroke-width: 0.8; stroke-linejoin: miter; stroke-linecap: square"/>
   </g>
   <g id="patch_27">
    <path d="M 299.072146 121.118125 
L 413.316813 121.118125 
" style="fill: none; stroke: #000000; stroke-width: 0.8; stroke-linejoin: miter; stroke-linecap: square"/>
   </g>
   <g id="patch_28">
    <path d="M 299.072146 22.318125 
L 413.316813 22.318125 
" style="fill: none; stroke: #000000; stroke-width: 0.8; stroke-linejoin: miter; stroke-linecap: square"/>
   </g>
  </g>
 </g>
 <defs>
  <clipPath id="pa59ee8b4b7">
   <rect x="48.982813" y="22.318125" width="114.244667" height="98.8"/>
  </clipPath>
  <clipPath id="p266114fb70">
   <rect x="174.027479" y="22.318125" width="114.244667" height="98.8"/>
  </clipPath>
  <clipPath id="pcfaa5d4f59">
   <rect x="299.072146" y="22.318125" width="114.244667" height="98.8"/>
  </clipPath>
 </defs>
</svg>
