<?xml version="1.0" encoding="utf-8" standalone="no"?>
<!DOCTYPE svg PUBLIC "-//W3C//DTD SVG 1.1//EN"
  "http://www.w3.org/Graphics/SVG/1.1/DTD/svg11.dtd">
<svg xmlns:xlink="http://www.w3.org/1999/xlink" width="463.398062pt" height="140.49625pt" viewBox="0 0 463.398062 140.49625" xmlns="http://www.w3.org/2000/svg" version="1.1">
 <metadata>
  <rdf:RDF xmlns:dc="http://purl.org/dc/elements/1.1/" xmlns:cc="http://creativecommons.org/ns#" xmlns:rdf="http://www.w3.org/1999/02/22-rdf-syntax-ns#">
   <cc:Work>
    <dc:type rdf:resource="http://purl.org/dc/dcmitype/StillImage"/>
    <dc:date>2025-04-13T06:27:04.501100</dc:date>
    <dc:format>image/svg+xml</dc:format>
    <dc:creator>
     <cc:Agent>
      <dc:title>Matplotlib v3.9.3, https://matplotlib.org/</dc:title>
     </cc:Agent>
    </dc:creator>
   </cc:Work>
  </rdf:RDF>
 </metadata>
 <defs>
  <style type="text/css">*{stroke-linejoin: round; stroke-linecap: butt}</style>
 </defs>
 <g id="figure_1">
  <g id="patch_1">
   <path d="M 0 140.49625 
L 463.398062 140.49625 
L 463.398062 0 
L 0 0 
z
" style="fill: #ffffff"/>
  </g>
  <g id="axes_1">
   <g id="patch_2">
    <path d="M 48.982813 102.94 
L 165.327479 102.94 
L 165.327479 7.2 
L 48.982813 7.2 
z
" style="fill: #ffffff"/>
   </g>
   <g id="matplotlib.axis_1">
    <g id="xtick_1">
     <g id="line2d_1">
      <defs>
       <path id="ma57f100151" d="M 0 0 
L 0 3.5 
" style="stroke: #000000; stroke-width: 0.8"/>
      </defs>
      <g>
       <use xlink:href="#ma57f100151" x="54.271206" y="102.94" style="stroke: #000000; stroke-width: 0.8"/>
      </g>
     </g>
     <g id="text_1">
      <!-- 0 -->
      <g transform="translate(51.089956 117.538438) scale(0.1 -0.1)">
       <defs>
        <path id="DejaVuSans-30" d="M 2034 4250 
Q 1547 4250 1301 3770 
Q 1056 3291 1056 2328 
Q 1056 1369 1301 889 
Q 1547 409 2034 409 
Q 2525 409 2770 889 
Q 3016 1369 3016 2328 
Q 3016 3291 2770 3770 
Q 2525 4250 2034 4250 
z
M 2034 4750 
Q 2819 4750 3233 4129 
Q 3647 3509 3647 2328 
Q 3647 1150 3233 529 
Q 2819 -91 2034 -91 
Q 1250 -91 836 529 
Q 422 1150 422 2328 
Q 422 3509 836 4129 
Q 1250 4750 2034 4750 
z
" transform="scale(0.015625)"/>
       </defs>
       <use xlink:href="#DejaVuSans-30"/>
      </g>
     </g>
    </g>
    <g id="xtick_2">
     <g id="line2d_2">
      <g>
       <use xlink:href="#ma57f100151" x="96.578358" y="102.94" style="stroke: #000000; stroke-width: 0.8"/>
      </g>
     </g>
     <g id="text_2">
      <!-- 20 -->
      <g transform="translate(90.215858 117.538438) scale(0.1 -0.1)">
       <defs>
        <path id="DejaVuSans-32" d="M 1228 531 
L 3431 531 
L 3431 0 
L 469 0 
L 469 531 
Q 828 903 1448 1529 
Q 2069 2156 2228 2338 
Q 2531 2678 2651 2914 
Q 2772 3150 2772 3378 
Q 2772 3750 2511 3984 
Q 2250 4219 1831 4219 
Q 1534 4219 1204 4116 
Q 875 4013 500 3803 
L 500 4441 
Q 881 4594 1212 4672 
Q 1544 4750 1819 4750 
Q 2544 4750 2975 4387 
Q 3406 4025 3406 3419 
Q 3406 3131 3298 2873 
Q 3191 2616 2906 2266 
Q 2828 2175 2409 1742 
Q 1991 1309 1228 531 
z
" transform="scale(0.015625)"/>
       </defs>
       <use xlink:href="#DejaVuSans-32"/>
       <use xlink:href="#DejaVuSans-30" x="63.623047"/>
      </g>
     </g>
    </g>
    <g id="xtick_3">
     <g id="line2d_3">
      <g>
       <use xlink:href="#ma57f100151" x="138.885509" y="102.94" style="stroke: #000000; stroke-width: 0.8"/>
      </g>
     </g>
     <g id="text_3">
      <!-- 40 -->
      <g transform="translate(132.523009 117.538438) scale(0.1 -0.1)">
       <defs>
        <path id="DejaVuSans-34" d="M 2419 4116 
L 825 1625 
L 2419 1625 
L 2419 4116 
z
M 2253 4666 
L 3047 4666 
L 3047 1625 
L 3713 1625 
L 3713 1100 
L 3047 1100 
L 3047 0 
L 2419 0 
L 2419 1100 
L 313 1100 
L 313 1709 
L 2253 4666 
z
" transform="scale(0.015625)"/>
       </defs>
       <use xlink:href="#DejaVuSans-34"/>
       <use xlink:href="#DejaVuSans-30" x="63.623047"/>
      </g>
     </g>
    </g>
    <g id="text_4">
     <!-- iteration -->
     <g transform="translate(86.03249 131.216563) scale(0.1 -0.1)">
      <defs>
       <path id="DejaVuSans-69" d="M 603 3500 
L 1178 3500 
L 1178 0 
L 603 0 
L 603 3500 
z
M 603 4863 
L 1178 4863 
L 1178 4134 
L 603 4134 
L 603 4863 
z
" transform="scale(0.015625)"/>
       <path id="DejaVuSans-74" d="M 1172 4494 
L 1172 3500 
L 2356 3500 
L 2356 3053 
L 1172 3053 
L 1172 1153 
Q 1172 725 1289 603 
Q 1406 481 1766 481 
L 2356 481 
L 2356 0 
L 1766 0 
Q 1100 0 847 248 
Q 594 497 594 1153 
L 594 3053 
L 172 3053 
L 172 3500 
L 594 3500 
L 594 4494 
L 1172 4494 
z
" transform="scale(0.015625)"/>
       <path id="DejaVuSans-65" d="M 3597 1894 
L 3597 1613 
L 953 1613 
Q 991 1019 1311 708 
Q 1631 397 2203 397 
Q 2534 397 2845 478 
Q 3156 559 3463 722 
L 3463 178 
Q 3153 47 2828 -22 
Q 2503 -91 2169 -91 
Q 1331 -91 842 396 
Q 353 884 353 1716 
Q 353 2575 817 3079 
Q 1281 3584 2069 3584 
Q 2775 3584 3186 3129 
Q 3597 2675 3597 1894 
z
M 3022 2063 
Q 3016 2534 2758 2815 
Q 2500 3097 2075 3097 
Q 1594 3097 1305 2825 
Q 1016 2553 972 2059 
L 3022 2063 
z
" transform="scale(0.015625)"/>
       <path id="DejaVuSans-72" d="M 2631 2963 
Q 2534 3019 2420 3045 
Q 2306 3072 2169 3072 
Q 1681 3072 1420 2755 
Q 1159 2438 1159 1844 
L 1159 0 
L 581 0 
L 581 3500 
L 1159 3500 
L 1159 2956 
Q 1341 3275 1631 3429 
Q 1922 3584 2338 3584 
Q 2397 3584 2469 3576 
Q 2541 3569 2628 3553 
L 2631 2963 
z
" transform="scale(0.015625)"/>
       <path id="DejaVuSans-61" d="M 2194 1759 
Q 1497 1759 1228 1600 
Q 959 1441 959 1056 
Q 959 750 1161 570 
Q 1363 391 1709 391 
Q 2188 391 2477 730 
Q 2766 1069 2766 1631 
L 2766 1759 
L 2194 1759 
z
M 3341 1997 
L 3341 0 
L 2766 0 
L 2766 531 
Q 2569 213 2275 61 
Q 1981 -91 1556 -91 
Q 1019 -91 701 211 
Q 384 513 384 1019 
Q 384 1609 779 1909 
Q 1175 2209 1959 2209 
L 2766 2209 
L 2766 2266 
Q 2766 2663 2505 2880 
Q 2244 3097 1772 3097 
Q 1472 3097 1187 3025 
Q 903 2953 641 2809 
L 641 3341 
Q 956 3463 1253 3523 
Q 1550 3584 1831 3584 
Q 2591 3584 2966 3190 
Q 3341 2797 3341 1997 
z
" transform="scale(0.015625)"/>
       <path id="DejaVuSans-6f" d="M 1959 3097 
Q 1497 3097 1228 2736 
Q 959 2375 959 1747 
Q 959 1119 1226 758 
Q 1494 397 1959 397 
Q 2419 397 2687 759 
Q 2956 1122 2956 1747 
Q 2956 2369 2687 2733 
Q 2419 3097 1959 3097 
z
M 1959 3584 
Q 2709 3584 3137 3096 
Q 3566 2609 3566 1747 
Q 3566 888 3137 398 
Q 2709 -91 1959 -91 
Q 1206 -91 779 398 
Q 353 888 353 1747 
Q 353 2609 779 3096 
Q 1206 3584 1959 3584 
z
" transform="scale(0.015625)"/>
       <path id="DejaVuSans-6e" d="M 3513 2113 
L 3513 0 
L 2938 0 
L 2938 2094 
Q 2938 2591 2744 2837 
Q 2550 3084 2163 3084 
Q 1697 3084 1428 2787 
Q 1159 2491 1159 1978 
L 1159 0 
L 581 0 
L 581 3500 
L 1159 3500 
L 1159 2956 
Q 1366 3272 1645 3428 
Q 1925 3584 2291 3584 
Q 2894 3584 3203 3211 
Q 3513 2838 3513 2113 
z
" transform="scale(0.015625)"/>
      </defs>
      <use xlink:href="#DejaVuSans-69"/>
      <use xlink:href="#DejaVuSans-74" x="27.783203"/>
      <use xlink:href="#DejaVuSans-65" x="66.992188"/>
      <use xlink:href="#DejaVuSans-72" x="128.515625"/>
      <use xlink:href="#DejaVuSans-61" x="169.628906"/>
      <use xlink:href="#DejaVuSans-74" x="230.908203"/>
      <use xlink:href="#DejaVuSans-69" x="270.117188"/>
      <use xlink:href="#DejaVuSans-6f" x="297.900391"/>
      <use xlink:href="#DejaVuSans-6e" x="359.082031"/>
     </g>
    </g>
   </g>
   <g id="matplotlib.axis_2">
    <g id="ytick_1">
     <g id="line2d_4">
      <defs>
       <path id="mca81757e63" d="M 0 0 
L -3.5 0 
" style="stroke: #000000; stroke-width: 0.8"/>
      </defs>
      <g>
       <use xlink:href="#mca81757e63" x="48.982813" y="88.975448" style="stroke: #000000; stroke-width: 0.8"/>
      </g>
     </g>
     <g id="text_5">
      <!-- −18 -->
      <g transform="translate(20.878125 92.774666) scale(0.1 -0.1)">
       <defs>
        <path id="DejaVuSans-2212" d="M 678 2272 
L 4684 2272 
L 4684 1741 
L 678 1741 
L 678 2272 
z
" transform="scale(0.015625)"/>
        <path id="DejaVuSans-31" d="M 794 531 
L 1825 531 
L 1825 4091 
L 703 3866 
L 703 4441 
L 1819 4666 
L 2450 4666 
L 2450 531 
L 3481 531 
L 3481 0 
L 794 0 
L 794 531 
z
" transform="scale(0.015625)"/>
        <path id="DejaVuSans-38" d="M 2034 2216 
Q 1584 2216 1326 1975 
Q 1069 1734 1069 1313 
Q 1069 891 1326 650 
Q 1584 409 2034 409 
Q 2484 409 2743 651 
Q 3003 894 3003 1313 
Q 3003 1734 2745 1975 
Q 2488 2216 2034 2216 
z
M 1403 2484 
Q 997 2584 770 2862 
Q 544 3141 544 3541 
Q 544 4100 942 4425 
Q 1341 4750 2034 4750 
Q 2731 4750 3128 4425 
Q 3525 4100 3525 3541 
Q 3525 3141 3298 2862 
Q 3072 2584 2669 2484 
Q 3125 2378 3379 2068 
Q 3634 1759 3634 1313 
Q 3634 634 3220 271 
Q 2806 -91 2034 -91 
Q 1263 -91 848 271 
Q 434 634 434 1313 
Q 434 1759 690 2068 
Q 947 2378 1403 2484 
z
M 1172 3481 
Q 1172 3119 1398 2916 
Q 1625 2713 2034 2713 
Q 2441 2713 2670 2916 
Q 2900 3119 2900 3481 
Q 2900 3844 2670 4047 
Q 2441 4250 2034 4250 
Q 1625 4250 1398 4047 
Q 1172 3844 1172 3481 
z
" transform="scale(0.015625)"/>
       </defs>
       <use xlink:href="#DejaVuSans-2212"/>
       <use xlink:href="#DejaVuSans-31" x="83.789062"/>
       <use xlink:href="#DejaVuSans-38" x="147.412109"/>
      </g>
     </g>
    </g>
    <g id="ytick_2">
     <g id="line2d_5">
      <g>
       <use xlink:href="#mca81757e63" x="48.982813" y="63.167629" style="stroke: #000000; stroke-width: 0.8"/>
      </g>
     </g>
     <g id="text_6">
      <!-- −16 -->
      <g transform="translate(20.878125 66.966847) scale(0.1 -0.1)">
       <defs>
        <path id="DejaVuSans-36" d="M 2113 2584 
Q 1688 2584 1439 2293 
Q 1191 2003 1191 1497 
Q 1191 994 1439 701 
Q 1688 409 2113 409 
Q 2538 409 2786 701 
Q 3034 994 3034 1497 
Q 3034 2003 2786 2293 
Q 2538 2584 2113 2584 
z
M 3366 4563 
L 3366 3988 
Q 3128 4100 2886 4159 
Q 2644 4219 2406 4219 
Q 1781 4219 1451 3797 
Q 1122 3375 1075 2522 
Q 1259 2794 1537 2939 
Q 1816 3084 2150 3084 
Q 2853 3084 3261 2657 
Q 3669 2231 3669 1497 
Q 3669 778 3244 343 
Q 2819 -91 2113 -91 
Q 1303 -91 875 529 
Q 447 1150 447 2328 
Q 447 3434 972 4092 
Q 1497 4750 2381 4750 
Q 2619 4750 2861 4703 
Q 3103 4656 3366 4563 
z
" transform="scale(0.015625)"/>
       </defs>
       <use xlink:href="#DejaVuSans-2212"/>
       <use xlink:href="#DejaVuSans-31" x="83.789062"/>
       <use xlink:href="#DejaVuSans-36" x="147.412109"/>
      </g>
     </g>
    </g>
    <g id="ytick_3">
     <g id="line2d_6">
      <g>
       <use xlink:href="#mca81757e63" x="48.982813" y="37.359809" style="stroke: #000000; stroke-width: 0.8"/>
      </g>
     </g>
     <g id="text_7">
      <!-- −14 -->
      <g transform="translate(20.878125 41.159028) scale(0.1 -0.1)">
       <use xlink:href="#DejaVuSans-2212"/>
       <use xlink:href="#DejaVuSans-31" x="83.789062"/>
       <use xlink:href="#DejaVuSans-34" x="147.412109"/>
      </g>
     </g>
    </g>
    <g id="ytick_4">
     <g id="line2d_7">
      <g>
       <use xlink:href="#mca81757e63" x="48.982813" y="11.55199" style="stroke: #000000; stroke-width: 0.8"/>
      </g>
     </g>
     <g id="text_8">
      <!-- −12 -->
      <g transform="translate(20.878125 15.351209) scale(0.1 -0.1)">
       <use xlink:href="#DejaVuSans-2212"/>
       <use xlink:href="#DejaVuSans-31" x="83.789062"/>
       <use xlink:href="#DejaVuSans-32" x="147.412109"/>
      </g>
     </g>
    </g>
    <g id="text_9">
     <!-- $\langle H \rangle$ -->
     <g transform="translate(14.798438 62.77) rotate(-90) scale(0.1 -0.1)">
      <defs>
       <path id="DejaVuSans-27e8" d="M 572 2006 
L 1453 4856 
L 1984 4856 
L 1103 2006 
L 1984 -844 
L 1453 -844 
L 572 2006 
z
" transform="scale(0.015625)"/>
       <path id="DejaVuSans-Oblique-48" d="M 1081 4666 
L 1716 4666 
L 1344 2753 
L 3634 2753 
L 4006 4666 
L 4641 4666 
L 3731 0 
L 3097 0 
L 3531 2222 
L 1241 2222 
L 806 0 
L 172 0 
L 1081 4666 
z
" transform="scale(0.015625)"/>
       <path id="DejaVuSans-27e9" d="M 1925 2006 
L 1044 -844 
L 513 -844 
L 1394 2006 
L 513 4856 
L 1044 4856 
L 1925 2006 
z
" transform="scale(0.015625)"/>
      </defs>
      <use xlink:href="#DejaVuSans-27e8" transform="translate(0 0.125)"/>
      <use xlink:href="#DejaVuSans-Oblique-48" transform="translate(39.013672 0.125)"/>
      <use xlink:href="#DejaVuSans-27e9" transform="translate(114.208984 0.125)"/>
     </g>
    </g>
   </g>
   <g id="line2d_8">
    <path d="M 54.271206 11.551818 
L 56.386564 17.461171 
L 58.501922 23.886643 
L 60.617279 30.137762 
L 62.732637 36.204436 
L 64.847994 42.044826 
L 66.963352 47.613275 
L 69.078709 52.857654 
L 71.194067 57.723829 
L 73.309425 62.158698 
L 75.424782 66.117555 
L 77.54014 69.576856 
L 79.655497 72.539803 
L 81.770855 75.036125 
L 83.886212 77.103874 
L 86.00157 78.791044 
L 88.116928 80.149124 
L 90.232285 81.232457 
L 92.347643 82.097775 
L 94.463 82.799396 
L 96.578358 83.383962 
L 98.693716 83.88903 
L 100.809073 84.345464 
L 102.924431 84.769952 
L 105.039788 85.17726 
L 107.155146 85.572656 
L 109.270503 85.954736 
L 111.385861 86.324043 
L 113.501219 86.672897 
L 115.616576 87.000585 
L 117.731934 87.307081 
L 119.847291 87.596817 
L 121.962649 87.869053 
L 124.078006 88.120467 
L 126.193364 88.340451 
L 128.308722 88.507569 
L 130.424079 88.603064 
L 132.539437 88.605525 
L 134.654794 88.500086 
L 136.770152 88.280102 
L 138.885509 87.946557 
L 141.000867 87.507277 
L 143.116225 86.977326 
L 145.231582 86.373563 
L 147.34694 85.719123 
L 149.462297 85.035469 
L 151.577655 84.346621 
L 153.693013 83.674411 
L 155.80837 83.037864 
L 157.923728 82.452683 
L 160.039085 81.933365 
" clip-path="url(#p2c55f7d128)" style="fill: none; stroke: #d95f18; stroke-width: 1.5; stroke-linecap: square"/>
   </g>
   <g id="patch_3">
    <path d="M 48.982813 102.94 
L 48.982813 7.2 
" style="fill: none; stroke: #000000; stroke-width: 0.8; stroke-linejoin: miter; stroke-linecap: square"/>
   </g>
   <g id="patch_4">
    <path d="M 165.327479 102.94 
L 165.327479 7.2 
" style="fill: none; stroke: #000000; stroke-width: 0.8; stroke-linejoin: miter; stroke-linecap: square"/>
   </g>
   <g id="patch_5">
    <path d="M 48.982813 102.94 
L 165.327479 102.94 
" style="fill: none; stroke: #000000; stroke-width: 0.8; stroke-linejoin: miter; stroke-linecap: square"/>
   </g>
   <g id="patch_6">
    <path d="M 48.982813 7.2 
L 165.327479 7.2 
" style="fill: none; stroke: #000000; stroke-width: 0.8; stroke-linejoin: miter; stroke-linecap: square"/>
   </g>
  </g>
  <g id="axes_2">
   <g id="matplotlib.axis_3">
    <g id="ytick_5">
     <g id="line2d_9"/>
    </g>
    <g id="ytick_6">
     <g id="line2d_10"/>
    </g>
    <g id="ytick_7">
     <g id="line2d_11"/>
    </g>
    <g id="ytick_8">
     <g id="line2d_12"/>
    </g>
   </g>
   <g id="line2d_13">
    <path d="M 54.271206 98.485583 
L 56.386564 98.41995 
L 58.501922 98.265856 
L 60.617279 98.005316 
L 62.732637 97.584107 
L 64.847994 96.934049 
L 66.963352 95.976656 
L 69.078709 94.632805 
L 71.194067 92.83943 
L 73.309425 90.56956 
L 75.424782 87.847735 
L 77.54014 84.751789 
L 79.655497 81.399969 
L 81.770855 77.925858 
L 83.886212 74.45337 
L 86.00157 71.077439 
L 88.116928 67.855344 
L 90.232285 64.808118 
L 92.347643 61.927496 
L 94.463 59.185724 
L 96.578358 56.545569 
L 98.693716 53.966733 
L 100.809073 51.410558 
L 102.924431 48.844251 
L 105.039788 46.241043 
L 107.155146 43.583496 
L 109.270503 40.863419 
L 111.385861 38.077891 
L 113.501219 35.228359 
L 115.616576 32.314285 
L 117.731934 29.33976 
L 119.847291 26.324364 
L 121.962649 23.318437 
L 124.078006 20.408521 
L 126.193364 17.711435 
L 128.308722 15.362107 
L 130.424079 13.489079 
L 132.539437 12.198081 
L 134.654794 11.551818 
L 136.770152 11.55894 
L 138.885509 12.17365 
L 141.000867 13.304796 
L 143.116225 14.826142 
L 145.231582 16.59708 
L 147.34694 18.47465 
L 149.462297 20.329083 
L 151.577655 22.048839 
L 153.693013 23.544893 
L 155.80837 24.752596 
L 157.923728 25.632746 
L 160.039085 26.166382 
" clip-path="url(#p2c55f7d128)" style="fill: none; stroke: #616c8c; stroke-width: 1.5; stroke-linecap: square"/>
   </g>
   <g id="patch_7">
    <path d="M 48.982813 102.94 
L 48.982813 7.2 
" style="fill: none; stroke: #000000; stroke-width: 0.8; stroke-linejoin: miter; stroke-linecap: square"/>
   </g>
   <g id="patch_8">
    <path d="M 165.327479 102.94 
L 165.327479 7.2 
" style="fill: none; stroke: #000000; stroke-width: 0.8; stroke-linejoin: miter; stroke-linecap: square"/>
   </g>
   <g id="patch_9">
    <path d="M 48.982813 102.94 
L 165.327479 102.94 
" style="fill: none; stroke: #000000; stroke-width: 0.8; stroke-linejoin: miter; stroke-linecap: square"/>
   </g>
   <g id="patch_10">
    <path d="M 48.982813 7.2 
L 165.327479 7.2 
" style="fill: none; stroke: #000000; stroke-width: 0.8; stroke-linejoin: miter; stroke-linecap: square"/>
   </g>
  </g>
  <g id="axes_3">
   <g id="patch_11">
    <path d="M 176.127479 102.94 
L 292.472146 102.94 
L 292.472146 7.2 
L 176.127479 7.2 
z
" style="fill: #ffffff"/>
   </g>
   <g id="matplotlib.axis_4">
    <g id="xtick_4">
     <g id="line2d_14">
      <g>
       <use xlink:href="#ma57f100151" x="181.415873" y="102.94" style="stroke: #000000; stroke-width: 0.8"/>
      </g>
     </g>
     <g id="text_10">
      <!-- 0 -->
      <g transform="translate(178.234623 117.538438) scale(0.1 -0.1)">
       <use xlink:href="#DejaVuSans-30"/>
      </g>
     </g>
    </g>
    <g id="xtick_5">
     <g id="line2d_15">
      <g>
       <use xlink:href="#ma57f100151" x="223.723025" y="102.94" style="stroke: #000000; stroke-width: 0.8"/>
      </g>
     </g>
     <g id="text_11">
      <!-- 20 -->
      <g transform="translate(217.360525 117.538438) scale(0.1 -0.1)">
       <use xlink:href="#DejaVuSans-32"/>
       <use xlink:href="#DejaVuSans-30" x="63.623047"/>
      </g>
     </g>
    </g>
    <g id="xtick_6">
     <g id="line2d_16">
      <g>
       <use xlink:href="#ma57f100151" x="266.030176" y="102.94" style="stroke: #000000; stroke-width: 0.8"/>
      </g>
     </g>
     <g id="text_12">
      <!-- 40 -->
      <g transform="translate(259.667676 117.538438) scale(0.1 -0.1)">
       <use xlink:href="#DejaVuSans-34"/>
       <use xlink:href="#DejaVuSans-30" x="63.623047"/>
      </g>
     </g>
    </g>
    <g id="text_13">
     <!-- iteration -->
     <g transform="translate(213.177156 131.216563) scale(0.1 -0.1)">
      <use xlink:href="#DejaVuSans-69"/>
      <use xlink:href="#DejaVuSans-74" x="27.783203"/>
      <use xlink:href="#DejaVuSans-65" x="66.992188"/>
      <use xlink:href="#DejaVuSans-72" x="128.515625"/>
      <use xlink:href="#DejaVuSans-61" x="169.628906"/>
      <use xlink:href="#DejaVuSans-74" x="230.908203"/>
      <use xlink:href="#DejaVuSans-69" x="270.117188"/>
      <use xlink:href="#DejaVuSans-6f" x="297.900391"/>
      <use xlink:href="#DejaVuSans-6e" x="359.082031"/>
     </g>
    </g>
   </g>
   <g id="matplotlib.axis_5">
    <g id="ytick_9">
     <g id="line2d_17"/>
    </g>
    <g id="ytick_10">
     <g id="line2d_18"/>
    </g>
    <g id="ytick_11">
     <g id="line2d_19"/>
    </g>
    <g id="ytick_12">
     <g id="line2d_20"/>
    </g>
   </g>
   <g id="line2d_21">
    <path d="M 181.415873 11.55183 
L 183.531231 18.583638 
L 185.646588 25.468596 
L 187.761946 32.3308 
L 189.877303 39.235239 
L 191.992661 46.209121 
L 194.108019 53.25209 
L 196.223376 60.324236 
L 198.338734 67.329315 
L 200.454091 74.093894 
L 202.569449 80.368985 
L 204.684806 85.902214 
L 206.800164 90.504262 
L 208.915522 94.070061 
L 211.030879 96.565399 
L 213.146237 98.029262 
L 215.261594 98.588182 
L 217.376952 98.426405 
L 219.492309 97.750307 
L 221.607667 96.741254 
L 223.723025 95.536484 
L 225.838382 94.221279 
L 227.95374 92.844838 
L 230.069097 91.435245 
L 232.184455 90.013199 
L 234.299813 88.598732 
L 236.41517 87.205826 
L 238.530528 85.846344 
L 240.645885 84.527669 
L 242.761243 83.253517 
L 244.8766 82.026104 
L 246.991958 80.844789 
L 249.107316 79.708269 
L 251.222673 78.617257 
L 253.338031 77.569391 
L 255.453388 76.562553 
L 257.568746 75.59662 
L 259.684103 74.668443 
L 261.799461 73.777282 
L 263.914819 72.92021 
L 266.030176 72.10008 
L 268.145534 71.316204 
L 270.260891 70.570256 
L 272.376249 69.863614 
L 274.491606 69.199354 
L 276.606964 68.585081 
L 278.722322 68.028352 
L 280.837679 67.540783 
L 282.953037 67.137659 
L 285.068394 66.831359 
L 287.183752 66.632468 
" clip-path="url(#p0e750f3115)" style="fill: none; stroke: #d95f18; stroke-width: 1.5; stroke-linecap: square"/>
   </g>
   <g id="patch_12">
    <path d="M 176.127479 102.94 
L 176.127479 7.2 
" style="fill: none; stroke: #000000; stroke-width: 0.8; stroke-linejoin: miter; stroke-linecap: square"/>
   </g>
   <g id="patch_13">
    <path d="M 292.472146 102.94 
L 292.472146 7.2 
" style="fill: none; stroke: #000000; stroke-width: 0.8; stroke-linejoin: miter; stroke-linecap: square"/>
   </g>
   <g id="patch_14">
    <path d="M 176.127479 102.94 
L 292.472146 102.94 
" style="fill: none; stroke: #000000; stroke-width: 0.8; stroke-linejoin: miter; stroke-linecap: square"/>
   </g>
   <g id="patch_15">
    <path d="M 176.127479 7.2 
L 292.472146 7.2 
" style="fill: none; stroke: #000000; stroke-width: 0.8; stroke-linejoin: miter; stroke-linecap: square"/>
   </g>
  </g>
  <g id="axes_4">
   <g id="matplotlib.axis_6">
    <g id="ytick_13">
     <g id="line2d_22"/>
    </g>
    <g id="ytick_14">
     <g id="line2d_23"/>
    </g>
    <g id="ytick_15">
     <g id="line2d_24"/>
    </g>
    <g id="ytick_16">
     <g id="line2d_25"/>
    </g>
   </g>
   <g id="line2d_26">
    <path d="M 181.415873 98.571082 
L 183.531231 98.548327 
L 185.646588 98.483035 
L 187.761946 98.341781 
L 189.877303 98.050927 
L 191.992661 97.48344 
L 194.108019 96.442802 
L 196.223376 94.667892 
L 198.338734 91.8849 
L 200.454091 87.920022 
L 202.569449 82.829656 
L 204.684806 76.936284 
L 206.800164 70.708636 
L 208.915522 64.603897 
L 211.030879 59.016194 
L 213.146237 54.296949 
L 215.261594 50.720397 
L 217.376952 48.405365 
L 219.492309 47.272433 
L 221.607667 47.095727 
L 223.723025 47.60583 
L 225.838382 48.57325 
L 227.95374 49.834198 
L 230.069097 51.277913 
L 232.184455 52.826607 
L 234.299813 54.421311 
L 236.41517 56.019477 
L 238.530528 57.589187 
L 240.645885 59.106937 
L 242.761243 60.554648 
L 244.8766 61.91731 
L 246.991958 63.182712 
L 249.107316 64.340613 
L 251.222673 65.383187 
L 253.338031 66.305901 
L 255.453388 67.107357 
L 257.568746 67.787817 
L 259.684103 68.349568 
L 261.799461 68.794779 
L 263.914819 69.126322 
L 266.030176 69.3467 
L 268.145534 69.460567 
L 270.260891 69.474861 
L 272.376249 69.399972 
L 274.491606 69.248785 
L 276.606964 69.034855 
L 278.722322 68.770788 
L 280.837679 68.465491 
L 282.953037 68.123137 
L 285.068394 67.744811 
L 287.183752 67.330613 
" clip-path="url(#p0e750f3115)" style="fill: none; stroke: #616c8c; stroke-width: 1.5; stroke-linecap: square"/>
   </g>
   <g id="patch_16">
    <path d="M 176.127479 102.94 
L 176.127479 7.2 
" style="fill: none; stroke: #000000; stroke-width: 0.8; stroke-linejoin: miter; stroke-linecap: square"/>
   </g>
   <g id="patch_17">
    <path d="M 292.472146 102.94 
L 292.472146 7.2 
" style="fill: none; stroke: #000000; stroke-width: 0.8; stroke-linejoin: miter; stroke-linecap: square"/>
   </g>
   <g id="patch_18">
    <path d="M 176.127479 102.94 
L 292.472146 102.94 
" style="fill: none; stroke: #000000; stroke-width: 0.8; stroke-linejoin: miter; stroke-linecap: square"/>
   </g>
   <g id="patch_19">
    <path d="M 176.127479 7.2 
L 292.472146 7.2 
" style="fill: none; stroke: #000000; stroke-width: 0.8; stroke-linejoin: miter; stroke-linecap: square"/>
   </g>
  </g>
  <g id="axes_5">
   <g id="patch_20">
    <path d="M 303.272146 102.94 
L 419.616813 102.94 
L 419.616813 7.2 
L 303.272146 7.2 
z
" style="fill: #ffffff"/>
   </g>
   <g id="matplotlib.axis_7">
    <g id="xtick_7">
     <g id="line2d_27">
      <g>
       <use xlink:href="#ma57f100151" x="308.56054" y="102.94" style="stroke: #000000; stroke-width: 0.8"/>
      </g>
     </g>
     <g id="text_14">
      <!-- 0 -->
      <g transform="translate(305.37929 117.538438) scale(0.1 -0.1)">
       <use xlink:href="#DejaVuSans-30"/>
      </g>
     </g>
    </g>
    <g id="xtick_8">
     <g id="line2d_28">
      <g>
       <use xlink:href="#ma57f100151" x="350.867691" y="102.94" style="stroke: #000000; stroke-width: 0.8"/>
      </g>
     </g>
     <g id="text_15">
      <!-- 20 -->
      <g transform="translate(344.505191 117.538438) scale(0.1 -0.1)">
       <use xlink:href="#DejaVuSans-32"/>
       <use xlink:href="#DejaVuSans-30" x="63.623047"/>
      </g>
     </g>
    </g>
    <g id="xtick_9">
     <g id="line2d_29">
      <g>
       <use xlink:href="#ma57f100151" x="393.174843" y="102.94" style="stroke: #000000; stroke-width: 0.8"/>
      </g>
     </g>
     <g id="text_16">
      <!-- 40 -->
      <g transform="translate(386.812343 117.538438) scale(0.1 -0.1)">
       <use xlink:href="#DejaVuSans-34"/>
       <use xlink:href="#DejaVuSans-30" x="63.623047"/>
      </g>
     </g>
    </g>
    <g id="text_17">
     <!-- iteration -->
     <g transform="translate(340.321823 131.216563) scale(0.1 -0.1)">
      <use xlink:href="#DejaVuSans-69"/>
      <use xlink:href="#DejaVuSans-74" x="27.783203"/>
      <use xlink:href="#DejaVuSans-65" x="66.992188"/>
      <use xlink:href="#DejaVuSans-72" x="128.515625"/>
      <use xlink:href="#DejaVuSans-61" x="169.628906"/>
      <use xlink:href="#DejaVuSans-74" x="230.908203"/>
      <use xlink:href="#DejaVuSans-69" x="270.117188"/>
      <use xlink:href="#DejaVuSans-6f" x="297.900391"/>
      <use xlink:href="#DejaVuSans-6e" x="359.082031"/>
     </g>
    </g>
   </g>
   <g id="matplotlib.axis_8">
    <g id="ytick_17">
     <g id="line2d_30"/>
    </g>
    <g id="ytick_18">
     <g id="line2d_31"/>
    </g>
    <g id="ytick_19">
     <g id="line2d_32"/>
    </g>
    <g id="ytick_20">
     <g id="line2d_33"/>
    </g>
   </g>
   <g id="line2d_34">
    <path d="M 308.56054 11.551818 
L 310.675897 18.89326 
L 312.791255 25.828193 
L 314.906612 32.631672 
L 317.02197 39.290198 
L 319.137328 45.74961 
L 321.252685 51.932356 
L 323.368043 57.754926 
L 325.4834 63.147594 
L 327.598758 68.05892 
L 329.714116 72.457745 
L 331.829473 76.333166 
L 333.944831 79.687669 
L 336.060188 82.548056 
L 338.175546 84.959417 
L 340.290903 86.97836 
L 342.406261 88.668976 
L 344.521619 90.088217 
L 346.636976 91.276767 
L 348.752334 92.267484 
L 350.867691 93.07804 
L 352.983049 93.723644 
L 355.098406 94.222337 
L 357.213764 94.589453 
L 359.329122 94.842123 
L 361.444479 94.993981 
L 363.559837 95.057554 
L 365.675194 95.043648 
L 367.790552 94.959302 
L 369.905909 94.811407 
L 372.021267 94.608356 
L 374.136625 94.356548 
L 376.251982 94.061865 
L 378.36734 93.730387 
L 380.482697 93.364994 
L 382.598055 92.96886 
L 384.713413 92.541788 
L 386.82877 92.084172 
L 388.944128 91.597785 
L 391.059485 91.084496 
L 393.174843 90.549795 
L 395.2902 90.000966 
L 397.405558 89.446477 
L 399.520916 88.892898 
L 401.636273 88.34658 
L 403.751631 87.807818 
L 405.866988 87.275848 
L 407.982346 86.748654 
L 410.097703 86.218777 
L 412.213061 85.680827 
L 414.328419 85.12678 
" clip-path="url(#pf95107bf34)" style="fill: none; stroke: #d95f18; stroke-width: 1.5; stroke-linecap: square"/>
   </g>
   <g id="patch_21">
    <path d="M 303.272146 102.94 
L 303.272146 7.2 
" style="fill: none; stroke: #000000; stroke-width: 0.8; stroke-linejoin: miter; stroke-linecap: square"/>
   </g>
   <g id="patch_22">
    <path d="M 419.616813 102.94 
L 419.616813 7.2 
" style="fill: none; stroke: #000000; stroke-width: 0.8; stroke-linejoin: miter; stroke-linecap: square"/>
   </g>
   <g id="patch_23">
    <path d="M 303.272146 102.94 
L 419.616813 102.94 
" style="fill: none; stroke: #000000; stroke-width: 0.8; stroke-linejoin: miter; stroke-linecap: square"/>
   </g>
   <g id="patch_24">
    <path d="M 303.272146 7.2 
L 419.616813 7.2 
" style="fill: none; stroke: #000000; stroke-width: 0.8; stroke-linejoin: miter; stroke-linecap: square"/>
   </g>
  </g>
  <g id="axes_6">
   <g id="matplotlib.axis_9">
    <g id="ytick_21">
     <g id="line2d_35">
      <defs>
       <path id="m522360eeb7" d="M 0 0 
L 3.5 0 
" style="stroke: #000000; stroke-width: 0.8"/>
      </defs>
      <g>
       <use xlink:href="#m522360eeb7" x="419.616813" y="98.596732" style="stroke: #000000; stroke-width: 0.8"/>
      </g>
     </g>
     <g id="text_18">
      <!-- 0.0 -->
      <g transform="translate(426.616813 102.39595) scale(0.1 -0.1)">
       <defs>
        <path id="DejaVuSans-2e" d="M 684 794 
L 1344 794 
L 1344 0 
L 684 0 
L 684 794 
z
" transform="scale(0.015625)"/>
       </defs>
       <use xlink:href="#DejaVuSans-30"/>
       <use xlink:href="#DejaVuSans-2e" x="63.623047"/>
       <use xlink:href="#DejaVuSans-30" x="95.410156"/>
      </g>
     </g>
    </g>
    <g id="ytick_22">
     <g id="line2d_36">
      <g>
       <use xlink:href="#m522360eeb7" x="419.616813" y="70.580314" style="stroke: #000000; stroke-width: 0.8"/>
      </g>
     </g>
     <g id="text_19">
      <!-- 0.1 -->
      <g transform="translate(426.616813 74.379533) scale(0.1 -0.1)">
       <use xlink:href="#DejaVuSans-30"/>
       <use xlink:href="#DejaVuSans-2e" x="63.623047"/>
       <use xlink:href="#DejaVuSans-31" x="95.410156"/>
      </g>
     </g>
    </g>
    <g id="ytick_23">
     <g id="line2d_37">
      <g>
       <use xlink:href="#m522360eeb7" x="419.616813" y="42.563897" style="stroke: #000000; stroke-width: 0.8"/>
      </g>
     </g>
     <g id="text_20">
      <!-- 0.2 -->
      <g transform="translate(426.616813 46.363115) scale(0.1 -0.1)">
       <use xlink:href="#DejaVuSans-30"/>
       <use xlink:href="#DejaVuSans-2e" x="63.623047"/>
       <use xlink:href="#DejaVuSans-32" x="95.410156"/>
      </g>
     </g>
    </g>
    <g id="ytick_24">
     <g id="line2d_38">
      <g>
       <use xlink:href="#m522360eeb7" x="419.616813" y="14.547479" style="stroke: #000000; stroke-width: 0.8"/>
      </g>
     </g>
     <g id="text_21">
      <!-- 0.3 -->
      <g transform="translate(426.616813 18.346698) scale(0.1 -0.1)">
       <defs>
        <path id="DejaVuSans-33" d="M 2597 2516 
Q 3050 2419 3304 2112 
Q 3559 1806 3559 1356 
Q 3559 666 3084 287 
Q 2609 -91 1734 -91 
Q 1441 -91 1130 -33 
Q 819 25 488 141 
L 488 750 
Q 750 597 1062 519 
Q 1375 441 1716 441 
Q 2309 441 2620 675 
Q 2931 909 2931 1356 
Q 2931 1769 2642 2001 
Q 2353 2234 1838 2234 
L 1294 2234 
L 1294 2753 
L 1863 2753 
Q 2328 2753 2575 2939 
Q 2822 3125 2822 3475 
Q 2822 3834 2567 4026 
Q 2313 4219 1838 4219 
Q 1578 4219 1281 4162 
Q 984 4106 628 3988 
L 628 4550 
Q 988 4650 1302 4700 
Q 1616 4750 1894 4750 
Q 2613 4750 3031 4423 
Q 3450 4097 3450 3541 
Q 3450 3153 3228 2886 
Q 3006 2619 2597 2516 
z
" transform="scale(0.015625)"/>
       </defs>
       <use xlink:href="#DejaVuSans-30"/>
       <use xlink:href="#DejaVuSans-2e" x="63.623047"/>
       <use xlink:href="#DejaVuSans-33" x="95.410156"/>
      </g>
     </g>
    </g>
    <g id="text_22">
     <!-- $p_{\text{gs}}$ -->
     <g transform="translate(453.098063 62.47) rotate(-90) scale(0.1 -0.1)">
      <defs>
       <path id="DejaVuSans-Oblique-70" d="M 3175 2156 
Q 3175 2616 2975 2859 
Q 2775 3103 2400 3103 
Q 2144 3103 1911 2972 
Q 1678 2841 1497 2591 
Q 1319 2344 1212 1994 
Q 1106 1644 1106 1300 
Q 1106 863 1306 627 
Q 1506 391 1875 391 
Q 2147 391 2380 519 
Q 2613 647 2778 891 
Q 2956 1147 3065 1494 
Q 3175 1841 3175 2156 
z
M 1394 2969 
Q 1625 3272 1939 3428 
Q 2253 3584 2638 3584 
Q 3175 3584 3472 3232 
Q 3769 2881 3769 2247 
Q 3769 1728 3584 1258 
Q 3400 788 3053 416 
Q 2822 169 2531 39 
Q 2241 -91 1919 -91 
Q 1547 -91 1294 64 
Q 1041 219 916 525 
L 556 -1331 
L -19 -1331 
L 922 3500 
L 1497 3500 
L 1394 2969 
z
" transform="scale(0.015625)"/>
       <path id="DejaVuSans-67" d="M 2906 1791 
Q 2906 2416 2648 2759 
Q 2391 3103 1925 3103 
Q 1463 3103 1205 2759 
Q 947 2416 947 1791 
Q 947 1169 1205 825 
Q 1463 481 1925 481 
Q 2391 481 2648 825 
Q 2906 1169 2906 1791 
z
M 3481 434 
Q 3481 -459 3084 -895 
Q 2688 -1331 1869 -1331 
Q 1566 -1331 1297 -1286 
Q 1028 -1241 775 -1147 
L 775 -588 
Q 1028 -725 1275 -790 
Q 1522 -856 1778 -856 
Q 2344 -856 2625 -561 
Q 2906 -266 2906 331 
L 2906 616 
Q 2728 306 2450 153 
Q 2172 0 1784 0 
Q 1141 0 747 490 
Q 353 981 353 1791 
Q 353 2603 747 3093 
Q 1141 3584 1784 3584 
Q 2172 3584 2450 3431 
Q 2728 3278 2906 2969 
L 2906 3500 
L 3481 3500 
L 3481 434 
z
" transform="scale(0.015625)"/>
       <path id="DejaVuSans-73" d="M 2834 3397 
L 2834 2853 
Q 2591 2978 2328 3040 
Q 2066 3103 1784 3103 
Q 1356 3103 1142 2972 
Q 928 2841 928 2578 
Q 928 2378 1081 2264 
Q 1234 2150 1697 2047 
L 1894 2003 
Q 2506 1872 2764 1633 
Q 3022 1394 3022 966 
Q 3022 478 2636 193 
Q 2250 -91 1575 -91 
Q 1294 -91 989 -36 
Q 684 19 347 128 
L 347 722 
Q 666 556 975 473 
Q 1284 391 1588 391 
Q 1994 391 2212 530 
Q 2431 669 2431 922 
Q 2431 1156 2273 1281 
Q 2116 1406 1581 1522 
L 1381 1569 
Q 847 1681 609 1914 
Q 372 2147 372 2553 
Q 372 3047 722 3315 
Q 1072 3584 1716 3584 
Q 2034 3584 2315 3537 
Q 2597 3491 2834 3397 
z
" transform="scale(0.015625)"/>
      </defs>
      <use xlink:href="#DejaVuSans-Oblique-70"/>
      <use xlink:href="#DejaVuSans-67" transform="translate(63.476562 -16.40625) scale(0.7)"/>
      <use xlink:href="#DejaVuSans-73" transform="translate(107.910156 -16.40625) scale(0.7)"/>
     </g>
    </g>
   </g>
   <g id="line2d_39">
    <path d="M 308.56054 98.588182 
L 310.675897 98.575296 
L 312.791255 98.55215 
L 314.906612 98.508856 
L 317.02197 98.432826 
L 319.137328 98.308007 
L 321.252685 98.116493 
L 323.368043 97.841184 
L 325.4834 97.468972 
L 327.598758 96.993863 
L 329.714116 96.418626 
L 331.829473 95.753345 
L 333.944831 95.010208 
L 336.060188 94.196577 
L 338.175546 93.310489 
L 340.290903 92.341994 
L 342.406261 91.279898 
L 344.521619 90.119578 
L 346.636976 88.868718 
L 348.752334 87.549344 
L 350.867691 86.196266 
L 352.983049 84.85068 
L 355.098406 83.552037 
L 357.213764 82.331898 
L 359.329122 81.211788 
L 361.444479 80.205431 
L 363.559837 79.322707 
L 365.675194 78.573358 
L 367.790552 77.968528 
L 369.905909 77.519538 
L 372.021267 77.235753 
L 374.136625 77.122321 
L 376.251982 77.177843 
L 378.36734 77.394165 
L 380.482697 77.757253 
L 382.598055 78.248816 
L 384.713413 78.848532 
L 386.82877 79.535426 
L 388.944128 80.288914 
L 391.059485 81.089432 
L 393.174843 81.917995 
L 395.2902 82.757318 
L 397.405558 83.591819 
L 399.520916 84.409632 
L 401.636273 85.202612 
L 403.751631 85.967043 
L 405.866988 86.703153 
L 407.982346 87.414475 
L 410.097703 88.10679 
L 412.213061 88.787174 
L 414.328419 89.463056 
" clip-path="url(#pf95107bf34)" style="fill: none; stroke: #616c8c; stroke-width: 1.5; stroke-linecap: square"/>
   </g>
   <g id="patch_25">
    <path d="M 303.272146 102.94 
L 303.272146 7.2 
" style="fill: none; stroke: #000000; stroke-width: 0.8; stroke-linejoin: miter; stroke-linecap: square"/>
   </g>
   <g id="patch_26">
    <path d="M 419.616813 102.94 
L 419.616813 7.2 
" style="fill: none; stroke: #000000; stroke-width: 0.8; stroke-linejoin: miter; stroke-linecap: square"/>
   </g>
   <g id="patch_27">
    <path d="M 303.272146 102.94 
L 419.616813 102.94 
" style="fill: none; stroke: #000000; stroke-width: 0.8; stroke-linejoin: miter; stroke-linecap: square"/>
   </g>
   <g id="patch_28">
    <path d="M 303.272146 7.2 
L 419.616813 7.2 
" style="fill: none; stroke: #000000; stroke-width: 0.8; stroke-linejoin: miter; stroke-linecap: square"/>
   </g>
  </g>
 </g>
 <defs>
  <clipPath id="p2c55f7d128">
   <rect x="48.982813" y="7.2" width="116.344667" height="95.74"/>
  </clipPath>
  <clipPath id="p0e750f3115">
   <rect x="176.127479" y="7.2" width="116.344667" height="95.74"/>
  </clipPath>
  <clipPath id="pf95107bf34">
   <rect x="303.272146" y="7.2" width="116.344667" height="95.74"/>
  </clipPath>
 </defs>
</svg>
