<?xml version="1.0" encoding="utf-8" standalone="no"?>
<!DOCTYPE svg PUBLIC "-//W3C//DTD SVG 1.1//EN"
  "http://www.w3.org/Graphics/SVG/1.1/DTD/svg11.dtd">
<svg xmlns:xlink="http://www.w3.org/1999/xlink" width="432pt" height="216pt" viewBox="0 0 432 216" xmlns="http://www.w3.org/2000/svg" version="1.1">
 <metadata>
  <rdf:RDF xmlns:dc="http://purl.org/dc/elements/1.1/" xmlns:cc="http://creativecommons.org/ns#" xmlns:rdf="http://www.w3.org/1999/02/22-rdf-syntax-ns#">
   <cc:Work>
    <dc:type rdf:resource="http://purl.org/dc/dcmitype/StillImage"/>
    <dc:date>2025-04-13T06:27:04.962198</dc:date>
    <dc:format>image/svg+xml</dc:format>
    <dc:creator>
     <cc:Agent>
      <dc:title>Matplotlib v3.9.3, https://matplotlib.org/</dc:title>
     </cc:Agent>
    </dc:creator>
   </cc:Work>
  </rdf:RDF>
 </metadata>
 <defs>
  <style type="text/css">*{stroke-linejoin: round; stroke-linecap: butt}</style>
 </defs>
 <g id="figure_1">
  <g id="patch_1">
   <path d="M 0 216 
L 432 216 
L 432 0 
L 0 0 
z
" style="fill: #ffffff"/>
  </g>
  <g id="axes_1">
   <g id="patch_2">
    <path d="M 63.47 185.24 
L 421.2 185.24 
L 421.2 10.8 
L 63.47 10.8 
z
" style="fill: #ffffff"/>
   </g>
   <g id="patch_3">
    <path d="M 123.091667 616.635617 
L 123.091667 616.635617 
L 123.091667 616.635617 
L 123.091667 616.635617 
z
" clip-path="url(#pe84ace1d86)" style="fill: #c16530; stroke: #444444; stroke-linejoin: miter"/>
   </g>
   <g id="patch_4">
    <path d="M 123.091667 616.635617 
L 123.091667 616.635617 
L 123.091667 616.635617 
L 123.091667 616.635617 
z
" clip-path="url(#pe84ace1d86)" style="fill: #e3d488; stroke: #444444; stroke-linejoin: miter"/>
   </g>
   <g id="patch_5">
    <path d="M 123.091667 616.635617 
L 123.091667 616.635617 
L 123.091667 616.635617 
L 123.091667 616.635617 
z
" clip-path="url(#pe84ace1d86)" style="fill: #b3cea2; stroke: #444444; stroke-linejoin: miter"/>
   </g>
   <g id="patch_6">
    <path d="M 123.091667 616.635617 
L 123.091667 616.635617 
L 123.091667 616.635617 
L 123.091667 616.635617 
z
" clip-path="url(#pe84ace1d86)" style="fill: #5d8582; stroke: #444444; stroke-linejoin: miter"/>
   </g>
   <g id="patch_7">
    <path d="M 123.091667 616.635617 
L 123.091667 616.635617 
L 123.091667 616.635617 
L 123.091667 616.635617 
z
" clip-path="url(#pe84ace1d86)" style="fill: #666f87; stroke: #444444; stroke-linejoin: miter"/>
   </g>
   <g id="matplotlib.axis_1">
    <g id="xtick_1">
     <g id="line2d_1">
      <defs>
       <path id="m3879df66a9" d="M 0 0 
L 0 3.5 
" style="stroke: #000000; stroke-width: 0.8"/>
      </defs>
      <g>
       <use xlink:href="#m3879df66a9" x="123.091667" y="185.24" style="stroke: #000000; stroke-width: 0.8"/>
      </g>
     </g>
     <g id="text_1">
      <!-- AWQV(P2A) -->
      <g transform="translate(88.335729 201.358125) scale(0.12 -0.12)">
       <defs>
        <path id="DejaVuSans-41" d="M 2188 4044 
L 1331 1722 
L 3047 1722 
L 2188 4044 
z
M 1831 4666 
L 2547 4666 
L 4325 0 
L 3669 0 
L 3244 1197 
L 1141 1197 
L 716 0 
L 50 0 
L 1831 4666 
z
" transform="scale(0.015625)"/>
        <path id="DejaVuSans-57" d="M 213 4666 
L 850 4666 
L 1831 722 
L 2809 4666 
L 3519 4666 
L 4500 722 
L 5478 4666 
L 6119 4666 
L 4947 0 
L 4153 0 
L 3169 4050 
L 2175 0 
L 1381 0 
L 213 4666 
z
" transform="scale(0.015625)"/>
        <path id="DejaVuSans-51" d="M 2522 4238 
Q 1834 4238 1429 3725 
Q 1025 3213 1025 2328 
Q 1025 1447 1429 934 
Q 1834 422 2522 422 
Q 3209 422 3611 934 
Q 4013 1447 4013 2328 
Q 4013 3213 3611 3725 
Q 3209 4238 2522 4238 
z
M 3406 84 
L 4238 -825 
L 3475 -825 
L 2784 -78 
Q 2681 -84 2626 -87 
Q 2572 -91 2522 -91 
Q 1538 -91 948 567 
Q 359 1225 359 2328 
Q 359 3434 948 4092 
Q 1538 4750 2522 4750 
Q 3503 4750 4090 4092 
Q 4678 3434 4678 2328 
Q 4678 1516 4351 937 
Q 4025 359 3406 84 
z
" transform="scale(0.015625)"/>
        <path id="DejaVuSans-56" d="M 1831 0 
L 50 4666 
L 709 4666 
L 2188 738 
L 3669 4666 
L 4325 4666 
L 2547 0 
L 1831 0 
z
" transform="scale(0.015625)"/>
        <path id="DejaVuSans-28" d="M 1984 4856 
Q 1566 4138 1362 3434 
Q 1159 2731 1159 2009 
Q 1159 1288 1364 580 
Q 1569 -128 1984 -844 
L 1484 -844 
Q 1016 -109 783 600 
Q 550 1309 550 2009 
Q 550 2706 781 3412 
Q 1013 4119 1484 4856 
L 1984 4856 
z
" transform="scale(0.015625)"/>
        <path id="DejaVuSans-50" d="M 1259 4147 
L 1259 2394 
L 2053 2394 
Q 2494 2394 2734 2622 
Q 2975 2850 2975 3272 
Q 2975 3691 2734 3919 
Q 2494 4147 2053 4147 
L 1259 4147 
z
M 628 4666 
L 2053 4666 
Q 2838 4666 3239 4311 
Q 3641 3956 3641 3272 
Q 3641 2581 3239 2228 
Q 2838 1875 2053 1875 
L 1259 1875 
L 1259 0 
L 628 0 
L 628 4666 
z
" transform="scale(0.015625)"/>
        <path id="DejaVuSans-32" d="M 1228 531 
L 3431 531 
L 3431 0 
L 469 0 
L 469 531 
Q 828 903 1448 1529 
Q 2069 2156 2228 2338 
Q 2531 2678 2651 2914 
Q 2772 3150 2772 3378 
Q 2772 3750 2511 3984 
Q 2250 4219 1831 4219 
Q 1534 4219 1204 4116 
Q 875 4013 500 3803 
L 500 4441 
Q 881 4594 1212 4672 
Q 1544 4750 1819 4750 
Q 2544 4750 2975 4387 
Q 3406 4025 3406 3419 
Q 3406 3131 3298 2873 
Q 3191 2616 2906 2266 
Q 2828 2175 2409 1742 
Q 1991 1309 1228 531 
z
" transform="scale(0.015625)"/>
        <path id="DejaVuSans-29" d="M 513 4856 
L 1013 4856 
Q 1481 4119 1714 3412 
Q 1947 2706 1947 2009 
Q 1947 1309 1714 600 
Q 1481 -109 1013 -844 
L 513 -844 
Q 928 -128 1133 580 
Q 1338 1288 1338 2009 
Q 1338 2731 1133 3434 
Q 928 4138 513 4856 
z
" transform="scale(0.015625)"/>
       </defs>
       <use xlink:href="#DejaVuSans-41"/>
       <use xlink:href="#DejaVuSans-57" x="62.908203"/>
       <use xlink:href="#DejaVuSans-51" x="161.785156"/>
       <use xlink:href="#DejaVuSans-56" x="240.496094"/>
       <use xlink:href="#DejaVuSans-28" x="308.904297"/>
       <use xlink:href="#DejaVuSans-50" x="347.917969"/>
       <use xlink:href="#DejaVuSans-32" x="408.220703"/>
       <use xlink:href="#DejaVuSans-41" x="471.84375"/>
       <use xlink:href="#DejaVuSans-29" x="540.251953"/>
      </g>
     </g>
    </g>
    <g id="xtick_2">
     <g id="line2d_2">
      <g>
       <use xlink:href="#m3879df66a9" x="242.335" y="185.24" style="stroke: #000000; stroke-width: 0.8"/>
      </g>
     </g>
     <g id="text_2">
      <!-- AWQV(P2A-ZY) -->
      <g transform="translate(197.774687 201.358125) scale(0.12 -0.12)">
       <defs>
        <path id="DejaVuSans-2d" d="M 313 2009 
L 1997 2009 
L 1997 1497 
L 313 1497 
L 313 2009 
z
" transform="scale(0.015625)"/>
        <path id="DejaVuSans-5a" d="M 359 4666 
L 4025 4666 
L 4025 4184 
L 1075 531 
L 4097 531 
L 4097 0 
L 288 0 
L 288 481 
L 3238 4134 
L 359 4134 
L 359 4666 
z
" transform="scale(0.015625)"/>
        <path id="DejaVuSans-59" d="M -13 4666 
L 666 4666 
L 1959 2747 
L 3244 4666 
L 3922 4666 
L 2272 2222 
L 2272 0 
L 1638 0 
L 1638 2222 
L -13 4666 
z
" transform="scale(0.015625)"/>
       </defs>
       <use xlink:href="#DejaVuSans-41"/>
       <use xlink:href="#DejaVuSans-57" x="62.908203"/>
       <use xlink:href="#DejaVuSans-51" x="161.785156"/>
       <use xlink:href="#DejaVuSans-56" x="240.496094"/>
       <use xlink:href="#DejaVuSans-28" x="308.904297"/>
       <use xlink:href="#DejaVuSans-50" x="347.917969"/>
       <use xlink:href="#DejaVuSans-32" x="408.220703"/>
       <use xlink:href="#DejaVuSans-41" x="471.84375"/>
       <use xlink:href="#DejaVuSans-2d" x="538.001953"/>
       <use xlink:href="#DejaVuSans-5a" x="574.085938"/>
       <use xlink:href="#DejaVuSans-59" x="642.591797"/>
       <use xlink:href="#DejaVuSans-29" x="703.675781"/>
      </g>
     </g>
    </g>
    <g id="xtick_3">
     <g id="line2d_3">
      <g>
       <use xlink:href="#m3879df66a9" x="361.578333" y="185.24" style="stroke: #000000; stroke-width: 0.8"/>
      </g>
     </g>
     <g id="text_3">
      <!-- AWQV(P2A-XY) -->
      <g transform="translate(317.318021 201.358125) scale(0.12 -0.12)">
       <defs>
        <path id="DejaVuSans-58" d="M 403 4666 
L 1081 4666 
L 2241 2931 
L 3406 4666 
L 4084 4666 
L 2584 2425 
L 4184 0 
L 3506 0 
L 2194 1984 
L 872 0 
L 191 0 
L 1856 2491 
L 403 4666 
z
" transform="scale(0.015625)"/>
       </defs>
       <use xlink:href="#DejaVuSans-41"/>
       <use xlink:href="#DejaVuSans-57" x="62.908203"/>
       <use xlink:href="#DejaVuSans-51" x="161.785156"/>
       <use xlink:href="#DejaVuSans-56" x="240.496094"/>
       <use xlink:href="#DejaVuSans-28" x="308.904297"/>
       <use xlink:href="#DejaVuSans-50" x="347.917969"/>
       <use xlink:href="#DejaVuSans-32" x="408.220703"/>
       <use xlink:href="#DejaVuSans-41" x="471.84375"/>
       <use xlink:href="#DejaVuSans-2d" x="538.001953"/>
       <use xlink:href="#DejaVuSans-58" x="569.085938"/>
       <use xlink:href="#DejaVuSans-59" x="637.591797"/>
       <use xlink:href="#DejaVuSans-29" x="698.675781"/>
      </g>
     </g>
    </g>
   </g>
   <g id="matplotlib.axis_2">
    <g id="ytick_1">
     <g id="line2d_4">
      <path d="M 63.47 138.310396 
L 421.2 138.310396 
" clip-path="url(#pe84ace1d86)" style="fill: none; stroke: #b0b0b0; stroke-width: 0.8; stroke-linecap: square"/>
     </g>
     <g id="line2d_5">
      <defs>
       <path id="m5e1264d771" d="M 0 0 
L -3.5 0 
" style="stroke: #000000; stroke-width: 0.8"/>
      </defs>
      <g>
       <use xlink:href="#m5e1264d771" x="63.47" y="138.310396" style="stroke: #000000; stroke-width: 0.8"/>
      </g>
     </g>
     <g id="text_4">
      <!-- 0.80 -->
      <g transform="translate(29.75125 142.869459) scale(0.12 -0.12)">
       <defs>
        <path id="DejaVuSans-30" d="M 2034 4250 
Q 1547 4250 1301 3770 
Q 1056 3291 1056 2328 
Q 1056 1369 1301 889 
Q 1547 409 2034 409 
Q 2525 409 2770 889 
Q 3016 1369 3016 2328 
Q 3016 3291 2770 3770 
Q 2525 4250 2034 4250 
z
M 2034 4750 
Q 2819 4750 3233 4129 
Q 3647 3509 3647 2328 
Q 3647 1150 3233 529 
Q 2819 -91 2034 -91 
Q 1250 -91 836 529 
Q 422 1150 422 2328 
Q 422 3509 836 4129 
Q 1250 4750 2034 4750 
z
" transform="scale(0.015625)"/>
        <path id="DejaVuSans-2e" d="M 684 794 
L 1344 794 
L 1344 0 
L 684 0 
L 684 794 
z
" transform="scale(0.015625)"/>
        <path id="DejaVuSans-38" d="M 2034 2216 
Q 1584 2216 1326 1975 
Q 1069 1734 1069 1313 
Q 1069 891 1326 650 
Q 1584 409 2034 409 
Q 2484 409 2743 651 
Q 3003 894 3003 1313 
Q 3003 1734 2745 1975 
Q 2488 2216 2034 2216 
z
M 1403 2484 
Q 997 2584 770 2862 
Q 544 3141 544 3541 
Q 544 4100 942 4425 
Q 1341 4750 2034 4750 
Q 2731 4750 3128 4425 
Q 3525 4100 3525 3541 
Q 3525 3141 3298 2862 
Q 3072 2584 2669 2484 
Q 3125 2378 3379 2068 
Q 3634 1759 3634 1313 
Q 3634 634 3220 271 
Q 2806 -91 2034 -91 
Q 1263 -91 848 271 
Q 434 634 434 1313 
Q 434 1759 690 2068 
Q 947 2378 1403 2484 
z
M 1172 3481 
Q 1172 3119 1398 2916 
Q 1625 2713 2034 2713 
Q 2441 2713 2670 2916 
Q 2900 3119 2900 3481 
Q 2900 3844 2670 4047 
Q 2441 4250 2034 4250 
Q 1625 4250 1398 4047 
Q 1172 3844 1172 3481 
z
" transform="scale(0.015625)"/>
       </defs>
       <use xlink:href="#DejaVuSans-30"/>
       <use xlink:href="#DejaVuSans-2e" x="63.623047"/>
       <use xlink:href="#DejaVuSans-38" x="95.410156"/>
       <use xlink:href="#DejaVuSans-30" x="159.033203"/>
      </g>
     </g>
    </g>
    <g id="ytick_2">
     <g id="line2d_6">
      <path d="M 63.47 114.394135 
L 421.2 114.394135 
" clip-path="url(#pe84ace1d86)" style="fill: none; stroke: #b0b0b0; stroke-width: 0.8; stroke-linecap: square"/>
     </g>
     <g id="line2d_7">
      <g>
       <use xlink:href="#m5e1264d771" x="63.47" y="114.394135" style="stroke: #000000; stroke-width: 0.8"/>
      </g>
     </g>
     <g id="text_5">
      <!-- 0.84 -->
      <g transform="translate(29.75125 118.953198) scale(0.12 -0.12)">
       <defs>
        <path id="DejaVuSans-34" d="M 2419 4116 
L 825 1625 
L 2419 1625 
L 2419 4116 
z
M 2253 4666 
L 3047 4666 
L 3047 1625 
L 3713 1625 
L 3713 1100 
L 3047 1100 
L 3047 0 
L 2419 0 
L 2419 1100 
L 313 1100 
L 313 1709 
L 2253 4666 
z
" transform="scale(0.015625)"/>
       </defs>
       <use xlink:href="#DejaVuSans-30"/>
       <use xlink:href="#DejaVuSans-2e" x="63.623047"/>
       <use xlink:href="#DejaVuSans-38" x="95.410156"/>
       <use xlink:href="#DejaVuSans-34" x="159.033203"/>
      </g>
     </g>
    </g>
    <g id="ytick_3">
     <g id="line2d_8">
      <path d="M 63.47 90.477874 
L 421.2 90.477874 
" clip-path="url(#pe84ace1d86)" style="fill: none; stroke: #b0b0b0; stroke-width: 0.8; stroke-linecap: square"/>
     </g>
     <g id="line2d_9">
      <g>
       <use xlink:href="#m5e1264d771" x="63.47" y="90.477874" style="stroke: #000000; stroke-width: 0.8"/>
      </g>
     </g>
     <g id="text_6">
      <!-- 0.88 -->
      <g transform="translate(29.75125 95.036937) scale(0.12 -0.12)">
       <use xlink:href="#DejaVuSans-30"/>
       <use xlink:href="#DejaVuSans-2e" x="63.623047"/>
       <use xlink:href="#DejaVuSans-38" x="95.410156"/>
       <use xlink:href="#DejaVuSans-38" x="159.033203"/>
      </g>
     </g>
    </g>
    <g id="ytick_4">
     <g id="line2d_10">
      <path d="M 63.47 66.561613 
L 421.2 66.561613 
" clip-path="url(#pe84ace1d86)" style="fill: none; stroke: #b0b0b0; stroke-width: 0.8; stroke-linecap: square"/>
     </g>
     <g id="line2d_11">
      <g>
       <use xlink:href="#m5e1264d771" x="63.47" y="66.561613" style="stroke: #000000; stroke-width: 0.8"/>
      </g>
     </g>
     <g id="text_7">
      <!-- 0.92 -->
      <g transform="translate(29.75125 71.120676) scale(0.12 -0.12)">
       <defs>
        <path id="DejaVuSans-39" d="M 703 97 
L 703 672 
Q 941 559 1184 500 
Q 1428 441 1663 441 
Q 2288 441 2617 861 
Q 2947 1281 2994 2138 
Q 2813 1869 2534 1725 
Q 2256 1581 1919 1581 
Q 1219 1581 811 2004 
Q 403 2428 403 3163 
Q 403 3881 828 4315 
Q 1253 4750 1959 4750 
Q 2769 4750 3195 4129 
Q 3622 3509 3622 2328 
Q 3622 1225 3098 567 
Q 2575 -91 1691 -91 
Q 1453 -91 1209 -44 
Q 966 3 703 97 
z
M 1959 2075 
Q 2384 2075 2632 2365 
Q 2881 2656 2881 3163 
Q 2881 3666 2632 3958 
Q 2384 4250 1959 4250 
Q 1534 4250 1286 3958 
Q 1038 3666 1038 3163 
Q 1038 2656 1286 2365 
Q 1534 2075 1959 2075 
z
" transform="scale(0.015625)"/>
       </defs>
       <use xlink:href="#DejaVuSans-30"/>
       <use xlink:href="#DejaVuSans-2e" x="63.623047"/>
       <use xlink:href="#DejaVuSans-39" x="95.410156"/>
       <use xlink:href="#DejaVuSans-32" x="159.033203"/>
      </g>
     </g>
    </g>
    <g id="ytick_5">
     <g id="line2d_12">
      <path d="M 63.47 42.645352 
L 421.2 42.645352 
" clip-path="url(#pe84ace1d86)" style="fill: none; stroke: #b0b0b0; stroke-width: 0.8; stroke-linecap: square"/>
     </g>
     <g id="line2d_13">
      <g>
       <use xlink:href="#m5e1264d771" x="63.47" y="42.645352" style="stroke: #000000; stroke-width: 0.8"/>
      </g>
     </g>
     <g id="text_8">
      <!-- 0.96 -->
      <g transform="translate(29.75125 47.204414) scale(0.12 -0.12)">
       <defs>
        <path id="DejaVuSans-36" d="M 2113 2584 
Q 1688 2584 1439 2293 
Q 1191 2003 1191 1497 
Q 1191 994 1439 701 
Q 1688 409 2113 409 
Q 2538 409 2786 701 
Q 3034 994 3034 1497 
Q 3034 2003 2786 2293 
Q 2538 2584 2113 2584 
z
M 3366 4563 
L 3366 3988 
Q 3128 4100 2886 4159 
Q 2644 4219 2406 4219 
Q 1781 4219 1451 3797 
Q 1122 3375 1075 2522 
Q 1259 2794 1537 2939 
Q 1816 3084 2150 3084 
Q 2853 3084 3261 2657 
Q 3669 2231 3669 1497 
Q 3669 778 3244 343 
Q 2819 -91 2113 -91 
Q 1303 -91 875 529 
Q 447 1150 447 2328 
Q 447 3434 972 4092 
Q 1497 4750 2381 4750 
Q 2619 4750 2861 4703 
Q 3103 4656 3366 4563 
z
" transform="scale(0.015625)"/>
       </defs>
       <use xlink:href="#DejaVuSans-30"/>
       <use xlink:href="#DejaVuSans-2e" x="63.623047"/>
       <use xlink:href="#DejaVuSans-39" x="95.410156"/>
       <use xlink:href="#DejaVuSans-36" x="159.033203"/>
      </g>
     </g>
    </g>
    <g id="ytick_6">
     <g id="line2d_14">
      <path d="M 63.47 18.729091 
L 421.2 18.729091 
" clip-path="url(#pe84ace1d86)" style="fill: none; stroke: #b0b0b0; stroke-width: 0.8; stroke-linecap: square"/>
     </g>
     <g id="line2d_15">
      <g>
       <use xlink:href="#m5e1264d771" x="63.47" y="18.729091" style="stroke: #000000; stroke-width: 0.8"/>
      </g>
     </g>
     <g id="text_9">
      <!-- 1.00 -->
      <g transform="translate(29.75125 23.288153) scale(0.12 -0.12)">
       <defs>
        <path id="DejaVuSans-31" d="M 794 531 
L 1825 531 
L 1825 4091 
L 703 3866 
L 703 4441 
L 1819 4666 
L 2450 4666 
L 2450 531 
L 3481 531 
L 3481 0 
L 794 0 
L 794 531 
z
" transform="scale(0.015625)"/>
       </defs>
       <use xlink:href="#DejaVuSans-31"/>
       <use xlink:href="#DejaVuSans-2e" x="63.623047"/>
       <use xlink:href="#DejaVuSans-30" x="95.410156"/>
       <use xlink:href="#DejaVuSans-30" x="159.033203"/>
      </g>
     </g>
    </g>
    <g id="text_10">
     <!-- $\mathbb{E}_M[\alpha]$ -->
     <g transform="translate(23.255625 114.34) rotate(-90) scale(0.12 -0.12)">
      <defs>
       <path id="STIXNonUnicode-Italic-e156" d="M 4250 4179 
L 4192 3942 
L 2150 3942 
L 1709 2266 
L 3514 2266 
L 3443 2029 
L 1645 2029 
L 1165 237 
L 3443 237 
L 3392 0 
L 109 0 
L 1229 4179 
L 4250 4179 
z
M 1914 3942 
L 1414 3942 
L 416 237 
L 928 237 
L 1914 3942 
z
" transform="scale(0.015625)"/>
       <path id="DejaVuSans-Oblique-4d" d="M 1081 4666 
L 2028 4666 
L 2572 1522 
L 4378 4666 
L 5350 4666 
L 4441 0 
L 3828 0 
L 4622 4091 
L 2791 897 
L 2175 897 
L 1581 4103 
L 788 0 
L 172 0 
L 1081 4666 
z
" transform="scale(0.015625)"/>
       <path id="DejaVuSans-5b" d="M 550 4863 
L 1875 4863 
L 1875 4416 
L 1125 4416 
L 1125 -397 
L 1875 -397 
L 1875 -844 
L 550 -844 
L 550 4863 
z
" transform="scale(0.015625)"/>
       <path id="DejaVuSans-Oblique-3b1" d="M 2619 1628 
L 2622 2350 
Q 2625 3088 2069 3091 
Q 1653 3094 1394 2747 
Q 1069 2319 959 1747 
Q 825 1059 994 731 
Q 1169 397 1547 397 
Q 1966 397 2319 1063 
L 2619 1628 
z
M 2166 3578 
Q 3141 3594 3128 2584 
Q 3128 2584 3616 3500 
L 4128 3500 
L 3119 1603 
L 3109 919 
Q 3109 766 3194 638 
Q 3291 488 3391 488 
L 3669 488 
L 3575 0 
L 3228 0 
Q 2934 0 2722 263 
Q 2622 394 2619 669 
Q 2416 334 2066 50 
Q 1900 -81 1453 -78 
Q 722 -72 456 397 
Q 184 884 353 1747 
Q 534 2675 1009 3097 
Q 1544 3569 2166 3578 
z
" transform="scale(0.015625)"/>
       <path id="DejaVuSans-5d" d="M 1947 4863 
L 1947 -844 
L 622 -844 
L 622 -397 
L 1369 -397 
L 1369 4416 
L 622 4416 
L 622 4863 
L 1947 4863 
z
" transform="scale(0.015625)"/>
      </defs>
      <use xlink:href="#STIXNonUnicode-Italic-e156" transform="translate(0 0.015625)"/>
      <use xlink:href="#DejaVuSans-Oblique-4d" transform="translate(64.857025 -16.390625) scale(0.7)"/>
      <use xlink:href="#DejaVuSans-5b" transform="translate(127.986908 0.015625)"/>
      <use xlink:href="#DejaVuSans-Oblique-3b1" transform="translate(167.00058 0.015625)"/>
      <use xlink:href="#DejaVuSans-5d" transform="translate(232.918549 0.015625)"/>
     </g>
    </g>
   </g>
   <g id="patch_8">
    <path d="M 75.394333 18.959118 
L 94.473267 18.959118 
L 94.473267 18.735794 
L 75.394333 18.735794 
L 75.394333 18.959118 
z
" clip-path="url(#pe84ace1d86)" style="fill: #c16530; stroke: #444444; stroke-linejoin: miter"/>
   </g>
   <g id="line2d_16">
    <path d="M 84.9338 18.959118 
L 84.9338 19.183661 
" clip-path="url(#pe84ace1d86)" style="fill: none; stroke: #444444"/>
   </g>
   <g id="line2d_17">
    <path d="M 84.9338 18.735794 
L 84.9338 18.730231 
" clip-path="url(#pe84ace1d86)" style="fill: none; stroke: #444444"/>
   </g>
   <g id="line2d_18">
    <path d="M 80.164067 19.183661 
L 89.703533 19.183661 
" clip-path="url(#pe84ace1d86)" style="fill: none; stroke: #444444; stroke-linecap: square"/>
   </g>
   <g id="line2d_19">
    <path d="M 80.164067 18.730231 
L 89.703533 18.730231 
" clip-path="url(#pe84ace1d86)" style="fill: none; stroke: #444444; stroke-linecap: square"/>
   </g>
   <g id="line2d_20">
    <defs>
     <path id="md8d8893121" d="M 0 2.5 
C 0.663008 2.5 1.29895 2.236584 1.767767 1.767767 
C 2.236584 1.29895 2.5 0.663008 2.5 0 
C 2.5 -0.663008 2.236584 -1.29895 1.767767 -1.767767 
C 1.29895 -2.236584 0.663008 -2.5 0 -2.5 
C -0.663008 -2.5 -1.29895 -2.236584 -1.767767 -1.767767 
C -2.236584 -1.29895 -2.5 -0.663008 -2.5 0 
C -2.5 0.663008 -2.236584 1.29895 -1.767767 1.767767 
C -1.29895 2.236584 -0.663008 2.5 0 2.5 
z
" style="stroke: #000000; stroke-opacity: 0.65"/>
    </defs>
    <g clip-path="url(#pe84ace1d86)">
     <use xlink:href="#md8d8893121" x="84.9338" y="19.5039" style="fill-opacity: 0; stroke: #000000; stroke-opacity: 0.65"/>
     <use xlink:href="#md8d8893121" x="84.9338" y="19.652206" style="fill-opacity: 0; stroke: #000000; stroke-opacity: 0.65"/>
     <use xlink:href="#md8d8893121" x="84.9338" y="19.467054" style="fill-opacity: 0; stroke: #000000; stroke-opacity: 0.65"/>
     <use xlink:href="#md8d8893121" x="84.9338" y="29.562303" style="fill-opacity: 0; stroke: #000000; stroke-opacity: 0.65"/>
     <use xlink:href="#md8d8893121" x="84.9338" y="19.322792" style="fill-opacity: 0; stroke: #000000; stroke-opacity: 0.65"/>
     <use xlink:href="#md8d8893121" x="84.9338" y="19.928124" style="fill-opacity: 0; stroke: #000000; stroke-opacity: 0.65"/>
     <use xlink:href="#md8d8893121" x="84.9338" y="19.898484" style="fill-opacity: 0; stroke: #000000; stroke-opacity: 0.65"/>
    </g>
   </g>
   <g id="patch_9">
    <path d="M 194.637667 33.212689 
L 213.7166 33.212689 
L 213.7166 19.455442 
L 194.637667 19.455442 
L 194.637667 33.212689 
z
" clip-path="url(#pe84ace1d86)" style="fill: #c16530; stroke: #444444; stroke-linejoin: miter"/>
   </g>
   <g id="line2d_21">
    <path d="M 204.177133 33.212689 
L 204.177133 43.542889 
" clip-path="url(#pe84ace1d86)" style="fill: none; stroke: #444444"/>
   </g>
   <g id="line2d_22">
    <path d="M 204.177133 19.455442 
L 204.177133 18.872963 
" clip-path="url(#pe84ace1d86)" style="fill: none; stroke: #444444"/>
   </g>
   <g id="line2d_23">
    <path d="M 199.4074 43.542889 
L 208.946867 43.542889 
" clip-path="url(#pe84ace1d86)" style="fill: none; stroke: #444444; stroke-linecap: square"/>
   </g>
   <g id="line2d_24">
    <path d="M 199.4074 18.872963 
L 208.946867 18.872963 
" clip-path="url(#pe84ace1d86)" style="fill: none; stroke: #444444; stroke-linecap: square"/>
   </g>
   <g id="line2d_25">
    <g clip-path="url(#pe84ace1d86)">
     <use xlink:href="#md8d8893121" x="204.177133" y="63.423453" style="fill-opacity: 0; stroke: #000000; stroke-opacity: 0.65"/>
    </g>
   </g>
   <g id="patch_10">
    <path d="M 313.881 136.641636 
L 332.959933 136.641636 
L 332.959933 44.912694 
L 313.881 44.912694 
L 313.881 136.641636 
z
" clip-path="url(#pe84ace1d86)" style="fill: #c16530; stroke: #444444; stroke-linejoin: miter"/>
   </g>
   <g id="line2d_26">
    <path d="M 323.420467 136.641636 
L 323.420467 177.310909 
" clip-path="url(#pe84ace1d86)" style="fill: none; stroke: #444444"/>
   </g>
   <g id="line2d_27">
    <path d="M 323.420467 44.912694 
L 323.420467 22.89697 
" clip-path="url(#pe84ace1d86)" style="fill: none; stroke: #444444"/>
   </g>
   <g id="line2d_28">
    <path d="M 318.650733 177.310909 
L 328.1902 177.310909 
" clip-path="url(#pe84ace1d86)" style="fill: none; stroke: #444444; stroke-linecap: square"/>
   </g>
   <g id="line2d_29">
    <path d="M 318.650733 22.89697 
L 328.1902 22.89697 
" clip-path="url(#pe84ace1d86)" style="fill: none; stroke: #444444; stroke-linecap: square"/>
   </g>
   <g id="line2d_30"/>
   <g id="patch_11">
    <path d="M 94.473267 18.729675 
L 113.5522 18.729675 
L 113.5522 18.729091 
L 94.473267 18.729091 
L 94.473267 18.729675 
z
" clip-path="url(#pe84ace1d86)" style="fill: #e3d488; stroke: #444444; stroke-linejoin: miter"/>
   </g>
   <g id="line2d_31">
    <path d="M 104.012733 18.729675 
L 104.012733 18.730542 
" clip-path="url(#pe84ace1d86)" style="fill: none; stroke: #444444"/>
   </g>
   <g id="line2d_32">
    <path d="M 104.012733 18.729091 
L 104.012733 18.729091 
" clip-path="url(#pe84ace1d86)" style="fill: none; stroke: #444444"/>
   </g>
   <g id="line2d_33">
    <path d="M 99.243 18.730542 
L 108.782467 18.730542 
" clip-path="url(#pe84ace1d86)" style="fill: none; stroke: #444444; stroke-linecap: square"/>
   </g>
   <g id="line2d_34">
    <path d="M 99.243 18.729091 
L 108.782467 18.729091 
" clip-path="url(#pe84ace1d86)" style="fill: none; stroke: #444444; stroke-linecap: square"/>
   </g>
   <g id="line2d_35">
    <g clip-path="url(#pe84ace1d86)">
     <use xlink:href="#md8d8893121" x="104.012733" y="18.736244" style="fill-opacity: 0; stroke: #000000; stroke-opacity: 0.65"/>
     <use xlink:href="#md8d8893121" x="104.012733" y="18.738007" style="fill-opacity: 0; stroke: #000000; stroke-opacity: 0.65"/>
     <use xlink:href="#md8d8893121" x="104.012733" y="18.736219" style="fill-opacity: 0; stroke: #000000; stroke-opacity: 0.65"/>
     <use xlink:href="#md8d8893121" x="104.012733" y="18.731315" style="fill-opacity: 0; stroke: #000000; stroke-opacity: 0.65"/>
     <use xlink:href="#md8d8893121" x="104.012733" y="19.734824" style="fill-opacity: 0; stroke: #000000; stroke-opacity: 0.65"/>
     <use xlink:href="#md8d8893121" x="104.012733" y="18.73371" style="fill-opacity: 0; stroke: #000000; stroke-opacity: 0.65"/>
     <use xlink:href="#md8d8893121" x="104.012733" y="18.749904" style="fill-opacity: 0; stroke: #000000; stroke-opacity: 0.65"/>
     <use xlink:href="#md8d8893121" x="104.012733" y="18.742413" style="fill-opacity: 0; stroke: #000000; stroke-opacity: 0.65"/>
     <use xlink:href="#md8d8893121" x="104.012733" y="18.730651" style="fill-opacity: 0; stroke: #000000; stroke-opacity: 0.65"/>
    </g>
   </g>
   <g id="patch_12">
    <path d="M 213.7166 25.852364 
L 232.795533 25.852364 
L 232.795533 18.733363 
L 213.7166 18.733363 
L 213.7166 25.852364 
z
" clip-path="url(#pe84ace1d86)" style="fill: #e3d488; stroke: #444444; stroke-linejoin: miter"/>
   </g>
   <g id="line2d_36">
    <path d="M 223.256067 25.852364 
L 223.256067 27.493081 
" clip-path="url(#pe84ace1d86)" style="fill: none; stroke: #444444"/>
   </g>
   <g id="line2d_37">
    <path d="M 223.256067 18.733363 
L 223.256067 18.729271 
" clip-path="url(#pe84ace1d86)" style="fill: none; stroke: #444444"/>
   </g>
   <g id="line2d_38">
    <path d="M 218.486333 27.493081 
L 228.0258 27.493081 
" clip-path="url(#pe84ace1d86)" style="fill: none; stroke: #444444; stroke-linecap: square"/>
   </g>
   <g id="line2d_39">
    <path d="M 218.486333 18.729271 
L 228.0258 18.729271 
" clip-path="url(#pe84ace1d86)" style="fill: none; stroke: #444444; stroke-linecap: square"/>
   </g>
   <g id="line2d_40">
    <g clip-path="url(#pe84ace1d86)">
     <use xlink:href="#md8d8893121" x="223.256067" y="44.568123" style="fill-opacity: 0; stroke: #000000; stroke-opacity: 0.65"/>
    </g>
   </g>
   <g id="patch_13">
    <path d="M 332.959933 97.245595 
L 352.038867 97.245595 
L 352.038867 31.733732 
L 332.959933 31.733732 
L 332.959933 97.245595 
z
" clip-path="url(#pe84ace1d86)" style="fill: #e3d488; stroke: #444444; stroke-linejoin: miter"/>
   </g>
   <g id="line2d_41">
    <path d="M 342.4994 97.245595 
L 342.4994 139.411897 
" clip-path="url(#pe84ace1d86)" style="fill: none; stroke: #444444"/>
   </g>
   <g id="line2d_42">
    <path d="M 342.4994 31.733732 
L 342.4994 19.173739 
" clip-path="url(#pe84ace1d86)" style="fill: none; stroke: #444444"/>
   </g>
   <g id="line2d_43">
    <path d="M 337.729667 139.411897 
L 347.269133 139.411897 
" clip-path="url(#pe84ace1d86)" style="fill: none; stroke: #444444; stroke-linecap: square"/>
   </g>
   <g id="line2d_44">
    <path d="M 337.729667 19.173739 
L 347.269133 19.173739 
" clip-path="url(#pe84ace1d86)" style="fill: none; stroke: #444444; stroke-linecap: square"/>
   </g>
   <g id="line2d_45"/>
   <g id="patch_14">
    <path d="M 113.5522 18.729091 
L 132.631133 18.729091 
L 132.631133 18.729091 
L 113.5522 18.729091 
L 113.5522 18.729091 
z
" clip-path="url(#pe84ace1d86)" style="fill: #b3cea2; stroke: #444444; stroke-linejoin: miter"/>
   </g>
   <g id="line2d_46">
    <path d="M 123.091667 18.729091 
L 123.091667 18.729091 
" clip-path="url(#pe84ace1d86)" style="fill: none; stroke: #444444"/>
   </g>
   <g id="line2d_47">
    <path d="M 123.091667 18.729091 
L 123.091667 18.729091 
" clip-path="url(#pe84ace1d86)" style="fill: none; stroke: #444444"/>
   </g>
   <g id="line2d_48">
    <path d="M 118.321933 18.729091 
L 127.8614 18.729091 
" clip-path="url(#pe84ace1d86)" style="fill: none; stroke: #444444; stroke-linecap: square"/>
   </g>
   <g id="line2d_49">
    <path d="M 118.321933 18.729091 
L 127.8614 18.729091 
" clip-path="url(#pe84ace1d86)" style="fill: none; stroke: #444444; stroke-linecap: square"/>
   </g>
   <g id="line2d_50">
    <g clip-path="url(#pe84ace1d86)">
     <use xlink:href="#md8d8893121" x="123.091667" y="18.729143" style="fill-opacity: 0; stroke: #000000; stroke-opacity: 0.65"/>
     <use xlink:href="#md8d8893121" x="123.091667" y="18.729298" style="fill-opacity: 0; stroke: #000000; stroke-opacity: 0.65"/>
     <use xlink:href="#md8d8893121" x="123.091667" y="18.729195" style="fill-opacity: 0; stroke: #000000; stroke-opacity: 0.65"/>
     <use xlink:href="#md8d8893121" x="123.091667" y="18.729195" style="fill-opacity: 0; stroke: #000000; stroke-opacity: 0.65"/>
     <use xlink:href="#md8d8893121" x="123.091667" y="18.729205" style="fill-opacity: 0; stroke: #000000; stroke-opacity: 0.65"/>
     <use xlink:href="#md8d8893121" x="123.091667" y="18.729308" style="fill-opacity: 0; stroke: #000000; stroke-opacity: 0.65"/>
     <use xlink:href="#md8d8893121" x="123.091667" y="18.843589" style="fill-opacity: 0; stroke: #000000; stroke-opacity: 0.65"/>
     <use xlink:href="#md8d8893121" x="123.091667" y="18.729262" style="fill-opacity: 0; stroke: #000000; stroke-opacity: 0.65"/>
     <use xlink:href="#md8d8893121" x="123.091667" y="18.729661" style="fill-opacity: 0; stroke: #000000; stroke-opacity: 0.65"/>
     <use xlink:href="#md8d8893121" x="123.091667" y="18.729454" style="fill-opacity: 0; stroke: #000000; stroke-opacity: 0.65"/>
    </g>
   </g>
   <g id="patch_15">
    <path d="M 232.795533 22.216725 
L 251.874467 22.216725 
L 251.874467 18.72913 
L 232.795533 18.72913 
L 232.795533 22.216725 
z
" clip-path="url(#pe84ace1d86)" style="fill: #b3cea2; stroke: #444444; stroke-linejoin: miter"/>
   </g>
   <g id="line2d_51">
    <path d="M 242.335 22.216725 
L 242.335 23.458505 
" clip-path="url(#pe84ace1d86)" style="fill: none; stroke: #444444"/>
   </g>
   <g id="line2d_52">
    <path d="M 242.335 18.72913 
L 242.335 18.729091 
" clip-path="url(#pe84ace1d86)" style="fill: none; stroke: #444444"/>
   </g>
   <g id="line2d_53">
    <path d="M 237.565267 23.458505 
L 247.104733 23.458505 
" clip-path="url(#pe84ace1d86)" style="fill: none; stroke: #444444; stroke-linecap: square"/>
   </g>
   <g id="line2d_54">
    <path d="M 237.565267 18.729091 
L 247.104733 18.729091 
" clip-path="url(#pe84ace1d86)" style="fill: none; stroke: #444444; stroke-linecap: square"/>
   </g>
   <g id="line2d_55">
    <g clip-path="url(#pe84ace1d86)">
     <use xlink:href="#md8d8893121" x="242.335" y="35.033155" style="fill-opacity: 0; stroke: #000000; stroke-opacity: 0.65"/>
    </g>
   </g>
   <g id="patch_16">
    <path d="M 352.038867 80.912049 
L 371.1178 80.912049 
L 371.1178 26.694491 
L 352.038867 26.694491 
L 352.038867 80.912049 
z
" clip-path="url(#pe84ace1d86)" style="fill: #b3cea2; stroke: #444444; stroke-linejoin: miter"/>
   </g>
   <g id="line2d_56">
    <path d="M 361.578333 80.912049 
L 361.578333 123.223042 
" clip-path="url(#pe84ace1d86)" style="fill: none; stroke: #444444"/>
   </g>
   <g id="line2d_57">
    <path d="M 361.578333 26.694491 
L 361.578333 18.783033 
" clip-path="url(#pe84ace1d86)" style="fill: none; stroke: #444444"/>
   </g>
   <g id="line2d_58">
    <path d="M 356.8086 123.223042 
L 366.348067 123.223042 
" clip-path="url(#pe84ace1d86)" style="fill: none; stroke: #444444; stroke-linecap: square"/>
   </g>
   <g id="line2d_59">
    <path d="M 356.8086 18.783033 
L 366.348067 18.783033 
" clip-path="url(#pe84ace1d86)" style="fill: none; stroke: #444444; stroke-linecap: square"/>
   </g>
   <g id="line2d_60"/>
   <g id="patch_17">
    <path d="M 132.631133 18.729091 
L 151.710067 18.729091 
L 151.710067 18.729091 
L 132.631133 18.729091 
L 132.631133 18.729091 
z
" clip-path="url(#pe84ace1d86)" style="fill: #5d8582; stroke: #444444; stroke-linejoin: miter"/>
   </g>
   <g id="line2d_61">
    <path d="M 142.1706 18.729091 
L 142.1706 18.729091 
" clip-path="url(#pe84ace1d86)" style="fill: none; stroke: #444444"/>
   </g>
   <g id="line2d_62">
    <path d="M 142.1706 18.729091 
L 142.1706 18.729091 
" clip-path="url(#pe84ace1d86)" style="fill: none; stroke: #444444"/>
   </g>
   <g id="line2d_63">
    <path d="M 137.400867 18.729091 
L 146.940333 18.729091 
" clip-path="url(#pe84ace1d86)" style="fill: none; stroke: #444444; stroke-linecap: square"/>
   </g>
   <g id="line2d_64">
    <path d="M 137.400867 18.729091 
L 146.940333 18.729091 
" clip-path="url(#pe84ace1d86)" style="fill: none; stroke: #444444; stroke-linecap: square"/>
   </g>
   <g id="line2d_65">
    <g clip-path="url(#pe84ace1d86)">
     <use xlink:href="#md8d8893121" x="142.1706" y="18.729454" style="fill-opacity: 0; stroke: #000000; stroke-opacity: 0.65"/>
     <use xlink:href="#md8d8893121" x="142.1706" y="18.729246" style="fill-opacity: 0; stroke: #000000; stroke-opacity: 0.65"/>
     <use xlink:href="#md8d8893121" x="142.1706" y="18.729471" style="fill-opacity: 0; stroke: #000000; stroke-opacity: 0.65"/>
     <use xlink:href="#md8d8893121" x="142.1706" y="18.731201" style="fill-opacity: 0; stroke: #000000; stroke-opacity: 0.65"/>
     <use xlink:href="#md8d8893121" x="142.1706" y="18.729262" style="fill-opacity: 0; stroke: #000000; stroke-opacity: 0.65"/>
     <use xlink:href="#md8d8893121" x="142.1706" y="18.729262" style="fill-opacity: 0; stroke: #000000; stroke-opacity: 0.65"/>
     <use xlink:href="#md8d8893121" x="142.1706" y="18.729454" style="fill-opacity: 0; stroke: #000000; stroke-opacity: 0.65"/>
    </g>
   </g>
   <g id="patch_18">
    <path d="M 251.874467 19.609433 
L 270.9534 19.609433 
L 270.9534 18.729091 
L 251.874467 18.729091 
L 251.874467 19.609433 
z
" clip-path="url(#pe84ace1d86)" style="fill: #5d8582; stroke: #444444; stroke-linejoin: miter"/>
   </g>
   <g id="line2d_66">
    <path d="M 261.413933 19.609433 
L 261.413933 20.153362 
" clip-path="url(#pe84ace1d86)" style="fill: none; stroke: #444444"/>
   </g>
   <g id="line2d_67">
    <path d="M 261.413933 18.729091 
L 261.413933 18.729091 
" clip-path="url(#pe84ace1d86)" style="fill: none; stroke: #444444"/>
   </g>
   <g id="line2d_68">
    <path d="M 256.6442 20.153362 
L 266.183667 20.153362 
" clip-path="url(#pe84ace1d86)" style="fill: none; stroke: #444444; stroke-linecap: square"/>
   </g>
   <g id="line2d_69">
    <path d="M 256.6442 18.729091 
L 266.183667 18.729091 
" clip-path="url(#pe84ace1d86)" style="fill: none; stroke: #444444; stroke-linecap: square"/>
   </g>
   <g id="line2d_70">
    <g clip-path="url(#pe84ace1d86)">
     <use xlink:href="#md8d8893121" x="261.413933" y="25.680083" style="fill-opacity: 0; stroke: #000000; stroke-opacity: 0.65"/>
    </g>
   </g>
   <g id="patch_19">
    <path d="M 371.1178 67.08267 
L 390.196733 67.08267 
L 390.196733 22.035402 
L 371.1178 22.035402 
L 371.1178 67.08267 
z
" clip-path="url(#pe84ace1d86)" style="fill: #5d8582; stroke: #444444; stroke-linejoin: miter"/>
   </g>
   <g id="line2d_71">
    <path d="M 380.657267 67.08267 
L 380.657267 108.74183 
" clip-path="url(#pe84ace1d86)" style="fill: none; stroke: #444444"/>
   </g>
   <g id="line2d_72">
    <path d="M 380.657267 22.035402 
L 380.657267 18.730003 
" clip-path="url(#pe84ace1d86)" style="fill: none; stroke: #444444"/>
   </g>
   <g id="line2d_73">
    <path d="M 375.887533 108.74183 
L 385.427 108.74183 
" clip-path="url(#pe84ace1d86)" style="fill: none; stroke: #444444; stroke-linecap: square"/>
   </g>
   <g id="line2d_74">
    <path d="M 375.887533 18.730003 
L 385.427 18.730003 
" clip-path="url(#pe84ace1d86)" style="fill: none; stroke: #444444; stroke-linecap: square"/>
   </g>
   <g id="line2d_75"/>
   <g id="patch_20">
    <path d="M 151.710067 18.729091 
L 170.789 18.729091 
L 170.789 18.729091 
L 151.710067 18.729091 
L 151.710067 18.729091 
z
" clip-path="url(#pe84ace1d86)" style="fill: #666f87; stroke: #444444; stroke-linejoin: miter"/>
   </g>
   <g id="line2d_76">
    <path d="M 161.249533 18.729091 
L 161.249533 18.729091 
" clip-path="url(#pe84ace1d86)" style="fill: none; stroke: #444444"/>
   </g>
   <g id="line2d_77">
    <path d="M 161.249533 18.729091 
L 161.249533 18.729091 
" clip-path="url(#pe84ace1d86)" style="fill: none; stroke: #444444"/>
   </g>
   <g id="line2d_78">
    <path d="M 156.4798 18.729091 
L 166.019267 18.729091 
" clip-path="url(#pe84ace1d86)" style="fill: none; stroke: #444444; stroke-linecap: square"/>
   </g>
   <g id="line2d_79">
    <path d="M 156.4798 18.729091 
L 166.019267 18.729091 
" clip-path="url(#pe84ace1d86)" style="fill: none; stroke: #444444; stroke-linecap: square"/>
   </g>
   <g id="line2d_80">
    <g clip-path="url(#pe84ace1d86)">
     <use xlink:href="#md8d8893121" x="161.249533" y="18.729817" style="fill-opacity: 0; stroke: #000000; stroke-opacity: 0.65"/>
     <use xlink:href="#md8d8893121" x="161.249533" y="18.729454" style="fill-opacity: 0; stroke: #000000; stroke-opacity: 0.65"/>
     <use xlink:href="#md8d8893121" x="161.249533" y="18.729797" style="fill-opacity: 0; stroke: #000000; stroke-opacity: 0.65"/>
     <use xlink:href="#md8d8893121" x="161.249533" y="18.729433" style="fill-opacity: 0; stroke: #000000; stroke-opacity: 0.65"/>
     <use xlink:href="#md8d8893121" x="161.249533" y="18.729433" style="fill-opacity: 0; stroke: #000000; stroke-opacity: 0.65"/>
     <use xlink:href="#md8d8893121" x="161.249533" y="18.729433" style="fill-opacity: 0; stroke: #000000; stroke-opacity: 0.65"/>
     <use xlink:href="#md8d8893121" x="161.249533" y="18.729817" style="fill-opacity: 0; stroke: #000000; stroke-opacity: 0.65"/>
    </g>
   </g>
   <g id="patch_21">
    <path d="M 270.9534 18.757266 
L 290.032333 18.757266 
L 290.032333 18.729091 
L 270.9534 18.729091 
L 270.9534 18.757266 
z
" clip-path="url(#pe84ace1d86)" style="fill: #666f87; stroke: #444444; stroke-linejoin: miter"/>
   </g>
   <g id="line2d_81">
    <path d="M 280.492867 18.757266 
L 280.492867 18.772883 
" clip-path="url(#pe84ace1d86)" style="fill: none; stroke: #444444"/>
   </g>
   <g id="line2d_82">
    <path d="M 280.492867 18.729091 
L 280.492867 18.729091 
" clip-path="url(#pe84ace1d86)" style="fill: none; stroke: #444444"/>
   </g>
   <g id="line2d_83">
    <path d="M 275.723133 18.772883 
L 285.2626 18.772883 
" clip-path="url(#pe84ace1d86)" style="fill: none; stroke: #444444; stroke-linecap: square"/>
   </g>
   <g id="line2d_84">
    <path d="M 275.723133 18.729091 
L 285.2626 18.729091 
" clip-path="url(#pe84ace1d86)" style="fill: none; stroke: #444444; stroke-linecap: square"/>
   </g>
   <g id="line2d_85">
    <g clip-path="url(#pe84ace1d86)">
     <use xlink:href="#md8d8893121" x="280.492867" y="18.800666" style="fill-opacity: 0; stroke: #000000; stroke-opacity: 0.65"/>
     <use xlink:href="#md8d8893121" x="280.492867" y="19.6083" style="fill-opacity: 0; stroke: #000000; stroke-opacity: 0.65"/>
    </g>
   </g>
   <g id="patch_22">
    <path d="M 390.196733 52.768881 
L 409.275667 52.768881 
L 409.275667 19.121801 
L 390.196733 19.121801 
L 390.196733 52.768881 
z
" clip-path="url(#pe84ace1d86)" style="fill: #666f87; stroke: #444444; stroke-linejoin: miter"/>
   </g>
   <g id="line2d_86">
    <path d="M 399.7362 52.768881 
L 399.7362 95.025734 
" clip-path="url(#pe84ace1d86)" style="fill: none; stroke: #444444"/>
   </g>
   <g id="line2d_87">
    <path d="M 399.7362 19.121801 
L 399.7362 18.729433 
" clip-path="url(#pe84ace1d86)" style="fill: none; stroke: #444444"/>
   </g>
   <g id="line2d_88">
    <path d="M 394.966467 95.025734 
L 404.505933 95.025734 
" clip-path="url(#pe84ace1d86)" style="fill: none; stroke: #444444; stroke-linecap: square"/>
   </g>
   <g id="line2d_89">
    <path d="M 394.966467 18.729433 
L 404.505933 18.729433 
" clip-path="url(#pe84ace1d86)" style="fill: none; stroke: #444444; stroke-linecap: square"/>
   </g>
   <g id="line2d_90"/>
   <g id="line2d_91">
    <path d="M 75.394333 18.744731 
L 94.473267 18.744731 
" clip-path="url(#pe84ace1d86)" style="fill: none; stroke: #444444"/>
   </g>
   <g id="line2d_92">
    <path d="M 194.637667 20.103059 
L 213.7166 20.103059 
" clip-path="url(#pe84ace1d86)" style="fill: none; stroke: #444444"/>
   </g>
   <g id="line2d_93">
    <path d="M 313.881 101.560632 
L 332.959933 101.560632 
" clip-path="url(#pe84ace1d86)" style="fill: none; stroke: #444444"/>
   </g>
   <g id="line2d_94">
    <path d="M 94.473267 18.729091 
L 113.5522 18.729091 
" clip-path="url(#pe84ace1d86)" style="fill: none; stroke: #444444"/>
   </g>
   <g id="line2d_95">
    <path d="M 213.7166 18.751272 
L 232.795533 18.751272 
" clip-path="url(#pe84ace1d86)" style="fill: none; stroke: #444444"/>
   </g>
   <g id="line2d_96">
    <path d="M 332.959933 75.268412 
L 352.038867 75.268412 
" clip-path="url(#pe84ace1d86)" style="fill: none; stroke: #444444"/>
   </g>
   <g id="line2d_97">
    <path d="M 113.5522 18.729091 
L 132.631133 18.729091 
" clip-path="url(#pe84ace1d86)" style="fill: none; stroke: #444444"/>
   </g>
   <g id="line2d_98">
    <path d="M 232.795533 18.729498 
L 251.874467 18.729498 
" clip-path="url(#pe84ace1d86)" style="fill: none; stroke: #444444"/>
   </g>
   <g id="line2d_99">
    <path d="M 352.038867 60.598567 
L 371.1178 60.598567 
" clip-path="url(#pe84ace1d86)" style="fill: none; stroke: #444444"/>
   </g>
   <g id="line2d_100">
    <path d="M 132.631133 18.729091 
L 151.710067 18.729091 
" clip-path="url(#pe84ace1d86)" style="fill: none; stroke: #444444"/>
   </g>
   <g id="line2d_101">
    <path d="M 251.874467 18.729246 
L 270.9534 18.729246 
" clip-path="url(#pe84ace1d86)" style="fill: none; stroke: #444444"/>
   </g>
   <g id="line2d_102">
    <path d="M 371.1178 48.896694 
L 390.196733 48.896694 
" clip-path="url(#pe84ace1d86)" style="fill: none; stroke: #444444"/>
   </g>
   <g id="line2d_103">
    <path d="M 151.710067 18.729091 
L 170.789 18.729091 
" clip-path="url(#pe84ace1d86)" style="fill: none; stroke: #444444"/>
   </g>
   <g id="line2d_104">
    <path d="M 270.9534 18.729091 
L 290.032333 18.729091 
" clip-path="url(#pe84ace1d86)" style="fill: none; stroke: #444444"/>
   </g>
   <g id="line2d_105">
    <path d="M 390.196733 34.641959 
L 409.275667 34.641959 
" clip-path="url(#pe84ace1d86)" style="fill: none; stroke: #444444"/>
   </g>
   <g id="patch_23">
    <path d="M 63.47 185.24 
L 63.47 10.8 
" style="fill: none; stroke: #000000; stroke-width: 0.8; stroke-linejoin: miter; stroke-linecap: square"/>
   </g>
   <g id="patch_24">
    <path d="M 421.2 185.24 
L 421.2 10.8 
" style="fill: none; stroke: #000000; stroke-width: 0.8; stroke-linejoin: miter; stroke-linecap: square"/>
   </g>
   <g id="patch_25">
    <path d="M 63.47 185.24 
L 421.2 185.24 
" style="fill: none; stroke: #000000; stroke-width: 0.8; stroke-linejoin: miter; stroke-linecap: square"/>
   </g>
   <g id="patch_26">
    <path d="M 63.47 10.8 
L 421.2 10.8 
" style="fill: none; stroke: #000000; stroke-width: 0.8; stroke-linejoin: miter; stroke-linecap: square"/>
   </g>
   <g id="legend_1">
    <g id="patch_27">
     <path d="M 71.17 179.74 
L 143.44 179.74 
Q 145.64 179.74 145.64 177.54 
L 145.64 97.910312 
Q 145.64 95.710312 143.44 95.710312 
L 71.17 95.710312 
Q 68.97 95.710312 68.97 97.910312 
L 68.97 177.54 
Q 68.97 179.74 71.17 179.74 
z
" style="fill: #ffffff; opacity: 0.8; stroke: #cccccc; stroke-linejoin: miter"/>
    </g>
    <g id="patch_28">
     <path d="M 73.37 108.468594 
L 95.37 108.468594 
L 95.37 100.768594 
L 73.37 100.768594 
z
" style="fill: #c16530; stroke: #444444; stroke-linejoin: miter"/>
    </g>
    <g id="text_11">
     <!-- $M=1$ -->
     <g transform="translate(104.17 108.468594) scale(0.11 -0.11)">
      <defs>
       <path id="DejaVuSans-3d" d="M 678 2906 
L 4684 2906 
L 4684 2381 
L 678 2381 
L 678 2906 
z
M 678 1631 
L 4684 1631 
L 4684 1100 
L 678 1100 
L 678 1631 
z
" transform="scale(0.015625)"/>
      </defs>
      <use xlink:href="#DejaVuSans-Oblique-4d" transform="translate(0 0.09375)"/>
      <use xlink:href="#DejaVuSans-3d" transform="translate(105.761719 0.09375)"/>
      <use xlink:href="#DejaVuSans-31" transform="translate(209.033203 0.09375)"/>
     </g>
    </g>
    <g id="patch_29">
     <path d="M 73.37 124.614531 
L 95.37 124.614531 
L 95.37 116.914531 
L 73.37 116.914531 
z
" style="fill: #e3d488; stroke: #444444; stroke-linejoin: miter"/>
    </g>
    <g id="text_12">
     <!-- $M=2$ -->
     <g transform="translate(104.17 124.614531) scale(0.11 -0.11)">
      <use xlink:href="#DejaVuSans-Oblique-4d" transform="translate(0 0.78125)"/>
      <use xlink:href="#DejaVuSans-3d" transform="translate(105.761719 0.78125)"/>
      <use xlink:href="#DejaVuSans-32" transform="translate(209.033203 0.78125)"/>
     </g>
    </g>
    <g id="patch_30">
     <path d="M 73.37 140.760469 
L 95.37 140.760469 
L 95.37 133.060469 
L 73.37 133.060469 
z
" style="fill: #b3cea2; stroke: #444444; stroke-linejoin: miter"/>
    </g>
    <g id="text_13">
     <!-- $M=3$ -->
     <g transform="translate(104.17 140.760469) scale(0.11 -0.11)">
      <defs>
       <path id="DejaVuSans-33" d="M 2597 2516 
Q 3050 2419 3304 2112 
Q 3559 1806 3559 1356 
Q 3559 666 3084 287 
Q 2609 -91 1734 -91 
Q 1441 -91 1130 -33 
Q 819 25 488 141 
L 488 750 
Q 750 597 1062 519 
Q 1375 441 1716 441 
Q 2309 441 2620 675 
Q 2931 909 2931 1356 
Q 2931 1769 2642 2001 
Q 2353 2234 1838 2234 
L 1294 2234 
L 1294 2753 
L 1863 2753 
Q 2328 2753 2575 2939 
Q 2822 3125 2822 3475 
Q 2822 3834 2567 4026 
Q 2313 4219 1838 4219 
Q 1578 4219 1281 4162 
Q 984 4106 628 3988 
L 628 4550 
Q 988 4650 1302 4700 
Q 1616 4750 1894 4750 
Q 2613 4750 3031 4423 
Q 3450 4097 3450 3541 
Q 3450 3153 3228 2886 
Q 3006 2619 2597 2516 
z
" transform="scale(0.015625)"/>
      </defs>
      <use xlink:href="#DejaVuSans-Oblique-4d" transform="translate(0 0.78125)"/>
      <use xlink:href="#DejaVuSans-3d" transform="translate(105.761719 0.78125)"/>
      <use xlink:href="#DejaVuSans-33" transform="translate(209.033203 0.78125)"/>
     </g>
    </g>
    <g id="patch_31">
     <path d="M 73.37 156.906406 
L 95.37 156.906406 
L 95.37 149.206406 
L 73.37 149.206406 
z
" style="fill: #5d8582; stroke: #444444; stroke-linejoin: miter"/>
    </g>
    <g id="text_14">
     <!-- $M=5$ -->
     <g transform="translate(104.17 156.906406) scale(0.11 -0.11)">
      <defs>
       <path id="DejaVuSans-35" d="M 691 4666 
L 3169 4666 
L 3169 4134 
L 1269 4134 
L 1269 2991 
Q 1406 3038 1543 3061 
Q 1681 3084 1819 3084 
Q 2600 3084 3056 2656 
Q 3513 2228 3513 1497 
Q 3513 744 3044 326 
Q 2575 -91 1722 -91 
Q 1428 -91 1123 -41 
Q 819 9 494 109 
L 494 744 
Q 775 591 1075 516 
Q 1375 441 1709 441 
Q 2250 441 2565 725 
Q 2881 1009 2881 1497 
Q 2881 1984 2565 2268 
Q 2250 2553 1709 2553 
Q 1456 2553 1204 2497 
Q 953 2441 691 2322 
L 691 4666 
z
" transform="scale(0.015625)"/>
      </defs>
      <use xlink:href="#DejaVuSans-Oblique-4d" transform="translate(0 0.09375)"/>
      <use xlink:href="#DejaVuSans-3d" transform="translate(105.761719 0.09375)"/>
      <use xlink:href="#DejaVuSans-35" transform="translate(209.033203 0.09375)"/>
     </g>
    </g>
    <g id="patch_32">
     <path d="M 73.37 173.052344 
L 95.37 173.052344 
L 95.37 165.352344 
L 73.37 165.352344 
z
" style="fill: #666f87; stroke: #444444; stroke-linejoin: miter"/>
    </g>
    <g id="text_15">
     <!-- $M=10$ -->
     <g transform="translate(104.17 173.052344) scale(0.11 -0.11)">
      <use xlink:href="#DejaVuSans-Oblique-4d" transform="translate(0 0.78125)"/>
      <use xlink:href="#DejaVuSans-3d" transform="translate(105.761719 0.78125)"/>
      <use xlink:href="#DejaVuSans-31" transform="translate(209.033203 0.78125)"/>
      <use xlink:href="#DejaVuSans-30" transform="translate(272.65625 0.78125)"/>
     </g>
    </g>
   </g>
  </g>
 </g>
 <defs>
  <clipPath id="pe84ace1d86">
   <rect x="63.47" y="10.8" width="357.73" height="174.44"/>
  </clipPath>
 </defs>
</svg>
