<?xml version="1.0" encoding="utf-8" standalone="no"?>
<!DOCTYPE svg PUBLIC "-//W3C//DTD SVG 1.1//EN"
  "http://www.w3.org/Graphics/SVG/1.1/DTD/svg11.dtd">
<svg xmlns:xlink="http://www.w3.org/1999/xlink" width="432pt" height="180pt" viewBox="0 0 432 180" xmlns="http://www.w3.org/2000/svg" version="1.1">
 <metadata>
  <rdf:RDF xmlns:dc="http://purl.org/dc/elements/1.1/" xmlns:cc="http://creativecommons.org/ns#" xmlns:rdf="http://www.w3.org/1999/02/22-rdf-syntax-ns#">
   <cc:Work>
    <dc:type rdf:resource="http://purl.org/dc/dcmitype/StillImage"/>
    <dc:date>2025-04-13T02:19:09.564763</dc:date>
    <dc:format>image/svg+xml</dc:format>
    <dc:creator>
     <cc:Agent>
      <dc:title>Matplotlib v3.9.3, https://matplotlib.org/</dc:title>
     </cc:Agent>
    </dc:creator>
   </cc:Work>
  </rdf:RDF>
 </metadata>
 <defs>
  <style type="text/css">*{stroke-linejoin: round; stroke-linecap: butt}</style>
 </defs>
 <g id="figure_1">
  <g id="patch_1">
   <path d="M 0 180 
L 432 180 
L 432 0 
L 0 0 
z
" style="fill: #ffffff"/>
  </g>
  <g id="axes_1">
   <g id="patch_2">
    <path d="M 62.894 149.24 
L 421.2 149.24 
L 421.2 26.88 
L 62.894 26.88 
z
" style="fill: #ffffff"/>
   </g>
   <g id="matplotlib.axis_1">
    <g id="xtick_1">
     <g id="line2d_1">
      <defs>
       <path id="m839b2ed40e" d="M 0 0 
L 0 3.5 
" style="stroke: #000000; stroke-width: 0.8"/>
      </defs>
      <g>
       <use xlink:href="#m839b2ed40e" x="122.611667" y="149.24" style="stroke: #000000; stroke-width: 0.8"/>
      </g>
     </g>
     <g id="text_1">
      <!-- SGD -->
      <g transform="translate(109.533542 165.358125) scale(0.12 -0.12)">
       <defs>
        <path id="DejaVuSans-53" d="M 3425 4513 
L 3425 3897 
Q 3066 4069 2747 4153 
Q 2428 4238 2131 4238 
Q 1616 4238 1336 4038 
Q 1056 3838 1056 3469 
Q 1056 3159 1242 3001 
Q 1428 2844 1947 2747 
L 2328 2669 
Q 3034 2534 3370 2195 
Q 3706 1856 3706 1288 
Q 3706 609 3251 259 
Q 2797 -91 1919 -91 
Q 1588 -91 1214 -16 
Q 841 59 441 206 
L 441 856 
Q 825 641 1194 531 
Q 1563 422 1919 422 
Q 2459 422 2753 634 
Q 3047 847 3047 1241 
Q 3047 1584 2836 1778 
Q 2625 1972 2144 2069 
L 1759 2144 
Q 1053 2284 737 2584 
Q 422 2884 422 3419 
Q 422 4038 858 4394 
Q 1294 4750 2059 4750 
Q 2388 4750 2728 4690 
Q 3069 4631 3425 4513 
z
" transform="scale(0.015625)"/>
        <path id="DejaVuSans-47" d="M 3809 666 
L 3809 1919 
L 2778 1919 
L 2778 2438 
L 4434 2438 
L 4434 434 
Q 4069 175 3628 42 
Q 3188 -91 2688 -91 
Q 1594 -91 976 548 
Q 359 1188 359 2328 
Q 359 3472 976 4111 
Q 1594 4750 2688 4750 
Q 3144 4750 3555 4637 
Q 3966 4525 4313 4306 
L 4313 3634 
Q 3963 3931 3569 4081 
Q 3175 4231 2741 4231 
Q 1884 4231 1454 3753 
Q 1025 3275 1025 2328 
Q 1025 1384 1454 906 
Q 1884 428 2741 428 
Q 3075 428 3337 486 
Q 3600 544 3809 666 
z
" transform="scale(0.015625)"/>
        <path id="DejaVuSans-44" d="M 1259 4147 
L 1259 519 
L 2022 519 
Q 2988 519 3436 956 
Q 3884 1394 3884 2338 
Q 3884 3275 3436 3711 
Q 2988 4147 2022 4147 
L 1259 4147 
z
M 628 4666 
L 1925 4666 
Q 3281 4666 3915 4102 
Q 4550 3538 4550 2338 
Q 4550 1131 3912 565 
Q 3275 0 1925 0 
L 628 0 
L 628 4666 
z
" transform="scale(0.015625)"/>
       </defs>
       <use xlink:href="#DejaVuSans-53"/>
       <use xlink:href="#DejaVuSans-47" x="63.476562"/>
       <use xlink:href="#DejaVuSans-44" x="140.966797"/>
      </g>
     </g>
    </g>
    <g id="xtick_2">
     <g id="line2d_2">
      <g>
       <use xlink:href="#m839b2ed40e" x="242.047" y="149.24" style="stroke: #000000; stroke-width: 0.8"/>
      </g>
     </g>
     <g id="text_2">
      <!-- Adam -->
      <g transform="translate(224.717312 165.358125) scale(0.12 -0.12)">
       <defs>
        <path id="DejaVuSans-41" d="M 2188 4044 
L 1331 1722 
L 3047 1722 
L 2188 4044 
z
M 1831 4666 
L 2547 4666 
L 4325 0 
L 3669 0 
L 3244 1197 
L 1141 1197 
L 716 0 
L 50 0 
L 1831 4666 
z
" transform="scale(0.015625)"/>
        <path id="DejaVuSans-64" d="M 2906 2969 
L 2906 4863 
L 3481 4863 
L 3481 0 
L 2906 0 
L 2906 525 
Q 2725 213 2448 61 
Q 2172 -91 1784 -91 
Q 1150 -91 751 415 
Q 353 922 353 1747 
Q 353 2572 751 3078 
Q 1150 3584 1784 3584 
Q 2172 3584 2448 3432 
Q 2725 3281 2906 2969 
z
M 947 1747 
Q 947 1113 1208 752 
Q 1469 391 1925 391 
Q 2381 391 2643 752 
Q 2906 1113 2906 1747 
Q 2906 2381 2643 2742 
Q 2381 3103 1925 3103 
Q 1469 3103 1208 2742 
Q 947 2381 947 1747 
z
" transform="scale(0.015625)"/>
        <path id="DejaVuSans-61" d="M 2194 1759 
Q 1497 1759 1228 1600 
Q 959 1441 959 1056 
Q 959 750 1161 570 
Q 1363 391 1709 391 
Q 2188 391 2477 730 
Q 2766 1069 2766 1631 
L 2766 1759 
L 2194 1759 
z
M 3341 1997 
L 3341 0 
L 2766 0 
L 2766 531 
Q 2569 213 2275 61 
Q 1981 -91 1556 -91 
Q 1019 -91 701 211 
Q 384 513 384 1019 
Q 384 1609 779 1909 
Q 1175 2209 1959 2209 
L 2766 2209 
L 2766 2266 
Q 2766 2663 2505 2880 
Q 2244 3097 1772 3097 
Q 1472 3097 1187 3025 
Q 903 2953 641 2809 
L 641 3341 
Q 956 3463 1253 3523 
Q 1550 3584 1831 3584 
Q 2591 3584 2966 3190 
Q 3341 2797 3341 1997 
z
" transform="scale(0.015625)"/>
        <path id="DejaVuSans-6d" d="M 3328 2828 
Q 3544 3216 3844 3400 
Q 4144 3584 4550 3584 
Q 5097 3584 5394 3201 
Q 5691 2819 5691 2113 
L 5691 0 
L 5113 0 
L 5113 2094 
Q 5113 2597 4934 2840 
Q 4756 3084 4391 3084 
Q 3944 3084 3684 2787 
Q 3425 2491 3425 1978 
L 3425 0 
L 2847 0 
L 2847 2094 
Q 2847 2600 2669 2842 
Q 2491 3084 2119 3084 
Q 1678 3084 1418 2786 
Q 1159 2488 1159 1978 
L 1159 0 
L 581 0 
L 581 3500 
L 1159 3500 
L 1159 2956 
Q 1356 3278 1631 3431 
Q 1906 3584 2284 3584 
Q 2666 3584 2933 3390 
Q 3200 3197 3328 2828 
z
" transform="scale(0.015625)"/>
       </defs>
       <use xlink:href="#DejaVuSans-41"/>
       <use xlink:href="#DejaVuSans-64" x="66.658203"/>
       <use xlink:href="#DejaVuSans-61" x="130.134766"/>
       <use xlink:href="#DejaVuSans-6d" x="191.414062"/>
      </g>
     </g>
    </g>
    <g id="xtick_3">
     <g id="line2d_3">
      <g>
       <use xlink:href="#m839b2ed40e" x="361.482333" y="149.24" style="stroke: #000000; stroke-width: 0.8"/>
      </g>
     </g>
     <g id="text_3">
      <!-- L-BFGS -->
      <g transform="translate(340.271396 165.358125) scale(0.12 -0.12)">
       <defs>
        <path id="DejaVuSans-4c" d="M 628 4666 
L 1259 4666 
L 1259 531 
L 3531 531 
L 3531 0 
L 628 0 
L 628 4666 
z
" transform="scale(0.015625)"/>
        <path id="DejaVuSans-2d" d="M 313 2009 
L 1997 2009 
L 1997 1497 
L 313 1497 
L 313 2009 
z
" transform="scale(0.015625)"/>
        <path id="DejaVuSans-42" d="M 1259 2228 
L 1259 519 
L 2272 519 
Q 2781 519 3026 730 
Q 3272 941 3272 1375 
Q 3272 1813 3026 2020 
Q 2781 2228 2272 2228 
L 1259 2228 
z
M 1259 4147 
L 1259 2741 
L 2194 2741 
Q 2656 2741 2882 2914 
Q 3109 3088 3109 3444 
Q 3109 3797 2882 3972 
Q 2656 4147 2194 4147 
L 1259 4147 
z
M 628 4666 
L 2241 4666 
Q 2963 4666 3353 4366 
Q 3744 4066 3744 3513 
Q 3744 3084 3544 2831 
Q 3344 2578 2956 2516 
Q 3422 2416 3680 2098 
Q 3938 1781 3938 1306 
Q 3938 681 3513 340 
Q 3088 0 2303 0 
L 628 0 
L 628 4666 
z
" transform="scale(0.015625)"/>
        <path id="DejaVuSans-46" d="M 628 4666 
L 3309 4666 
L 3309 4134 
L 1259 4134 
L 1259 2759 
L 3109 2759 
L 3109 2228 
L 1259 2228 
L 1259 0 
L 628 0 
L 628 4666 
z
" transform="scale(0.015625)"/>
       </defs>
       <use xlink:href="#DejaVuSans-4c"/>
       <use xlink:href="#DejaVuSans-2d" x="53.962891"/>
       <use xlink:href="#DejaVuSans-42" x="86.421875"/>
       <use xlink:href="#DejaVuSans-46" x="155.025391"/>
       <use xlink:href="#DejaVuSans-47" x="212.544922"/>
       <use xlink:href="#DejaVuSans-53" x="290.035156"/>
      </g>
     </g>
    </g>
   </g>
   <g id="matplotlib.axis_2">
    <g id="ytick_1">
     <g id="line2d_4">
      <path d="M 62.894 143.678182 
L 421.2 143.678182 
" clip-path="url(#pecef37ba98)" style="fill: none; stroke: #b0b0b0; stroke-width: 0.8; stroke-linecap: square"/>
     </g>
     <g id="line2d_5">
      <defs>
       <path id="ma9ccfb73bf" d="M 0 0 
L -3.5 0 
" style="stroke: #000000; stroke-width: 0.8"/>
      </defs>
      <g>
       <use xlink:href="#ma9ccfb73bf" x="62.894" y="143.678182" style="stroke: #000000; stroke-width: 0.8"/>
      </g>
     </g>
     <g id="text_4">
      <!-- 0.00 -->
      <g transform="translate(29.17525 148.237244) scale(0.12 -0.12)">
       <defs>
        <path id="DejaVuSans-30" d="M 2034 4250 
Q 1547 4250 1301 3770 
Q 1056 3291 1056 2328 
Q 1056 1369 1301 889 
Q 1547 409 2034 409 
Q 2525 409 2770 889 
Q 3016 1369 3016 2328 
Q 3016 3291 2770 3770 
Q 2525 4250 2034 4250 
z
M 2034 4750 
Q 2819 4750 3233 4129 
Q 3647 3509 3647 2328 
Q 3647 1150 3233 529 
Q 2819 -91 2034 -91 
Q 1250 -91 836 529 
Q 422 1150 422 2328 
Q 422 3509 836 4129 
Q 1250 4750 2034 4750 
z
" transform="scale(0.015625)"/>
        <path id="DejaVuSans-2e" d="M 684 794 
L 1344 794 
L 1344 0 
L 684 0 
L 684 794 
z
" transform="scale(0.015625)"/>
       </defs>
       <use xlink:href="#DejaVuSans-30"/>
       <use xlink:href="#DejaVuSans-2e" x="63.623047"/>
       <use xlink:href="#DejaVuSans-30" x="95.410156"/>
       <use xlink:href="#DejaVuSans-30" x="159.033203"/>
      </g>
     </g>
    </g>
    <g id="ytick_2">
     <g id="line2d_6">
      <path d="M 62.894 115.869074 
L 421.2 115.869074 
" clip-path="url(#pecef37ba98)" style="fill: none; stroke: #b0b0b0; stroke-width: 0.8; stroke-linecap: square"/>
     </g>
     <g id="line2d_7">
      <g>
       <use xlink:href="#ma9ccfb73bf" x="62.894" y="115.869074" style="stroke: #000000; stroke-width: 0.8"/>
      </g>
     </g>
     <g id="text_5">
      <!-- 0.25 -->
      <g transform="translate(29.17525 120.428137) scale(0.12 -0.12)">
       <defs>
        <path id="DejaVuSans-32" d="M 1228 531 
L 3431 531 
L 3431 0 
L 469 0 
L 469 531 
Q 828 903 1448 1529 
Q 2069 2156 2228 2338 
Q 2531 2678 2651 2914 
Q 2772 3150 2772 3378 
Q 2772 3750 2511 3984 
Q 2250 4219 1831 4219 
Q 1534 4219 1204 4116 
Q 875 4013 500 3803 
L 500 4441 
Q 881 4594 1212 4672 
Q 1544 4750 1819 4750 
Q 2544 4750 2975 4387 
Q 3406 4025 3406 3419 
Q 3406 3131 3298 2873 
Q 3191 2616 2906 2266 
Q 2828 2175 2409 1742 
Q 1991 1309 1228 531 
z
" transform="scale(0.015625)"/>
        <path id="DejaVuSans-35" d="M 691 4666 
L 3169 4666 
L 3169 4134 
L 1269 4134 
L 1269 2991 
Q 1406 3038 1543 3061 
Q 1681 3084 1819 3084 
Q 2600 3084 3056 2656 
Q 3513 2228 3513 1497 
Q 3513 744 3044 326 
Q 2575 -91 1722 -91 
Q 1428 -91 1123 -41 
Q 819 9 494 109 
L 494 744 
Q 775 591 1075 516 
Q 1375 441 1709 441 
Q 2250 441 2565 725 
Q 2881 1009 2881 1497 
Q 2881 1984 2565 2268 
Q 2250 2553 1709 2553 
Q 1456 2553 1204 2497 
Q 953 2441 691 2322 
L 691 4666 
z
" transform="scale(0.015625)"/>
       </defs>
       <use xlink:href="#DejaVuSans-30"/>
       <use xlink:href="#DejaVuSans-2e" x="63.623047"/>
       <use xlink:href="#DejaVuSans-32" x="95.410156"/>
       <use xlink:href="#DejaVuSans-35" x="159.033203"/>
      </g>
     </g>
    </g>
    <g id="ytick_3">
     <g id="line2d_8">
      <path d="M 62.894 88.059967 
L 421.2 88.059967 
" clip-path="url(#pecef37ba98)" style="fill: none; stroke: #b0b0b0; stroke-width: 0.8; stroke-linecap: square"/>
     </g>
     <g id="line2d_9">
      <g>
       <use xlink:href="#ma9ccfb73bf" x="62.894" y="88.059967" style="stroke: #000000; stroke-width: 0.8"/>
      </g>
     </g>
     <g id="text_6">
      <!-- 0.50 -->
      <g transform="translate(29.17525 92.619029) scale(0.12 -0.12)">
       <use xlink:href="#DejaVuSans-30"/>
       <use xlink:href="#DejaVuSans-2e" x="63.623047"/>
       <use xlink:href="#DejaVuSans-35" x="95.410156"/>
       <use xlink:href="#DejaVuSans-30" x="159.033203"/>
      </g>
     </g>
    </g>
    <g id="ytick_4">
     <g id="line2d_10">
      <path d="M 62.894 60.250859 
L 421.2 60.250859 
" clip-path="url(#pecef37ba98)" style="fill: none; stroke: #b0b0b0; stroke-width: 0.8; stroke-linecap: square"/>
     </g>
     <g id="line2d_11">
      <g>
       <use xlink:href="#ma9ccfb73bf" x="62.894" y="60.250859" style="stroke: #000000; stroke-width: 0.8"/>
      </g>
     </g>
     <g id="text_7">
      <!-- 0.75 -->
      <g transform="translate(29.17525 64.809922) scale(0.12 -0.12)">
       <defs>
        <path id="DejaVuSans-37" d="M 525 4666 
L 3525 4666 
L 3525 4397 
L 1831 0 
L 1172 0 
L 2766 4134 
L 525 4134 
L 525 4666 
z
" transform="scale(0.015625)"/>
       </defs>
       <use xlink:href="#DejaVuSans-30"/>
       <use xlink:href="#DejaVuSans-2e" x="63.623047"/>
       <use xlink:href="#DejaVuSans-37" x="95.410156"/>
       <use xlink:href="#DejaVuSans-35" x="159.033203"/>
      </g>
     </g>
    </g>
    <g id="ytick_5">
     <g id="line2d_12">
      <path d="M 62.894 32.441752 
L 421.2 32.441752 
" clip-path="url(#pecef37ba98)" style="fill: none; stroke: #b0b0b0; stroke-width: 0.8; stroke-linecap: square"/>
     </g>
     <g id="line2d_13">
      <g>
       <use xlink:href="#ma9ccfb73bf" x="62.894" y="32.441752" style="stroke: #000000; stroke-width: 0.8"/>
      </g>
     </g>
     <g id="text_8">
      <!-- 1.00 -->
      <g transform="translate(29.17525 37.000814) scale(0.12 -0.12)">
       <defs>
        <path id="DejaVuSans-31" d="M 794 531 
L 1825 531 
L 1825 4091 
L 703 3866 
L 703 4441 
L 1819 4666 
L 2450 4666 
L 2450 531 
L 3481 531 
L 3481 0 
L 794 0 
L 794 531 
z
" transform="scale(0.015625)"/>
       </defs>
       <use xlink:href="#DejaVuSans-31"/>
       <use xlink:href="#DejaVuSans-2e" x="63.623047"/>
       <use xlink:href="#DejaVuSans-30" x="95.410156"/>
       <use xlink:href="#DejaVuSans-30" x="159.033203"/>
      </g>
     </g>
    </g>
    <g id="text_9">
     <!-- $p_{\text{gs}}$ -->
     <g transform="translate(21.45525 96.94) rotate(-90) scale(0.12 -0.12)">
      <defs>
       <path id="DejaVuSans-Oblique-70" d="M 3175 2156 
Q 3175 2616 2975 2859 
Q 2775 3103 2400 3103 
Q 2144 3103 1911 2972 
Q 1678 2841 1497 2591 
Q 1319 2344 1212 1994 
Q 1106 1644 1106 1300 
Q 1106 863 1306 627 
Q 1506 391 1875 391 
Q 2147 391 2380 519 
Q 2613 647 2778 891 
Q 2956 1147 3065 1494 
Q 3175 1841 3175 2156 
z
M 1394 2969 
Q 1625 3272 1939 3428 
Q 2253 3584 2638 3584 
Q 3175 3584 3472 3232 
Q 3769 2881 3769 2247 
Q 3769 1728 3584 1258 
Q 3400 788 3053 416 
Q 2822 169 2531 39 
Q 2241 -91 1919 -91 
Q 1547 -91 1294 64 
Q 1041 219 916 525 
L 556 -1331 
L -19 -1331 
L 922 3500 
L 1497 3500 
L 1394 2969 
z
" transform="scale(0.015625)"/>
       <path id="DejaVuSans-67" d="M 2906 1791 
Q 2906 2416 2648 2759 
Q 2391 3103 1925 3103 
Q 1463 3103 1205 2759 
Q 947 2416 947 1791 
Q 947 1169 1205 825 
Q 1463 481 1925 481 
Q 2391 481 2648 825 
Q 2906 1169 2906 1791 
z
M 3481 434 
Q 3481 -459 3084 -895 
Q 2688 -1331 1869 -1331 
Q 1566 -1331 1297 -1286 
Q 1028 -1241 775 -1147 
L 775 -588 
Q 1028 -725 1275 -790 
Q 1522 -856 1778 -856 
Q 2344 -856 2625 -561 
Q 2906 -266 2906 331 
L 2906 616 
Q 2728 306 2450 153 
Q 2172 0 1784 0 
Q 1141 0 747 490 
Q 353 981 353 1791 
Q 353 2603 747 3093 
Q 1141 3584 1784 3584 
Q 2172 3584 2450 3431 
Q 2728 3278 2906 2969 
L 2906 3500 
L 3481 3500 
L 3481 434 
z
" transform="scale(0.015625)"/>
       <path id="DejaVuSans-73" d="M 2834 3397 
L 2834 2853 
Q 2591 2978 2328 3040 
Q 2066 3103 1784 3103 
Q 1356 3103 1142 2972 
Q 928 2841 928 2578 
Q 928 2378 1081 2264 
Q 1234 2150 1697 2047 
L 1894 2003 
Q 2506 1872 2764 1633 
Q 3022 1394 3022 966 
Q 3022 478 2636 193 
Q 2250 -91 1575 -91 
Q 1294 -91 989 -36 
Q 684 19 347 128 
L 347 722 
Q 666 556 975 473 
Q 1284 391 1588 391 
Q 1994 391 2212 530 
Q 2431 669 2431 922 
Q 2431 1156 2273 1281 
Q 2116 1406 1581 1522 
L 1381 1569 
Q 847 1681 609 1914 
Q 372 2147 372 2553 
Q 372 3047 722 3315 
Q 1072 3584 1716 3584 
Q 2034 3584 2315 3537 
Q 2597 3491 2834 3397 
z
" transform="scale(0.015625)"/>
      </defs>
      <use xlink:href="#DejaVuSans-Oblique-70"/>
      <use xlink:href="#DejaVuSans-67" transform="translate(63.476562 -16.40625) scale(0.7)"/>
      <use xlink:href="#DejaVuSans-73" transform="translate(107.910156 -16.40625) scale(0.7)"/>
     </g>
    </g>
   </g>
   <g id="patch_3">
    <path d="M 62.894 149.24 
L 62.894 26.88 
" style="fill: none; stroke: #000000; stroke-width: 0.8; stroke-linejoin: miter; stroke-linecap: square"/>
   </g>
   <g id="patch_4">
    <path d="M 421.2 149.24 
L 421.2 26.88 
" style="fill: none; stroke: #000000; stroke-width: 0.8; stroke-linejoin: miter; stroke-linecap: square"/>
   </g>
   <g id="patch_5">
    <path d="M 62.894 149.24 
L 421.2 149.24 
" style="fill: none; stroke: #000000; stroke-width: 0.8; stroke-linejoin: miter; stroke-linecap: square"/>
   </g>
   <g id="patch_6">
    <path d="M 62.894 26.88 
L 421.2 26.88 
" style="fill: none; stroke: #000000; stroke-width: 0.8; stroke-linejoin: miter; stroke-linecap: square"/>
   </g>
   <g id="PathCollection_1">
    <defs>
     <path id="C0_0_2ed81c010e" d="M 0 2 
C 0.530406 2 1.03916 1.789267 1.414214 1.414214 
C 1.789267 1.03916 2 0.530406 2 -0 
C 2 -0.530406 1.789267 -1.03916 1.414214 -1.414214 
C 1.03916 -1.789267 0.530406 -2 0 -2 
C -0.530406 -2 -1.03916 -1.789267 -1.414214 -1.414214 
C -1.789267 -1.03916 -2 -0.530406 -2 0 
C -2 0.530406 -1.789267 1.03916 -1.414214 1.414214 
C -1.03916 1.789267 -0.530406 2 0 2 
z
"/>
    </defs>
    <g clip-path="url(#pecef37ba98)">
     <use xlink:href="#C0_0_2ed81c010e" x="122.611667" y="143.678182" style="fill: #495086; fill-opacity: 0.8"/>
    </g>
    <g clip-path="url(#pecef37ba98)">
     <use xlink:href="#C0_0_2ed81c010e" x="118.411667" y="143.678182" style="fill: #495086; fill-opacity: 0.8"/>
    </g>
    <g clip-path="url(#pecef37ba98)">
     <use xlink:href="#C0_0_2ed81c010e" x="126.811667" y="143.678182" style="fill: #495086; fill-opacity: 0.8"/>
    </g>
    <g clip-path="url(#pecef37ba98)">
     <use xlink:href="#C0_0_2ed81c010e" x="105.880858" y="32.453209" style="fill: #495086; fill-opacity: 0.8"/>
    </g>
    <g clip-path="url(#pecef37ba98)">
     <use xlink:href="#C0_0_2ed81c010e" x="89.080866" y="32.44203" style="fill: #495086; fill-opacity: 0.8"/>
    </g>
    <g clip-path="url(#pecef37ba98)">
     <use xlink:href="#C0_0_2ed81c010e" x="131.011667" y="143.678182" style="fill: #495086; fill-opacity: 0.8"/>
    </g>
    <g clip-path="url(#pecef37ba98)">
     <use xlink:href="#C0_0_2ed81c010e" x="101.680866" y="32.445757" style="fill: #495086; fill-opacity: 0.8"/>
    </g>
    <g clip-path="url(#pecef37ba98)">
     <use xlink:href="#C0_0_2ed81c010e" x="135.211667" y="143.678182" style="fill: #495086; fill-opacity: 0.8"/>
    </g>
    <g clip-path="url(#pecef37ba98)">
     <use xlink:href="#C0_0_2ed81c010e" x="139.282094" y="32.453487" style="fill: #495086; fill-opacity: 0.8"/>
    </g>
    <g clip-path="url(#pecef37ba98)">
     <use xlink:href="#C0_0_2ed81c010e" x="80.618306" y="143.45333" style="fill: #495086; fill-opacity: 0.8"/>
    </g>
    <g clip-path="url(#pecef37ba98)">
     <use xlink:href="#C0_0_2ed81c010e" x="110.080855" y="32.457949" style="fill: #495086; fill-opacity: 0.8"/>
    </g>
    <g clip-path="url(#pecef37ba98)">
     <use xlink:href="#C0_0_2ed81c010e" x="89.011667" y="143.678182" style="fill: #495086; fill-opacity: 0.8"/>
    </g>
    <g clip-path="url(#pecef37ba98)">
     <use xlink:href="#C0_0_2ed81c010e" x="147.682087" y="32.44512" style="fill: #495086; fill-opacity: 0.8"/>
    </g>
    <g clip-path="url(#pecef37ba98)">
     <use xlink:href="#C0_0_2ed81c010e" x="97.411667" y="143.678182" style="fill: #495086; fill-opacity: 0.8"/>
    </g>
    <g clip-path="url(#pecef37ba98)">
     <use xlink:href="#C0_0_2ed81c010e" x="84.811667" y="143.67816" style="fill: #495086; fill-opacity: 0.8"/>
    </g>
    <g clip-path="url(#pecef37ba98)">
     <use xlink:href="#C0_0_2ed81c010e" x="143.482087" y="32.446154" style="fill: #495086; fill-opacity: 0.8"/>
    </g>
    <g clip-path="url(#pecef37ba98)">
     <use xlink:href="#C0_0_2ed81c010e" x="147.811667" y="143.678182" style="fill: #495086; fill-opacity: 0.8"/>
    </g>
    <g clip-path="url(#pecef37ba98)">
     <use xlink:href="#C0_0_2ed81c010e" x="151.882087" y="32.44398" style="fill: #495086; fill-opacity: 0.8"/>
    </g>
    <g clip-path="url(#pecef37ba98)">
     <use xlink:href="#C0_0_2ed81c010e" x="122.611667" y="113.481875" style="fill: #495086; fill-opacity: 0.8"/>
    </g>
    <g clip-path="url(#pecef37ba98)">
     <use xlink:href="#C0_0_2ed81c010e" x="126.682232" y="32.506297" style="fill: #495086; fill-opacity: 0.8"/>
    </g>
    <g clip-path="url(#pecef37ba98)">
     <use xlink:href="#C0_0_2ed81c010e" x="101.611667" y="143.678182" style="fill: #495086; fill-opacity: 0.8"/>
    </g>
    <g clip-path="url(#pecef37ba98)">
     <use xlink:href="#C0_0_2ed81c010e" x="160.411667" y="143.678182" style="fill: #495086; fill-opacity: 0.8"/>
    </g>
    <g clip-path="url(#pecef37ba98)">
     <use xlink:href="#C0_0_2ed81c010e" x="164.611663" y="143.6729" style="fill: #495086; fill-opacity: 0.8"/>
    </g>
    <g clip-path="url(#pecef37ba98)">
     <use xlink:href="#C0_0_2ed81c010e" x="156.211667" y="143.678182" style="fill: #495086; fill-opacity: 0.8"/>
    </g>
    <g clip-path="url(#pecef37ba98)">
     <use xlink:href="#C0_0_2ed81c010e" x="119.751556" y="92.266648" style="fill: #495086; fill-opacity: 0.8"/>
    </g>
    <g clip-path="url(#pecef37ba98)">
     <use xlink:href="#C0_0_2ed81c010e" x="143.611667" y="143.678182" style="fill: #495086; fill-opacity: 0.8"/>
    </g>
    <g clip-path="url(#pecef37ba98)">
     <use xlink:href="#C0_0_2ed81c010e" x="118.418175" y="123.600343" style="fill: #495086; fill-opacity: 0.8"/>
    </g>
    <g clip-path="url(#pecef37ba98)">
     <use xlink:href="#C0_0_2ed81c010e" x="114.280707" y="32.491518" style="fill: #495086; fill-opacity: 0.8"/>
    </g>
    <g clip-path="url(#pecef37ba98)">
     <use xlink:href="#C0_0_2ed81c010e" x="105.811667" y="143.678182" style="fill: #495086; fill-opacity: 0.8"/>
    </g>
    <g clip-path="url(#pecef37ba98)">
     <use xlink:href="#C0_0_2ed81c010e" x="135.082182" y="32.479405" style="fill: #495086; fill-opacity: 0.8"/>
    </g>
    <g clip-path="url(#pecef37ba98)">
     <use xlink:href="#C0_0_2ed81c010e" x="156.082086" y="32.442117" style="fill: #495086; fill-opacity: 0.8"/>
    </g>
    <g clip-path="url(#pecef37ba98)">
     <use xlink:href="#C0_0_2ed81c010e" x="139.411667" y="143.678182" style="fill: #495086; fill-opacity: 0.8"/>
    </g>
    <g clip-path="url(#pecef37ba98)">
     <use xlink:href="#C0_0_2ed81c010e" x="110.011667" y="143.678182" style="fill: #495086; fill-opacity: 0.8"/>
    </g>
    <g clip-path="url(#pecef37ba98)">
     <use xlink:href="#C0_0_2ed81c010e" x="97.480866" y="32.444232" style="fill: #495086; fill-opacity: 0.8"/>
    </g>
    <g clip-path="url(#pecef37ba98)">
     <use xlink:href="#C0_0_2ed81c010e" x="122.611667" y="86.948432" style="fill: #495086; fill-opacity: 0.8"/>
    </g>
    <g clip-path="url(#pecef37ba98)">
     <use xlink:href="#C0_0_2ed81c010e" x="118.460483" y="32.883589" style="fill: #495086; fill-opacity: 0.8"/>
    </g>
    <g clip-path="url(#pecef37ba98)">
     <use xlink:href="#C0_0_2ed81c010e" x="122.611667" y="123.822945" style="fill: #495086; fill-opacity: 0.8"/>
    </g>
    <g clip-path="url(#pecef37ba98)">
     <use xlink:href="#C0_0_2ed81c010e" x="122.611667" y="33.491678" style="fill: #495086; fill-opacity: 0.8"/>
    </g>
    <g clip-path="url(#pecef37ba98)">
     <use xlink:href="#C0_0_2ed81c010e" x="130.882216" y="32.49541" style="fill: #495086; fill-opacity: 0.8"/>
    </g>
    <g clip-path="url(#pecef37ba98)">
     <use xlink:href="#C0_0_2ed81c010e" x="122.611667" y="39.59503" style="fill: #495086; fill-opacity: 0.8"/>
    </g>
    <g clip-path="url(#pecef37ba98)">
     <use xlink:href="#C0_0_2ed81c010e" x="114.211667" y="143.678182" style="fill: #495086; fill-opacity: 0.8"/>
    </g>
    <g clip-path="url(#pecef37ba98)">
     <use xlink:href="#C0_0_2ed81c010e" x="119.393285" y="37.025009" style="fill: #495086; fill-opacity: 0.8"/>
    </g>
    <g clip-path="url(#pecef37ba98)">
     <use xlink:href="#C0_0_2ed81c010e" x="152.011667" y="143.678182" style="fill: #495086; fill-opacity: 0.8"/>
    </g>
    <g clip-path="url(#pecef37ba98)">
     <use xlink:href="#C0_0_2ed81c010e" x="93.280866" y="32.443197" style="fill: #495086; fill-opacity: 0.8"/>
    </g>
    <g clip-path="url(#pecef37ba98)">
     <use xlink:href="#C0_0_2ed81c010e" x="93.211667" y="143.678182" style="fill: #495086; fill-opacity: 0.8"/>
    </g>
    <g clip-path="url(#pecef37ba98)">
     <use xlink:href="#C0_0_2ed81c010e" x="160.282086" y="32.442004" style="fill: #495086; fill-opacity: 0.8"/>
    </g>
    <g clip-path="url(#pecef37ba98)">
     <use xlink:href="#C0_0_2ed81c010e" x="122.611667" y="44.793617" style="fill: #495086; fill-opacity: 0.8"/>
    </g>
    <g clip-path="url(#pecef37ba98)">
     <use xlink:href="#C0_0_2ed81c010e" x="122.611667" y="95.195861" style="fill: #495086; fill-opacity: 0.8"/>
    </g>
   </g>
   <g id="PathCollection_2">
    <defs>
     <path id="C1_0_0bb5893aef" d="M 0 2 
C 0.530406 2 1.03916 1.789267 1.414214 1.414214 
C 1.789267 1.03916 2 0.530406 2 -0 
C 2 -0.530406 1.789267 -1.03916 1.414214 -1.414214 
C 1.03916 -1.789267 0.530406 -2 0 -2 
C -0.530406 -2 -1.03916 -1.789267 -1.414214 -1.414214 
C -1.789267 -1.03916 -2 -0.530406 -2 0 
C -2 0.530406 -1.789267 1.03916 -1.414214 1.414214 
C -1.03916 1.789267 -0.530406 2 0 2 
z
"/>
    </defs>
    <g clip-path="url(#pecef37ba98)">
     <use xlink:href="#C1_0_0bb5893aef" x="242.047" y="143.678182" style="fill: #495086; fill-opacity: 0.8"/>
    </g>
    <g clip-path="url(#pecef37ba98)">
     <use xlink:href="#C1_0_0bb5893aef" x="275.647" y="143.678182" style="fill: #495086; fill-opacity: 0.8"/>
    </g>
    <g clip-path="url(#pecef37ba98)">
     <use xlink:href="#C1_0_0bb5893aef" x="246.247" y="143.678182" style="fill: #495086; fill-opacity: 0.8"/>
    </g>
    <g clip-path="url(#pecef37ba98)">
     <use xlink:href="#C1_0_0bb5893aef" x="271.447" y="32.441898" style="fill: #495086; fill-opacity: 0.8"/>
    </g>
    <g clip-path="url(#pecef37ba98)">
     <use xlink:href="#C1_0_0bb5893aef" x="289.821133" y="32.441818" style="fill: #495086; fill-opacity: 0.8"/>
    </g>
    <g clip-path="url(#pecef37ba98)">
     <use xlink:href="#C1_0_0bb5893aef" x="229.447" y="143.678182" style="fill: #495086; fill-opacity: 0.8"/>
    </g>
    <g clip-path="url(#pecef37ba98)">
     <use xlink:href="#C1_0_0bb5893aef" x="250.447" y="32.44203" style="fill: #495086; fill-opacity: 0.8"/>
    </g>
    <g clip-path="url(#pecef37ba98)">
     <use xlink:href="#C1_0_0bb5893aef" x="200.047" y="32.441845" style="fill: #495086; fill-opacity: 0.8"/>
    </g>
    <g clip-path="url(#pecef37ba98)">
     <use xlink:href="#C1_0_0bb5893aef" x="225.247" y="143.678182" style="fill: #495086; fill-opacity: 0.8"/>
    </g>
    <g clip-path="url(#pecef37ba98)">
     <use xlink:href="#C1_0_0bb5893aef" x="195.847" y="32.441838" style="fill: #495086; fill-opacity: 0.8"/>
    </g>
    <g clip-path="url(#pecef37ba98)">
     <use xlink:href="#C1_0_0bb5893aef" x="212.647" y="143.678182" style="fill: #495086; fill-opacity: 0.8"/>
    </g>
    <g clip-path="url(#pecef37ba98)">
     <use xlink:href="#C1_0_0bb5893aef" x="279.847" y="143.678182" style="fill: #495086; fill-opacity: 0.8"/>
    </g>
    <g clip-path="url(#pecef37ba98)">
     <use xlink:href="#C1_0_0bb5893aef" x="212.647" y="32.441884" style="fill: #495086; fill-opacity: 0.8"/>
    </g>
    <g clip-path="url(#pecef37ba98)">
     <use xlink:href="#C1_0_0bb5893aef" x="208.447" y="32.441871" style="fill: #495086; fill-opacity: 0.8"/>
    </g>
    <g clip-path="url(#pecef37ba98)">
     <use xlink:href="#C1_0_0bb5893aef" x="267.247" y="143.678182" style="fill: #495086; fill-opacity: 0.8"/>
    </g>
    <g clip-path="url(#pecef37ba98)">
     <use xlink:href="#C1_0_0bb5893aef" x="216.847" y="143.678182" style="fill: #495086; fill-opacity: 0.8"/>
    </g>
    <g clip-path="url(#pecef37ba98)">
     <use xlink:href="#C1_0_0bb5893aef" x="284.047" y="32.441851" style="fill: #495086; fill-opacity: 0.8"/>
    </g>
    <g clip-path="url(#pecef37ba98)">
     <use xlink:href="#C1_0_0bb5893aef" x="263.047" y="143.678182" style="fill: #495086; fill-opacity: 0.8"/>
    </g>
    <g clip-path="url(#pecef37ba98)">
     <use xlink:href="#C1_0_0bb5893aef" x="237.847" y="32.442236" style="fill: #495086; fill-opacity: 0.8"/>
    </g>
    <g clip-path="url(#pecef37ba98)">
     <use xlink:href="#C1_0_0bb5893aef" x="204.247" y="32.441858" style="fill: #495086; fill-opacity: 0.8"/>
    </g>
    <g clip-path="url(#pecef37ba98)">
     <use xlink:href="#C1_0_0bb5893aef" x="200.047" y="143.678182" style="fill: #495086; fill-opacity: 0.8"/>
    </g>
    <g clip-path="url(#pecef37ba98)">
     <use xlink:href="#C1_0_0bb5893aef" x="221.047" y="143.678182" style="fill: #495086; fill-opacity: 0.8"/>
    </g>
    <g clip-path="url(#pecef37ba98)">
     <use xlink:href="#C1_0_0bb5893aef" x="267.247" y="32.441951" style="fill: #495086; fill-opacity: 0.8"/>
    </g>
    <g clip-path="url(#pecef37ba98)">
     <use xlink:href="#C1_0_0bb5893aef" x="208.447" y="143.678182" style="fill: #495086; fill-opacity: 0.8"/>
    </g>
    <g clip-path="url(#pecef37ba98)">
     <use xlink:href="#C1_0_0bb5893aef" x="289.821133" y="32.441838" style="fill: #495086; fill-opacity: 0.8"/>
    </g>
    <g clip-path="url(#pecef37ba98)">
     <use xlink:href="#C1_0_0bb5893aef" x="242.047" y="112.402288" style="fill: #495086; fill-opacity: 0.8"/>
    </g>
    <g clip-path="url(#pecef37ba98)">
     <use xlink:href="#C1_0_0bb5893aef" x="204.247" y="143.678182" style="fill: #495086; fill-opacity: 0.8"/>
    </g>
    <g clip-path="url(#pecef37ba98)">
     <use xlink:href="#C1_0_0bb5893aef" x="275.647" y="32.441871" style="fill: #495086; fill-opacity: 0.8"/>
    </g>
    <g clip-path="url(#pecef37ba98)">
     <use xlink:href="#C1_0_0bb5893aef" x="258.847" y="143.678182" style="fill: #495086; fill-opacity: 0.8"/>
    </g>
    <g clip-path="url(#pecef37ba98)">
     <use xlink:href="#C1_0_0bb5893aef" x="254.647" y="143.678182" style="fill: #495086; fill-opacity: 0.8"/>
    </g>
    <g clip-path="url(#pecef37ba98)">
     <use xlink:href="#C1_0_0bb5893aef" x="246.247" y="32.442044" style="fill: #495086; fill-opacity: 0.8"/>
    </g>
    <g clip-path="url(#pecef37ba98)">
     <use xlink:href="#C1_0_0bb5893aef" x="221.047" y="32.441951" style="fill: #495086; fill-opacity: 0.8"/>
    </g>
    <g clip-path="url(#pecef37ba98)">
     <use xlink:href="#C1_0_0bb5893aef" x="271.447" y="143.678182" style="fill: #495086; fill-opacity: 0.8"/>
    </g>
    <g clip-path="url(#pecef37ba98)">
     <use xlink:href="#C1_0_0bb5893aef" x="233.647" y="32.441991" style="fill: #495086; fill-opacity: 0.8"/>
    </g>
    <g clip-path="url(#pecef37ba98)">
     <use xlink:href="#C1_0_0bb5893aef" x="250.447" y="143.678182" style="fill: #495086; fill-opacity: 0.8"/>
    </g>
    <g clip-path="url(#pecef37ba98)">
     <use xlink:href="#C1_0_0bb5893aef" x="242.047" y="128.097235" style="fill: #495086; fill-opacity: 0.8"/>
    </g>
    <g clip-path="url(#pecef37ba98)">
     <use xlink:href="#C1_0_0bb5893aef" x="233.647" y="143.678182" style="fill: #495086; fill-opacity: 0.8"/>
    </g>
    <g clip-path="url(#pecef37ba98)">
     <use xlink:href="#C1_0_0bb5893aef" x="216.847" y="32.441931" style="fill: #495086; fill-opacity: 0.8"/>
    </g>
    <g clip-path="url(#pecef37ba98)">
     <use xlink:href="#C1_0_0bb5893aef" x="242.047" y="32.442441" style="fill: #495086; fill-opacity: 0.8"/>
    </g>
    <g clip-path="url(#pecef37ba98)">
     <use xlink:href="#C1_0_0bb5893aef" x="279.847" y="32.441865" style="fill: #495086; fill-opacity: 0.8"/>
    </g>
    <g clip-path="url(#pecef37ba98)">
     <use xlink:href="#C1_0_0bb5893aef" x="225.247" y="32.441977" style="fill: #495086; fill-opacity: 0.8"/>
    </g>
    <g clip-path="url(#pecef37ba98)">
     <use xlink:href="#C1_0_0bb5893aef" x="288.247" y="32.441845" style="fill: #495086; fill-opacity: 0.8"/>
    </g>
    <g clip-path="url(#pecef37ba98)">
     <use xlink:href="#C1_0_0bb5893aef" x="237.847" y="143.678182" style="fill: #495086; fill-opacity: 0.8"/>
    </g>
    <g clip-path="url(#pecef37ba98)">
     <use xlink:href="#C1_0_0bb5893aef" x="254.647" y="32.441984" style="fill: #495086; fill-opacity: 0.8"/>
    </g>
    <g clip-path="url(#pecef37ba98)">
     <use xlink:href="#C1_0_0bb5893aef" x="258.847" y="32.441977" style="fill: #495086; fill-opacity: 0.8"/>
    </g>
    <g clip-path="url(#pecef37ba98)">
     <use xlink:href="#C1_0_0bb5893aef" x="194.272867" y="32.441831" style="fill: #495086; fill-opacity: 0.8"/>
    </g>
    <g clip-path="url(#pecef37ba98)">
     <use xlink:href="#C1_0_0bb5893aef" x="263.047" y="32.441957" style="fill: #495086; fill-opacity: 0.8"/>
    </g>
    <g clip-path="url(#pecef37ba98)">
     <use xlink:href="#C1_0_0bb5893aef" x="229.447" y="32.441977" style="fill: #495086; fill-opacity: 0.8"/>
    </g>
   </g>
   <g id="PathCollection_3">
    <defs>
     <path id="C2_0_0c1b55a601" d="M 0 2 
C 0.530406 2 1.03916 1.789267 1.414214 1.414214 
C 1.789267 1.03916 2 0.530406 2 -0 
C 2 -0.530406 1.789267 -1.03916 1.414214 -1.414214 
C 1.03916 -1.789267 0.530406 -2 0 -2 
C -0.530406 -2 -1.03916 -1.789267 -1.414214 -1.414214 
C -1.789267 -1.03916 -2 -0.530406 -2 0 
C -2 0.530406 -1.789267 1.03916 -1.414214 1.414214 
C -1.03916 1.789267 -0.530406 2 0 2 
z
"/>
    </defs>
    <g clip-path="url(#pecef37ba98)">
     <use xlink:href="#C2_0_0c1b55a601" x="327.882333" y="32.442004" style="fill: #495086; fill-opacity: 0.8"/>
    </g>
    <g clip-path="url(#pecef37ba98)">
     <use xlink:href="#C2_0_0c1b55a601" x="369.882333" y="32.442189" style="fill: #495086; fill-opacity: 0.8"/>
    </g>
    <g clip-path="url(#pecef37ba98)">
     <use xlink:href="#C2_0_0c1b55a601" x="340.482333" y="143.678182" style="fill: #495086; fill-opacity: 0.8"/>
    </g>
    <g clip-path="url(#pecef37ba98)">
     <use xlink:href="#C2_0_0c1b55a601" x="382.482333" y="32.44209" style="fill: #495086; fill-opacity: 0.8"/>
    </g>
    <g clip-path="url(#pecef37ba98)">
     <use xlink:href="#C2_0_0c1b55a601" x="378.282333" y="143.678182" style="fill: #495086; fill-opacity: 0.8"/>
    </g>
    <g clip-path="url(#pecef37ba98)">
     <use xlink:href="#C2_0_0c1b55a601" x="386.682333" y="32.44207" style="fill: #495086; fill-opacity: 0.8"/>
    </g>
    <g clip-path="url(#pecef37ba98)">
     <use xlink:href="#C2_0_0c1b55a601" x="319.482333" y="32.441944" style="fill: #495086; fill-opacity: 0.8"/>
    </g>
    <g clip-path="url(#pecef37ba98)">
     <use xlink:href="#C2_0_0c1b55a601" x="374.082333" y="143.678182" style="fill: #495086; fill-opacity: 0.8"/>
    </g>
    <g clip-path="url(#pecef37ba98)">
     <use xlink:href="#C2_0_0c1b55a601" x="315.282333" y="32.441904" style="fill: #495086; fill-opacity: 0.8"/>
    </g>
    <g clip-path="url(#pecef37ba98)">
     <use xlink:href="#C2_0_0c1b55a601" x="313.7082" y="32.441878" style="fill: #495086; fill-opacity: 0.8"/>
    </g>
    <g clip-path="url(#pecef37ba98)">
     <use xlink:href="#C2_0_0c1b55a601" x="340.482333" y="32.44209" style="fill: #495086; fill-opacity: 0.8"/>
    </g>
    <g clip-path="url(#pecef37ba98)">
     <use xlink:href="#C2_0_0c1b55a601" x="313.7082" y="32.441898" style="fill: #495086; fill-opacity: 0.8"/>
    </g>
    <g clip-path="url(#pecef37ba98)">
     <use xlink:href="#C2_0_0c1b55a601" x="336.282333" y="32.442057" style="fill: #495086; fill-opacity: 0.8"/>
    </g>
    <g clip-path="url(#pecef37ba98)">
     <use xlink:href="#C2_0_0c1b55a601" x="409.256467" y="32.441871" style="fill: #495086; fill-opacity: 0.8"/>
    </g>
    <g clip-path="url(#pecef37ba98)">
     <use xlink:href="#C2_0_0c1b55a601" x="390.882333" y="143.678182" style="fill: #495086; fill-opacity: 0.8"/>
    </g>
    <g clip-path="url(#pecef37ba98)">
     <use xlink:href="#C2_0_0c1b55a601" x="357.282333" y="32.442256" style="fill: #495086; fill-opacity: 0.8"/>
    </g>
    <g clip-path="url(#pecef37ba98)">
     <use xlink:href="#C2_0_0c1b55a601" x="399.282333" y="32.442004" style="fill: #495086; fill-opacity: 0.8"/>
    </g>
    <g clip-path="url(#pecef37ba98)">
     <use xlink:href="#C2_0_0c1b55a601" x="369.882333" y="143.678182" style="fill: #495086; fill-opacity: 0.8"/>
    </g>
    <g clip-path="url(#pecef37ba98)">
     <use xlink:href="#C2_0_0c1b55a601" x="353.082333" y="143.678182" style="fill: #495086; fill-opacity: 0.8"/>
    </g>
    <g clip-path="url(#pecef37ba98)">
     <use xlink:href="#C2_0_0c1b55a601" x="348.882333" y="32.44217" style="fill: #495086; fill-opacity: 0.8"/>
    </g>
    <g clip-path="url(#pecef37ba98)">
     <use xlink:href="#C2_0_0c1b55a601" x="365.682333" y="143.678182" style="fill: #495086; fill-opacity: 0.8"/>
    </g>
    <g clip-path="url(#pecef37ba98)">
     <use xlink:href="#C2_0_0c1b55a601" x="357.282333" y="143.678182" style="fill: #495086; fill-opacity: 0.8"/>
    </g>
    <g clip-path="url(#pecef37ba98)">
     <use xlink:href="#C2_0_0c1b55a601" x="353.082333" y="32.442216" style="fill: #495086; fill-opacity: 0.8"/>
    </g>
    <g clip-path="url(#pecef37ba98)">
     <use xlink:href="#C2_0_0c1b55a601" x="361.482333" y="143.678182" style="fill: #495086; fill-opacity: 0.8"/>
    </g>
    <g clip-path="url(#pecef37ba98)">
     <use xlink:href="#C2_0_0c1b55a601" x="378.282333" y="32.442103" style="fill: #495086; fill-opacity: 0.8"/>
    </g>
    <g clip-path="url(#pecef37ba98)">
     <use xlink:href="#C2_0_0c1b55a601" x="382.482333" y="143.678182" style="fill: #495086; fill-opacity: 0.8"/>
    </g>
    <g clip-path="url(#pecef37ba98)">
     <use xlink:href="#C2_0_0c1b55a601" x="395.082333" y="32.44201" style="fill: #495086; fill-opacity: 0.8"/>
    </g>
    <g clip-path="url(#pecef37ba98)">
     <use xlink:href="#C2_0_0c1b55a601" x="361.482333" y="128.090371" style="fill: #495086; fill-opacity: 0.8"/>
    </g>
    <g clip-path="url(#pecef37ba98)">
     <use xlink:href="#C2_0_0c1b55a601" x="365.682333" y="32.442229" style="fill: #495086; fill-opacity: 0.8"/>
    </g>
    <g clip-path="url(#pecef37ba98)">
     <use xlink:href="#C2_0_0c1b55a601" x="313.7082" y="32.441825" style="fill: #495086; fill-opacity: 0.8"/>
    </g>
    <g clip-path="url(#pecef37ba98)">
     <use xlink:href="#C2_0_0c1b55a601" x="409.256467" y="32.441878" style="fill: #495086; fill-opacity: 0.8"/>
    </g>
    <g clip-path="url(#pecef37ba98)">
     <use xlink:href="#C2_0_0c1b55a601" x="348.882333" y="143.678182" style="fill: #495086; fill-opacity: 0.8"/>
    </g>
    <g clip-path="url(#pecef37ba98)">
     <use xlink:href="#C2_0_0c1b55a601" x="390.882333" y="32.442044" style="fill: #495086; fill-opacity: 0.8"/>
    </g>
    <g clip-path="url(#pecef37ba98)">
     <use xlink:href="#C2_0_0c1b55a601" x="323.682333" y="32.441964" style="fill: #495086; fill-opacity: 0.8"/>
    </g>
    <g clip-path="url(#pecef37ba98)">
     <use xlink:href="#C2_0_0c1b55a601" x="344.682333" y="143.678182" style="fill: #495086; fill-opacity: 0.8"/>
    </g>
    <g clip-path="url(#pecef37ba98)">
     <use xlink:href="#C2_0_0c1b55a601" x="361.482333" y="32.442256" style="fill: #495086; fill-opacity: 0.8"/>
    </g>
    <g clip-path="url(#pecef37ba98)">
     <use xlink:href="#C2_0_0c1b55a601" x="336.282333" y="143.678182" style="fill: #495086; fill-opacity: 0.8"/>
    </g>
    <g clip-path="url(#pecef37ba98)">
     <use xlink:href="#C2_0_0c1b55a601" x="386.682333" y="143.678182" style="fill: #495086; fill-opacity: 0.8"/>
    </g>
    <g clip-path="url(#pecef37ba98)">
     <use xlink:href="#C2_0_0c1b55a601" x="327.882333" y="143.678182" style="fill: #495086; fill-opacity: 0.8"/>
    </g>
    <g clip-path="url(#pecef37ba98)">
     <use xlink:href="#C2_0_0c1b55a601" x="403.482333" y="32.441964" style="fill: #495086; fill-opacity: 0.8"/>
    </g>
    <g clip-path="url(#pecef37ba98)">
     <use xlink:href="#C2_0_0c1b55a601" x="344.682333" y="32.442097" style="fill: #495086; fill-opacity: 0.8"/>
    </g>
    <g clip-path="url(#pecef37ba98)">
     <use xlink:href="#C2_0_0c1b55a601" x="332.082333" y="32.442024" style="fill: #495086; fill-opacity: 0.8"/>
    </g>
    <g clip-path="url(#pecef37ba98)">
     <use xlink:href="#C2_0_0c1b55a601" x="407.682333" y="32.441931" style="fill: #495086; fill-opacity: 0.8"/>
    </g>
    <g clip-path="url(#pecef37ba98)">
     <use xlink:href="#C2_0_0c1b55a601" x="361.482333" y="112.395256" style="fill: #495086; fill-opacity: 0.8"/>
    </g>
    <g clip-path="url(#pecef37ba98)">
     <use xlink:href="#C2_0_0c1b55a601" x="332.082333" y="143.678182" style="fill: #495086; fill-opacity: 0.8"/>
    </g>
    <g clip-path="url(#pecef37ba98)">
     <use xlink:href="#C2_0_0c1b55a601" x="313.7082" y="32.441825" style="fill: #495086; fill-opacity: 0.8"/>
    </g>
    <g clip-path="url(#pecef37ba98)">
     <use xlink:href="#C2_0_0c1b55a601" x="409.256467" y="32.441898" style="fill: #495086; fill-opacity: 0.8"/>
    </g>
    <g clip-path="url(#pecef37ba98)">
     <use xlink:href="#C2_0_0c1b55a601" x="374.082333" y="32.442103" style="fill: #495086; fill-opacity: 0.8"/>
    </g>
   </g>
   <g id="line2d_14"/>
   <g id="text_10">
    <!-- XQAOA -->
    <g transform="translate(220.492 20.88) scale(0.12 -0.12)">
     <defs>
      <path id="DejaVuSans-58" d="M 403 4666 
L 1081 4666 
L 2241 2931 
L 3406 4666 
L 4084 4666 
L 2584 2425 
L 4184 0 
L 3506 0 
L 2194 1984 
L 872 0 
L 191 0 
L 1856 2491 
L 403 4666 
z
" transform="scale(0.015625)"/>
      <path id="DejaVuSans-51" d="M 2522 4238 
Q 1834 4238 1429 3725 
Q 1025 3213 1025 2328 
Q 1025 1447 1429 934 
Q 1834 422 2522 422 
Q 3209 422 3611 934 
Q 4013 1447 4013 2328 
Q 4013 3213 3611 3725 
Q 3209 4238 2522 4238 
z
M 3406 84 
L 4238 -825 
L 3475 -825 
L 2784 -78 
Q 2681 -84 2626 -87 
Q 2572 -91 2522 -91 
Q 1538 -91 948 567 
Q 359 1225 359 2328 
Q 359 3434 948 4092 
Q 1538 4750 2522 4750 
Q 3503 4750 4090 4092 
Q 4678 3434 4678 2328 
Q 4678 1516 4351 937 
Q 4025 359 3406 84 
z
" transform="scale(0.015625)"/>
      <path id="DejaVuSans-4f" d="M 2522 4238 
Q 1834 4238 1429 3725 
Q 1025 3213 1025 2328 
Q 1025 1447 1429 934 
Q 1834 422 2522 422 
Q 3209 422 3611 934 
Q 4013 1447 4013 2328 
Q 4013 3213 3611 3725 
Q 3209 4238 2522 4238 
z
M 2522 4750 
Q 3503 4750 4090 4092 
Q 4678 3434 4678 2328 
Q 4678 1225 4090 567 
Q 3503 -91 2522 -91 
Q 1538 -91 948 565 
Q 359 1222 359 2328 
Q 359 3434 948 4092 
Q 1538 4750 2522 4750 
z
" transform="scale(0.015625)"/>
     </defs>
     <use xlink:href="#DejaVuSans-58"/>
     <use xlink:href="#DejaVuSans-51" x="68.505859"/>
     <use xlink:href="#DejaVuSans-41" x="147.216797"/>
     <use xlink:href="#DejaVuSans-4f" x="213.875"/>
     <use xlink:href="#DejaVuSans-41" x="290.835938"/>
    </g>
   </g>
  </g>
 </g>
 <defs>
  <clipPath id="pecef37ba98">
   <rect x="62.894" y="26.88" width="358.306" height="122.36"/>
  </clipPath>
 </defs>
</svg>
